SplineFontDB: 3.2
FontName: TTText-Bold
FullName: TT Text Bold
FamilyName: TT Text
Weight: Bold
Copyright: copyright missing
Version: 3.000;Glyphs 3.1.2 (3151)
ItalicAngle: 0
UnderlinePosition: -255
UnderlineWidth: 102
Ascent: 1614
Descent: 434
InvalidEm: 0
sfntRevision: 0x00030000
LayerCount: 2
Layer: 0 0 "Back" 1
Layer: 1 0 "Fore" 0
XUID: [1021 950 161365953 9993729]
StyleMap: 0x0020
FSType: 0
OS2Version: 3
OS2_WeightWidthSlopeOnly: 0
OS2_UseTypoMetrics: 0
CreationTime: 1676543964
ModificationTime: 1776383532
PfmFamily: 81
TTFWeight: 700
TTFWidth: 5
LineGap: 0
VLineGap: 0
Panose: 0 0 0 0 0 0 0 0 0 0
OS2TypoAscent: 1614
OS2TypoAOffset: 0
OS2TypoDescent: -434
OS2TypoDOffset: 0
OS2TypoLinegap: 229
OS2WinAscent: 1864
OS2WinAOffset: 0
OS2WinDescent: 434
OS2WinDOffset: 0
HheadAscent: 1864
HheadAOffset: 0
HheadDescent: -434
HheadDOffset: 0
OS2SubXSize: 1331
OS2SubYSize: 1229
OS2SubXOff: 0
OS2SubYOff: 154
OS2SupXSize: 1331
OS2SupYSize: 1229
OS2SupXOff: 0
OS2SupYOff: 717
OS2StrikeYSize: 102
OS2StrikeYPos: 553
OS2CapHeight: 1444
OS2XHeight: 1098
OS2Vendor: 'UKWN'
OS2CodePages: 20000193.00000000
OS2UnicodeRanges: a100007f.4000a47b.00000000.00000000
Lookup: 1 0 0 "'aalt' Access All Alternates in Latin lookup 0" { "'aalt' Access All Alternates in Latin lookup 0 subtable"  } ['aalt' ('DFLT' <'dflt' > 'latn' <'AZE ' 'CAT ' 'CRT ' 'DEU ' 'KAZ ' 'MOL ' 'NLD ' 'ROM ' 'TAT ' 'TRK ' 'dflt' > ) ]
Lookup: 3 0 0 "'aalt' Access All Alternates in Latin lookup 1" { "'aalt' Access All Alternates in Latin lookup 1 subtable"  } ['aalt' ('DFLT' <'dflt' > 'latn' <'AZE ' 'CAT ' 'CRT ' 'DEU ' 'KAZ ' 'MOL ' 'NLD ' 'ROM ' 'TAT ' 'TRK ' 'dflt' > ) ]

StartChar: .notdef
Encoding: 65536 -1 0
Width: 2456
GlyphClass: 1
Flags: HW
LayerCount: 2
Fore
SplineSet
0 -820 m 1
 0 2888 l 1
 2458 2888 l 1
 2458 -820 l 1
 0 -820 l 1
164 -540 m 1
 1130 1036 l 1
 164 2610 l 1
 164 -540 l 1
290 -656 m 1
 2166 -656 l 1
 1228 872 l 1
 290 -656 l 1
290 2724 m 1
 1228 1196 l 1
 2166 2724 l 1
 290 2724 l 1
1328 1036 m 1
 2294 -540 l 1
 2294 2610 l 1
 1328 1036 l 1
EndSplineSet
EndChar

StartChar: exclam
Encoding: 33 33 3
Width: 1592
GlyphClass: 2
Flags: HW
LayerCount: 2
Fore
SplineSet
480 962 m 1
 480 2888 l 1
 1118 2888 l 1
 1118 962 l 1
 480 962 l 1
414 352 m 0
 414 460 450 550 524 622 c 0
 598 694 688 730 794 730 c 0
 904 730 996 694 1070 624 c 0
 1144 552 1180 462 1180 352 c 0
 1180 246 1144 156 1070 84 c 0
 996 12 904 -24 794 -24 c 0
 688 -24 598 12 524 84 c 0
 450 158 414 246 414 352 c 0
EndSplineSet
EndChar

StartChar: quotedbl
Encoding: 34 34 4
Width: 2116
GlyphClass: 2
Flags: HW
LayerCount: 2
Fore
SplineSet
360 1740 m 1
 316 2958 l 1
 892 2958 l 1
 848 1740 l 1
 360 1740 l 1
1224 2958 m 1
 1802 2958 l 1
 1762 1740 l 1
 1270 1740 l 1
 1224 2958 l 1
EndSplineSet
EndChar

StartChar: numbersign
Encoding: 35 35 5
Width: 2768
GlyphClass: 2
Flags: HW
LayerCount: 2
Fore
SplineSet
1888 0 m 1
 1396 0 l 1
 1544 724 l 1
 942 724 l 1
 794 0 l 1
 304 0 l 1
 450 724 l 1
 58 724 l 1
 148 1176 l 1
 544 1176 l 1
 660 1748 l 1
 230 1748 l 1
 328 2196 l 1
 750 2196 l 1
 892 2888 l 1
 1384 2888 l 1
 1242 2196 l 1
 1844 2196 l 1
 1986 2888 l 1
 2478 2888 l 1
 2334 2196 l 1
 2716 2196 l 1
 2618 1748 l 1
 2244 1748 l 1
 2130 1176 l 1
 2548 1176 l 1
 2454 724 l 1
 2036 724 l 1
 1888 0 l 1
1036 1176 m 1
 1638 1176 l 1
 1754 1748 l 1
 1150 1748 l 1
 1036 1176 l 1
EndSplineSet
EndChar

StartChar: dollar
Encoding: 36 36 6
Width: 2502
GlyphClass: 2
Flags: HW
LayerCount: 2
Fore
SplineSet
1168 -380 m 1
 1168 4 l 1
 882 18 654 92 484 226 c 0
 314 360 206 550 160 794 c 1
 676 902 l 1
 706 776 762 674 844 598 c 0
 928 522 1036 476 1168 458 c 1
 1168 1278 l 1
 914 1352 l 2
 720 1410 568 1504 458 1636 c 0
 348 1766 294 1922 294 2102 c 0
 294 2326 372 2508 530 2648 c 0
 688 2786 900 2866 1168 2884 c 1
 1168 3260 l 1
 1458 3260 l 1
 1458 2880 l 1
 1682 2854 1868 2788 2016 2676 c 0
 2166 2568 2260 2424 2298 2248 c 1
 1802 2122 l 1
 1738 2296 1624 2404 1458 2450 c 1
 1458 1728 l 1
 1704 1650 l 2
 2130 1514 2342 1250 2342 860 c 0
 2342 622 2264 428 2108 276 c 0
 1952 128 1736 38 1458 8 c 1
 1458 -380 l 1
 1168 -380 l 1
836 2162 m 0
 836 2080 862 2012 912 1960 c 0
 962 1910 1048 1864 1168 1822 c 1
 1168 2470 l 1
 1064 2458 982 2424 924 2370 c 0
 866 2316 836 2246 836 2162 c 0
1458 462 m 1
 1572 482 1660 522 1724 584 c 0
 1786 646 1818 722 1818 816 c 0
 1818 908 1790 982 1736 1040 c 0
 1680 1096 1588 1146 1458 1188 c 1
 1458 462 l 1
EndSplineSet
Substitution2: "'tnum' Tabular Numbers in Latin lookup 21 subtable" dollar.tf
Substitution2: "'aalt' Access All Alternates in Latin lookup 0 subtable" dollar.tf
EndChar

StartChar: percent
Encoding: 37 37 7
Width: 4120
GlyphClass: 2
Flags: HW
LayerCount: 2
Fore
SplineSet
1044 2920 m 0
 1270 2920 1446 2846 1574 2696 c 0
 1702 2546 1766 2346 1766 2094 c 0
 1766 1840 1702 1638 1572 1488 c 0
 1444 1338 1268 1262 1044 1262 c 0
 818 1262 642 1338 516 1488 c 0
 388 1638 324 1840 324 2094 c 0
 324 2346 388 2546 516 2696 c 0
 642 2846 818 2920 1044 2920 c 0
774 2094 m 0
 774 1928 798 1804 844 1720 c 0
 892 1636 958 1594 1044 1594 c 0
 1128 1594 1194 1636 1242 1720 c 0
 1290 1806 1314 1930 1314 2094 c 0
 1314 2256 1290 2380 1244 2464 c 0
 1196 2546 1130 2588 1044 2588 c 0
 958 2588 892 2546 844 2464 c 0
 798 2380 774 2256 774 2094 c 0
946 0 m 1
 2724 2888 l 1
 3154 2888 l 1
 1380 0 l 1
 946 0 l 1
2352 794 m 0
 2352 1044 2416 1246 2544 1396 c 0
 2672 1546 2848 1622 3072 1622 c 0
 3298 1622 3474 1548 3604 1396 c 0
 3732 1248 3796 1046 3796 794 c 0
 3796 540 3732 340 3604 188 c 0
 3476 40 3298 -36 3072 -36 c 0
 2848 -36 2672 40 2544 188 c 0
 2416 340 2352 540 2352 794 c 0
2802 794 m 0
 2802 628 2826 504 2872 420 c 0
 2920 336 2986 294 3072 294 c 0
 3158 294 3226 336 3274 420 c 0
 3322 506 3346 630 3346 794 c 0
 3346 958 3322 1082 3276 1164 c 0
 3228 1248 3160 1290 3072 1290 c 0
 2986 1290 2920 1248 2872 1164 c 0
 2826 1080 2802 956 2802 794 c 0
EndSplineSet
Substitution2: "'tnum' Tabular Numbers in Latin lookup 21 subtable" percent.tf
Substitution2: "'aalt' Access All Alternates in Latin lookup 0 subtable" percent.tf
EndChar

StartChar: ampersand
Encoding: 38 38 8
Width: 3100
GlyphClass: 2
Flags: HW
LayerCount: 2
Fore
SplineSet
1196 -70 m 0
 890 -70 644 8 452 164 c 0
 264 320 168 524 168 778 c 0
 168 972 230 1138 352 1274 c 0
 474 1410 646 1506 868 1564 c 1
 606 1752 476 1982 476 2256 c 0
 476 2466 556 2634 716 2764 c 0
 876 2894 1086 2958 1344 2958 c 0
 1602 2958 1808 2894 1968 2768 c 0
 2124 2642 2204 2476 2204 2270 c 0
 2204 2094 2150 1944 2042 1820 c 0
 1934 1694 1782 1606 1586 1552 c 1
 2150 946 l 1
 2218 1072 2276 1244 2326 1462 c 1
 2814 1328 l 1
 2780 1160 2738 1020 2686 912 c 0
 2634 800 2562 698 2470 602 c 1
 3032 0 l 1
 2408 0 l 1
 2134 286 l 1
 2028 176 1892 90 1728 26 c 0
 1560 -38 1384 -70 1196 -70 c 0
734 864 m 0
 734 712 784 592 886 502 c 0
 988 412 1124 368 1294 368 c 0
 1516 368 1708 432 1868 562 c 1
 1098 1360 l 1
 972 1302 880 1234 820 1156 c 0
 764 1078 734 980 734 864 c 0
992 2256 m 0
 992 2088 1110 1914 1348 1736 c 1
 1474 1804 1566 1878 1624 1960 c 0
 1682 2042 1712 2136 1712 2244 c 0
 1712 2348 1680 2430 1616 2492 c 0
 1550 2554 1462 2584 1352 2584 c 0
 1240 2584 1152 2554 1088 2496 c 0
 1024 2438 992 2358 992 2256 c 0
EndSplineSet
EndChar

StartChar: quotesingle
Encoding: 39 39 9
Width: 1208
GlyphClass: 2
Flags: HW
LayerCount: 2
Fore
SplineSet
360 1740 m 1
 316 2958 l 1
 892 2958 l 1
 848 1740 l 1
 360 1740 l 1
EndSplineSet
EndChar

StartChar: parenleft
Encoding: 40 40 10
Width: 1698
GlyphClass: 2
Flags: HW
LayerCount: 2
Fore
SplineSet
402 1212 m 0
 402 1546 452 1874 552 2196 c 0
 654 2518 802 2812 996 3080 c 1
 1528 3080 l 1
 1358 2794 1228 2492 1138 2172 c 0
 1048 1854 1004 1534 1004 1212 c 0
 1004 890 1048 570 1138 252 c 0
 1228 -68 1358 -370 1528 -656 c 1
 996 -656 l 1
 802 -388 654 -94 552 228 c 0
 452 550 402 878 402 1212 c 0
EndSplineSet
Substitution2: "'case' Case-Sensitive Forms in Latin lookup 23 subtable" parenleft.case
Substitution2: "'sups' Superscript in Latin lookup 13 subtable" uni207D
Substitution2: "'sinf' Scientific Inferiors in Latin lookup 12 subtable" uni208D
Substitution2: "'subs' Subscript in Latin lookup 11 subtable" uni208D
AlternateSubs2: "'aalt' Access All Alternates in Latin lookup 1 subtable" uni208D uni207D parenleft.case
EndChar

StartChar: parenright
Encoding: 41 41 11
Width: 1698
GlyphClass: 2
Flags: HW
LayerCount: 2
Fore
SplineSet
1302 1212 m 0
 1302 878 1252 550 1150 228 c 0
 1048 -94 900 -388 704 -656 c 1
 168 -656 l 1
 340 -370 472 -68 564 252 c 0
 654 570 700 890 700 1212 c 0
 700 1534 654 1854 564 2172 c 0
 472 2492 340 2794 168 3080 c 1
 704 3080 l 1
 900 2812 1048 2518 1150 2196 c 0
 1252 1874 1302 1546 1302 1212 c 0
EndSplineSet
Substitution2: "'case' Case-Sensitive Forms in Latin lookup 23 subtable" parenright.case
Substitution2: "'sups' Superscript in Latin lookup 13 subtable" uni207E
Substitution2: "'sinf' Scientific Inferiors in Latin lookup 12 subtable" uni208E
Substitution2: "'subs' Subscript in Latin lookup 11 subtable" uni208E
AlternateSubs2: "'aalt' Access All Alternates in Latin lookup 1 subtable" uni208E uni207E parenright.case
EndChar

StartChar: asterisk
Encoding: 42 42 12
Width: 2060
GlyphClass: 2
Flags: HW
LayerCount: 2
Fore
SplineSet
824 2888 m 1
 1242 2888 l 1
 1192 2352 l 1
 1634 2662 l 1
 1844 2294 l 1
 1356 2068 l 1
 1844 1844 l 1
 1634 1474 l 1
 1192 1786 l 1
 1242 1250 l 1
 824 1250 l 1
 872 1790 l 1
 426 1474 l 1
 218 1844 l 1
 704 2068 l 1
 218 2294 l 1
 426 2662 l 1
 872 2348 l 1
 824 2888 l 1
EndSplineSet
EndChar

StartChar: plus
Encoding: 43 43 13
Width: 2784
GlyphClass: 2
Flags: HW
LayerCount: 2
Fore
SplineSet
2338 1352 m 1
 2338 872 l 1
 1634 872 l 1
 1634 148 l 1
 1150 148 l 1
 1150 872 l 1
 446 872 l 1
 446 1352 l 1
 1150 1352 l 1
 1150 2076 l 1
 1634 2076 l 1
 1634 1352 l 1
 2338 1352 l 1
EndSplineSet
Substitution2: "Single Substitution lookup 34 subtable" plus.case
Substitution2: "'case' Case-Sensitive Forms in Latin lookup 23 subtable" plus.case
Substitution2: "'sups' Superscript in Latin lookup 13 subtable" uni207A
Substitution2: "'sinf' Scientific Inferiors in Latin lookup 12 subtable" uni208A
Substitution2: "'subs' Subscript in Latin lookup 11 subtable" uni208A
AlternateSubs2: "'aalt' Access All Alternates in Latin lookup 1 subtable" uni208A uni207A plus.case
EndChar

StartChar: comma
Encoding: 44 44 14
Width: 1326
GlyphClass: 2
Flags: HW
LayerCount: 2
Fore
SplineSet
208 -790 m 1
 496 524 l 1
 1102 524 l 1
 684 -790 l 1
 208 -790 l 1
EndSplineSet
EndChar

StartChar: hyphen
Encoding: 45 45 15
Width: 1788
GlyphClass: 2
Flags: HW
LayerCount: 2
Fore
SplineSet
274 914 m 1
 274 1454 l 1
 1516 1454 l 1
 1516 914 l 1
 274 914 l 1
EndSplineSet
Substitution2: "'case' Case-Sensitive Forms in Latin lookup 23 subtable" hyphen.case
Substitution2: "'aalt' Access All Alternates in Latin lookup 0 subtable" hyphen.case
EndChar

StartChar: period
Encoding: 46 46 16
Width: 1326
GlyphClass: 2
Flags: HW
LayerCount: 2
Fore
SplineSet
664 -20 m 0
 564 -20 480 14 416 80 c 0
 348 148 316 230 316 328 c 0
 316 424 348 504 414 570 c 0
 480 636 562 668 664 668 c 0
 766 668 848 636 914 570 c 0
 980 504 1012 424 1012 328 c 0
 1012 230 980 148 912 80 c 0
 848 14 764 -20 664 -20 c 0
EndSplineSet
EndChar

StartChar: slash
Encoding: 47 47 17
Width: 1650
GlyphClass: 2
Flags: HW
LayerCount: 2
Fore
SplineSet
66 -492 m 1
 1040 2958 l 1
 1586 2958 l 1
 606 -492 l 1
 66 -492 l 1
EndSplineSet
Substitution2: "'case' Case-Sensitive Forms in Latin lookup 23 subtable" slash.case
Substitution2: "'frac' Diagonal Fractions in Latin lookup 16 subtable" fraction
AlternateSubs2: "'aalt' Access All Alternates in Latin lookup 1 subtable" fraction slash.case
EndChar

StartChar: zero
Encoding: 48 48 18
Width: 2740
GlyphClass: 2
Flags: HW
LayerCount: 2
Fore
SplineSet
1368 2950 m 0
 1726 2950 2008 2814 2212 2540 c 0
 2418 2268 2520 1902 2520 1442 c 0
 2520 1140 2474 874 2384 648 c 0
 2294 420 2160 244 1986 118 c 0
 1812 -8 1606 -70 1368 -70 c 0
 1014 -70 732 68 528 342 c 0
 320 616 218 984 218 1442 c 0
 218 1744 264 2010 356 2236 c 0
 446 2462 580 2638 752 2764 c 0
 928 2888 1132 2950 1368 2950 c 0
844 1442 m 0
 844 1118 892 864 986 684 c 0
 1080 500 1208 410 1368 410 c 0
 1530 410 1656 500 1752 682 c 0
 1844 864 1892 1116 1892 1442 c 0
 1892 1766 1844 2018 1752 2200 c 0
 1656 2380 1530 2470 1368 2470 c 0
 1208 2470 1080 2380 986 2200 c 0
 892 2018 844 1766 844 1442 c 0
EndSplineSet
Substitution2: "'ss04' Style Set 4 in Latin lookup 28 subtable" zero.ss01
Substitution2: "'ss01' Style Set 1 in Latin lookup 25 subtable" zero.ss01
Substitution2: "'zero' Slashed Zero in Latin lookup 24 subtable" zero.zero
Substitution2: "'tnum' Tabular Numbers in Latin lookup 21 subtable" zero.tf
Substitution2: "'frac' Diagonal Fractions in Latin lookup 17 subtable" zero.numr
Substitution2: "'dnom' Denominators in Latin lookup 15 subtable" zero.dnom
Substitution2: "'numr' Numerators in Latin lookup 14 subtable" zero.numr
Substitution2: "'sups' Superscript in Latin lookup 13 subtable" uni2070
Substitution2: "'sinf' Scientific Inferiors in Latin lookup 12 subtable" uni2080
Substitution2: "'subs' Subscript in Latin lookup 11 subtable" uni2080
AlternateSubs2: "'aalt' Access All Alternates in Latin lookup 1 subtable" uni2080 uni2070 zero.numr zero.dnom zero.tf zero.zero zero.ss01
EndChar

StartChar: one
Encoding: 49 49 19
Width: 1994
GlyphClass: 2
Flags: HW
LayerCount: 2
Fore
SplineSet
926 0 m 1
 926 2356 l 1
 902 2356 l 1
 106 1646 l 1
 106 2266 l 1
 820 2888 l 1
 1536 2888 l 1
 1536 0 l 1
 926 0 l 1
EndSplineSet
Substitution2: "'tnum' Tabular Numbers in Latin lookup 21 subtable" one.tf
Substitution2: "'frac' Diagonal Fractions in Latin lookup 17 subtable" one.numr
Substitution2: "'dnom' Denominators in Latin lookup 15 subtable" one.dnom
Substitution2: "'numr' Numerators in Latin lookup 14 subtable" one.numr
Substitution2: "'sups' Superscript in Latin lookup 13 subtable" uni00B9
Substitution2: "'sinf' Scientific Inferiors in Latin lookup 12 subtable" uni2081
Substitution2: "'subs' Subscript in Latin lookup 11 subtable" uni2081
AlternateSubs2: "'aalt' Access All Alternates in Latin lookup 1 subtable" uni2081 uni00B9 one.numr one.dnom one.tf
EndChar

StartChar: two
Encoding: 50 50 20
Width: 2604
GlyphClass: 2
Flags: HW
LayerCount: 2
Fore
SplineSet
286 0 m 1
 286 634 l 1
 1294 1450 l 2
 1430 1564 1528 1670 1588 1770 c 0
 1650 1870 1680 1972 1680 2076 c 0
 1680 2196 1644 2292 1572 2368 c 0
 1498 2440 1396 2478 1262 2478 c 0
 1120 2478 1006 2436 922 2348 c 0
 838 2264 786 2138 766 1974 c 1
 200 2072 l 1
 230 2346 342 2562 534 2720 c 0
 726 2876 980 2954 1294 2954 c 0
 1604 2954 1852 2880 2032 2728 c 0
 2216 2580 2306 2376 2306 2118 c 0
 2306 1930 2260 1762 2168 1614 c 0
 2076 1466 1936 1318 1748 1168 c 2
 942 536 l 1
 942 512 l 1
 2400 512 l 1
 2400 0 l 1
 286 0 l 1
EndSplineSet
Substitution2: "'tnum' Tabular Numbers in Latin lookup 21 subtable" two.tf
Substitution2: "'frac' Diagonal Fractions in Latin lookup 17 subtable" two.numr
Substitution2: "'dnom' Denominators in Latin lookup 15 subtable" two.dnom
Substitution2: "'numr' Numerators in Latin lookup 14 subtable" two.numr
Substitution2: "'sups' Superscript in Latin lookup 13 subtable" uni00B2
Substitution2: "'sinf' Scientific Inferiors in Latin lookup 12 subtable" uni2082
Substitution2: "'subs' Subscript in Latin lookup 11 subtable" uni2082
AlternateSubs2: "'aalt' Access All Alternates in Latin lookup 1 subtable" uni2082 uni00B2 two.numr two.dnom two.tf
EndChar

StartChar: three
Encoding: 51 51 21
Width: 2670
GlyphClass: 2
Flags: HW
LayerCount: 2
Fore
SplineSet
1298 -70 m 0
 1020 -70 782 -8 588 118 c 0
 394 244 262 422 196 656 c 1
 742 824 l 1
 816 548 1008 410 1314 410 c 0
 1468 410 1588 454 1680 540 c 0
 1768 626 1814 740 1814 880 c 0
 1814 1024 1766 1136 1668 1218 c 0
 1572 1300 1432 1340 1250 1340 c 2
 860 1340 l 1
 860 1728 l 1
 1582 2356 l 1
 1582 2380 l 1
 364 2380 l 1
 364 2888 l 1
 2248 2888 l 1
 2248 2364 l 1
 1548 1766 l 1
 1548 1740 l 1
 1818 1728 2028 1648 2182 1496 c 0
 2336 1348 2412 1142 2412 884 c 0
 2412 602 2314 372 2120 196 c 0
 1924 18 1650 -70 1298 -70 c 0
EndSplineSet
Substitution2: "'tnum' Tabular Numbers in Latin lookup 21 subtable" three.tf
Substitution2: "'frac' Diagonal Fractions in Latin lookup 17 subtable" three.numr
Substitution2: "'dnom' Denominators in Latin lookup 15 subtable" three.dnom
Substitution2: "'numr' Numerators in Latin lookup 14 subtable" three.numr
Substitution2: "'sups' Superscript in Latin lookup 13 subtable" uni00B3
Substitution2: "'sinf' Scientific Inferiors in Latin lookup 12 subtable" uni2083
Substitution2: "'subs' Subscript in Latin lookup 11 subtable" uni2083
AlternateSubs2: "'aalt' Access All Alternates in Latin lookup 1 subtable" uni2083 uni00B3 three.numr three.dnom three.tf
EndChar

StartChar: four
Encoding: 52 52 22
Width: 2808
GlyphClass: 2
Flags: HW
LayerCount: 2
Fore
SplineSet
1606 0 m 1
 1606 598 l 1
 196 598 l 1
 196 1168 l 1
 1450 2888 l 1
 2244 2888 l 1
 2244 1090 l 1
 2626 1090 l 1
 2626 598 l 1
 2244 598 l 1
 2244 0 l 1
 1606 0 l 1
660 1060 m 1
 1676 1060 l 1
 1676 2446 l 1
 1650 2446 l 1
 660 1090 l 1
 660 1060 l 1
EndSplineSet
Substitution2: "'tnum' Tabular Numbers in Latin lookup 21 subtable" four.tf
Substitution2: "'frac' Diagonal Fractions in Latin lookup 17 subtable" four.numr
Substitution2: "'dnom' Denominators in Latin lookup 15 subtable" four.dnom
Substitution2: "'numr' Numerators in Latin lookup 14 subtable" four.numr
Substitution2: "'sups' Superscript in Latin lookup 13 subtable" uni2074
Substitution2: "'sinf' Scientific Inferiors in Latin lookup 12 subtable" uni2084
Substitution2: "'subs' Subscript in Latin lookup 11 subtable" uni2084
AlternateSubs2: "'aalt' Access All Alternates in Latin lookup 1 subtable" uni2084 uni2074 four.numr four.dnom four.tf
EndChar

StartChar: five
Encoding: 53 53 23
Width: 2534
GlyphClass: 2
Flags: HW
LayerCount: 2
Fore
SplineSet
1242 -70 m 0
 962 -70 730 -8 544 116 c 0
 358 242 234 420 172 652 c 1
 708 812 l 1
 794 544 976 410 1258 410 c 0
 1408 410 1524 456 1608 546 c 0
 1690 636 1732 756 1732 906 c 0
 1732 1054 1684 1172 1588 1258 c 0
 1494 1344 1342 1388 1134 1388 c 2
 390 1388 l 1
 488 2888 l 1
 2232 2888 l 1
 2232 2380 l 1
 958 2380 l 1
 918 1844 l 1
 1204 1844 l 2
 1566 1844 1844 1764 2038 1604 c 0
 2232 1442 2330 1216 2330 922 c 0
 2330 614 2234 372 2040 196 c 0
 1846 18 1580 -70 1242 -70 c 0
EndSplineSet
Substitution2: "'tnum' Tabular Numbers in Latin lookup 21 subtable" five.tf
Substitution2: "'frac' Diagonal Fractions in Latin lookup 17 subtable" five.numr
Substitution2: "'dnom' Denominators in Latin lookup 15 subtable" five.dnom
Substitution2: "'numr' Numerators in Latin lookup 14 subtable" five.numr
Substitution2: "'sups' Superscript in Latin lookup 13 subtable" uni2075
Substitution2: "'sinf' Scientific Inferiors in Latin lookup 12 subtable" uni2085
Substitution2: "'subs' Subscript in Latin lookup 11 subtable" uni2085
AlternateSubs2: "'aalt' Access All Alternates in Latin lookup 1 subtable" uni2085 uni2075 five.numr five.dnom five.tf
EndChar

StartChar: six
Encoding: 54 54 24
Width: 2624
GlyphClass: 2
Flags: HW
LayerCount: 2
Fore
SplineSet
1306 -70 m 0
 976 -70 706 26 496 220 c 0
 286 414 180 668 180 984 c 0
 180 1218 230 1438 330 1648 c 0
 430 1858 596 2094 828 2360 c 2
 1290 2888 l 1
 2036 2888 l 1
 1310 2122 l 2
 1110 1914 962 1744 868 1610 c 1
 892 1610 l 1
 986 1704 1082 1774 1180 1820 c 0
 1278 1868 1394 1892 1528 1892 c 0
 1794 1892 2010 1806 2180 1636 c 0
 2350 1464 2434 1236 2434 954 c 0
 2434 754 2384 576 2284 420 c 0
 2186 262 2050 142 1880 56 c 0
 1710 -28 1518 -70 1306 -70 c 0
782 918 m 0
 782 764 832 638 932 542 c 0
 1034 446 1160 398 1314 398 c 0
 1466 398 1590 446 1684 540 c 0
 1778 636 1826 762 1826 918 c 0
 1826 1072 1778 1196 1680 1292 c 0
 1582 1390 1458 1438 1306 1438 c 0
 1152 1438 1028 1390 928 1292 c 0
 832 1196 782 1072 782 918 c 0
EndSplineSet
Substitution2: "'tnum' Tabular Numbers in Latin lookup 21 subtable" six.tf
Substitution2: "'frac' Diagonal Fractions in Latin lookup 17 subtable" six.numr
Substitution2: "'dnom' Denominators in Latin lookup 15 subtable" six.dnom
Substitution2: "'numr' Numerators in Latin lookup 14 subtable" six.numr
Substitution2: "'sups' Superscript in Latin lookup 13 subtable" uni2076
Substitution2: "'sinf' Scientific Inferiors in Latin lookup 12 subtable" uni2086
Substitution2: "'subs' Subscript in Latin lookup 11 subtable" uni2086
AlternateSubs2: "'aalt' Access All Alternates in Latin lookup 1 subtable" uni2086 uni2076 six.numr six.dnom six.tf
EndChar

StartChar: seven
Encoding: 55 55 25
Width: 2260
GlyphClass: 2
Flags: HW
LayerCount: 2
Fore
SplineSet
312 0 m 1
 1564 2380 l 1
 148 2380 l 1
 148 2888 l 1
 2114 2888 l 1
 2114 2270 l 1
 954 0 l 1
 312 0 l 1
EndSplineSet
Substitution2: "'tnum' Tabular Numbers in Latin lookup 21 subtable" seven.tf
Substitution2: "'frac' Diagonal Fractions in Latin lookup 17 subtable" seven.numr
Substitution2: "'dnom' Denominators in Latin lookup 15 subtable" seven.dnom
Substitution2: "'numr' Numerators in Latin lookup 14 subtable" seven.numr
Substitution2: "'sups' Superscript in Latin lookup 13 subtable" uni2077
Substitution2: "'sinf' Scientific Inferiors in Latin lookup 12 subtable" uni2087
Substitution2: "'subs' Subscript in Latin lookup 11 subtable" uni2087
AlternateSubs2: "'aalt' Access All Alternates in Latin lookup 1 subtable" uni2087 uni2077 seven.numr seven.dnom seven.tf
EndChar

StartChar: eight
Encoding: 56 56 26
Width: 2772
GlyphClass: 2
Flags: HW
LayerCount: 2
Fore
SplineSet
1384 -70 m 0
 1034 -70 754 10 540 170 c 0
 328 330 222 540 222 798 c 0
 222 992 278 1156 388 1288 c 0
 500 1424 648 1508 832 1544 c 1
 832 1564 l 1
 696 1596 584 1668 494 1784 c 0
 404 1896 360 2030 360 2180 c 0
 360 2410 454 2596 644 2740 c 0
 834 2882 1080 2954 1384 2954 c 0
 1690 2954 1936 2882 2128 2740 c 0
 2316 2596 2412 2410 2412 2180 c 0
 2412 2030 2368 1896 2280 1782 c 0
 2190 1668 2078 1594 1942 1564 c 1
 1942 1544 l 1
 2126 1510 2272 1424 2384 1290 c 0
 2492 1156 2548 992 2548 798 c 0
 2548 540 2442 330 2228 170 c 0
 2016 10 1734 -70 1384 -70 c 0
856 848 m 0
 856 708 904 594 1002 508 c 0
 1100 420 1226 376 1384 376 c 0
 1542 376 1670 420 1768 508 c 0
 1864 594 1912 708 1912 848 c 0
 1912 990 1864 1104 1768 1192 c 0
 1670 1280 1542 1324 1384 1324 c 0
 1226 1324 1100 1280 1002 1192 c 0
 904 1104 856 990 856 848 c 0
930 2130 m 0
 930 2012 972 1916 1058 1840 c 0
 1144 1762 1252 1724 1384 1724 c 0
 1518 1724 1628 1762 1714 1840 c 0
 1800 1916 1844 2012 1844 2130 c 0
 1844 2248 1800 2344 1714 2420 c 0
 1628 2498 1518 2536 1384 2536 c 0
 1252 2536 1144 2498 1058 2420 c 0
 972 2344 930 2248 930 2130 c 0
EndSplineSet
Substitution2: "'tnum' Tabular Numbers in Latin lookup 21 subtable" eight.tf
Substitution2: "'frac' Diagonal Fractions in Latin lookup 17 subtable" eight.numr
Substitution2: "'dnom' Denominators in Latin lookup 15 subtable" eight.dnom
Substitution2: "'numr' Numerators in Latin lookup 14 subtable" eight.numr
Substitution2: "'sups' Superscript in Latin lookup 13 subtable" uni2078
Substitution2: "'sinf' Scientific Inferiors in Latin lookup 12 subtable" uni2088
Substitution2: "'subs' Subscript in Latin lookup 11 subtable" uni2088
AlternateSubs2: "'aalt' Access All Alternates in Latin lookup 1 subtable" uni2088 uni2078 eight.numr eight.dnom eight.tf
EndChar

StartChar: nine
Encoding: 57 57 27
Width: 2624
GlyphClass: 2
Flags: HW
LayerCount: 2
Fore
SplineSet
1318 766 m 2
 1450 906 1546 1010 1604 1080 c 0
 1662 1148 1714 1214 1758 1278 c 1
 1732 1278 l 1
 1638 1184 1542 1114 1444 1068 c 0
 1346 1020 1228 996 1094 996 c 0
 830 996 614 1082 448 1252 c 0
 280 1422 196 1650 196 1934 c 0
 196 2134 246 2312 344 2468 c 0
 442 2626 576 2746 748 2832 c 0
 916 2916 1108 2958 1318 2958 c 0
 1648 2958 1918 2862 2128 2668 c 0
 2340 2474 2446 2220 2446 1904 c 0
 2446 1670 2396 1450 2296 1240 c 0
 2196 1030 2030 794 1798 528 c 2
 1332 0 l 1
 586 0 l 1
 1318 766 l 2
798 1970 m 0
 798 1816 848 1692 944 1596 c 0
 1044 1498 1168 1450 1318 1450 c 0
 1472 1450 1598 1498 1696 1596 c 0
 1794 1692 1844 1816 1844 1970 c 0
 1844 2124 1794 2250 1692 2346 c 0
 1590 2442 1464 2490 1310 2490 c 0
 1160 2490 1036 2442 940 2346 c 0
 846 2250 798 2124 798 1970 c 0
EndSplineSet
Substitution2: "'tnum' Tabular Numbers in Latin lookup 21 subtable" nine.tf
Substitution2: "'frac' Diagonal Fractions in Latin lookup 17 subtable" nine.numr
Substitution2: "'dnom' Denominators in Latin lookup 15 subtable" nine.dnom
Substitution2: "'numr' Numerators in Latin lookup 14 subtable" nine.numr
Substitution2: "'sups' Superscript in Latin lookup 13 subtable" uni2079
Substitution2: "'sinf' Scientific Inferiors in Latin lookup 12 subtable" uni2089
Substitution2: "'subs' Subscript in Latin lookup 11 subtable" uni2089
AlternateSubs2: "'aalt' Access All Alternates in Latin lookup 1 subtable" uni2089 uni2079 nine.numr nine.dnom nine.tf
EndChar

StartChar: colon
Encoding: 58 58 28
Width: 1326
GlyphClass: 2
Flags: HW
LayerCount: 2
Fore
SplineSet
664 -20 m 0
 564 -20 480 14 416 80 c 0
 348 148 316 230 316 328 c 0
 316 424 348 504 414 570 c 0
 480 636 562 668 664 668 c 0
 766 668 848 636 914 570 c 0
 980 504 1012 424 1012 328 c 0
 1012 230 980 148 912 80 c 0
 848 14 764 -20 664 -20 c 0
316 1676 m 0
 316 1772 348 1854 416 1920 c 0
 480 1986 564 2020 664 2020 c 0
 764 2020 848 1986 912 1920 c 0
 980 1854 1012 1772 1012 1676 c 0
 1012 1580 980 1498 912 1430 c 0
 848 1362 764 1328 664 1328 c 0
 564 1328 480 1362 416 1430 c 0
 348 1498 316 1580 316 1676 c 0
EndSplineSet
Substitution2: "Single Substitution lookup 34 subtable" colon.calt
Substitution2: "'case' Case-Sensitive Forms in Latin lookup 23 subtable" colon.case
AlternateSubs2: "'aalt' Access All Alternates in Latin lookup 1 subtable" colon.calt colon.case
EndChar

StartChar: semicolon
Encoding: 59 59 29
Width: 1454
GlyphClass: 2
Flags: HW
LayerCount: 2
Fore
SplineSet
208 -790 m 1
 496 524 l 1
 1074 524 l 1
 644 -790 l 1
 208 -790 l 1
442 1676 m 0
 442 1772 476 1854 540 1920 c 0
 608 1986 690 2020 790 2020 c 0
 890 2020 972 1986 1040 1920 c 0
 1104 1854 1138 1772 1138 1676 c 0
 1138 1580 1104 1498 1040 1430 c 0
 972 1362 890 1328 790 1328 c 0
 690 1328 608 1362 540 1430 c 0
 476 1498 442 1580 442 1676 c 0
EndSplineSet
Substitution2: "'case' Case-Sensitive Forms in Latin lookup 23 subtable" semicolon.case
Substitution2: "'aalt' Access All Alternates in Latin lookup 0 subtable" semicolon.case
EndChar

StartChar: less
Encoding: 60 60 30
Width: 2784
GlyphClass: 2
Flags: HW
LayerCount: 2
Fore
SplineSet
446 872 m 1
 446 1400 l 1
 2338 2244 l 1
 2338 1696 l 1
 1008 1138 l 1
 2338 578 l 1
 2338 28 l 1
 446 872 l 1
EndSplineSet
Substitution2: "Single Substitution lookup 34 subtable" less.case
Substitution2: "'case' Case-Sensitive Forms in Latin lookup 23 subtable" less.case
Substitution2: "'aalt' Access All Alternates in Latin lookup 0 subtable" less.case
EndChar

StartChar: equal
Encoding: 61 61 31
Width: 2784
GlyphClass: 2
Flags: HW
LayerCount: 2
Fore
SplineSet
2338 1802 m 1
 2338 1324 l 1
 446 1324 l 1
 446 1802 l 1
 2338 1802 l 1
446 422 m 1
 446 902 l 1
 2338 902 l 1
 2338 422 l 1
 446 422 l 1
EndSplineSet
Substitution2: "Single Substitution lookup 34 subtable" equal.case
Substitution2: "'case' Case-Sensitive Forms in Latin lookup 23 subtable" equal.case
Substitution2: "'aalt' Access All Alternates in Latin lookup 0 subtable" equal.case
EndChar

StartChar: greater
Encoding: 62 62 32
Width: 2784
GlyphClass: 2
Flags: HW
LayerCount: 2
Fore
SplineSet
446 28 m 1
 446 578 l 1
 1778 1138 l 1
 446 1696 l 1
 446 2244 l 1
 2338 1400 l 1
 2338 872 l 1
 446 28 l 1
EndSplineSet
Substitution2: "Single Substitution lookup 34 subtable" greater.case
Substitution2: "'case' Case-Sensitive Forms in Latin lookup 23 subtable" greater.case
Substitution2: "'aalt' Access All Alternates in Latin lookup 0 subtable" greater.case
EndChar

StartChar: question
Encoding: 63 63 33
Width: 2468
GlyphClass: 2
Flags: HW
LayerCount: 2
Fore
SplineSet
888 962 m 1
 888 1662 l 1
 1118 1676 l 2
 1268 1682 1386 1720 1472 1792 c 0
 1558 1862 1602 1956 1602 2072 c 0
 1602 2190 1566 2284 1492 2354 c 0
 1418 2424 1318 2458 1188 2458 c 0
 930 2458 776 2330 730 2076 c 1
 140 2180 l 1
 178 2422 292 2612 486 2748 c 0
 680 2886 928 2954 1232 2954 c 0
 1544 2954 1794 2876 1984 2716 c 0
 2172 2560 2266 2350 2266 2088 c 0
 2266 1878 2200 1702 2068 1562 c 0
 1934 1422 1746 1328 1500 1282 c 1
 1500 962 l 1
 888 962 l 1
806 352 m 0
 806 462 842 552 916 624 c 0
 988 694 1078 730 1188 730 c 0
 1298 730 1388 694 1460 624 c 0
 1532 552 1568 462 1568 352 c 0
 1568 246 1532 156 1460 84 c 0
 1386 12 1296 -24 1188 -24 c 0
 1078 -24 988 12 916 84 c 0
 842 156 806 246 806 352 c 0
EndSplineSet
EndChar

StartChar: at
Encoding: 64 64 34
Width: 4018
GlyphClass: 2
Flags: HW
LayerCount: 2
Fore
SplineSet
2064 -630 m 2
 1784 -630 1528 -588 1296 -508 c 0
 1064 -424 868 -310 708 -160 c 0
 546 -10 422 172 332 384 c 0
 244 600 200 836 200 1094 c 0
 200 1360 244 1606 332 1828 c 0
 422 2052 546 2242 704 2396 c 0
 864 2550 1058 2672 1286 2758 c 0
 1514 2844 1764 2888 2036 2888 c 0
 2392 2888 2704 2822 2974 2692 c 0
 3244 2562 3452 2376 3598 2134 c 0
 3744 1892 3818 1612 3818 1294 c 0
 3818 976 3742 722 3588 530 c 0
 3436 338 3226 242 2958 242 c 0
 2820 242 2706 270 2612 324 c 0
 2520 378 2458 458 2424 562 c 1
 2314 360 2128 258 1864 258 c 0
 1634 258 1448 338 1304 498 c 0
 1158 658 1086 866 1086 1122 c 0
 1086 1374 1156 1580 1300 1740 c 0
 1440 1898 1626 1978 1852 1978 c 0
 1964 1978 2064 1956 2152 1916 c 0
 2238 1872 2306 1814 2356 1740 c 1
 2356 1942 l 1
 2834 1942 l 1
 2834 844 l 2
 2834 790 2850 748 2882 716 c 0
 2914 688 2956 672 3010 672 c 0
 3104 672 3180 730 3240 846 c 0
 3296 962 3326 1108 3326 1282 c 0
 3326 1640 3212 1926 2980 2140 c 0
 2752 2352 2442 2458 2052 2458 c 0
 1650 2458 1322 2334 1072 2084 c 0
 822 1834 696 1508 696 1106 c 0
 696 706 822 390 1072 160 c 0
 1324 -72 1668 -188 2102 -188 c 2
 3022 -188 l 1
 3022 -630 l 1
 2064 -630 l 2
1594 1118 m 0
 1594 978 1628 868 1698 788 c 0
 1768 708 1864 668 1986 668 c 0
 2108 668 2204 708 2276 788 c 0
 2344 868 2380 978 2380 1118 c 0
 2380 1260 2344 1370 2276 1448 c 0
 2204 1528 2108 1568 1986 1568 c 0
 1864 1568 1768 1528 1698 1448 c 0
 1628 1370 1594 1260 1594 1118 c 0
EndSplineSet
Substitution2: "'case' Case-Sensitive Forms in Latin lookup 23 subtable" at.case
Substitution2: "'aalt' Access All Alternates in Latin lookup 0 subtable" at.case
EndChar

StartChar: A
Encoding: 65 65 35
Width: 2894
GlyphClass: 2
Flags: HW
AnchorPoint: "Anchor-2" 1446 2888 basechar 0
AnchorPoint: "Anchor-1" 2806 0 basechar 0
AnchorPoint: "Anchor-0" 1466 0 basechar 0
LayerCount: 2
Fore
SplineSet
90 0 m 1
 1004 2888 l 1
 1888 2888 l 1
 2806 0 l 1
 2162 0 l 1
 1974 684 l 1
 926 684 l 1
 734 0 l 1
 90 0 l 1
1060 1168 m 1
 1840 1168 l 1
 1462 2520 l 1
 1438 2520 l 1
 1060 1168 l 1
EndSplineSet
Substitution2: "Single Substitution lookup 33 subtable" ordfeminine
Substitution2: "'aalt' Access All Alternates in Latin lookup 0 subtable" ordfeminine
EndChar

StartChar: B
Encoding: 66 66 36
Width: 2792
GlyphClass: 2
Flags: HW
LayerCount: 2
Fore
SplineSet
332 0 m 1
 332 2888 l 1
 1560 2888 l 2
 1856 2888 2082 2826 2240 2704 c 0
 2396 2580 2474 2404 2474 2174 c 0
 2474 2006 2416 1864 2304 1744 c 0
 2188 1628 2042 1560 1860 1544 c 1
 1860 1520 l 1
 2090 1506 2274 1436 2408 1314 c 0
 2542 1192 2610 1024 2610 812 c 0
 2610 558 2514 358 2320 216 c 0
 2128 72 1862 0 1520 0 c 2
 332 0 l 1
954 434 m 1
 1462 434 l 2
 1798 434 1966 576 1966 860 c 0
 1966 1144 1796 1286 1458 1286 c 2
 954 1286 l 1
 954 434 l 1
954 1688 m 1
 1414 1688 l 2
 1556 1688 1664 1722 1744 1788 c 0
 1820 1854 1860 1950 1860 2072 c 0
 1860 2194 1824 2288 1748 2354 c 0
 1676 2420 1572 2454 1438 2454 c 2
 954 2454 l 1
 954 1688 l 1
EndSplineSet
EndChar

StartChar: C
Encoding: 67 67 37
Width: 2956
GlyphClass: 2
Flags: HW
AnchorPoint: "Anchor-2" 1618 2888 basechar 0
AnchorPoint: "Anchor-0" 1642 0 basechar 0
LayerCount: 2
Fore
SplineSet
1586 -70 m 0
 1314 -70 1072 -8 864 118 c 0
 652 244 490 420 374 650 c 0
 258 880 200 1144 200 1442 c 0
 200 1896 328 2262 584 2540 c 0
 838 2818 1172 2958 1582 2958 c 0
 1894 2958 2154 2890 2360 2756 c 0
 2568 2620 2716 2424 2802 2166 c 1
 2212 1962 l 1
 2108 2280 1894 2438 1568 2438 c 0
 1350 2438 1180 2348 1056 2172 c 0
 930 1992 868 1750 868 1442 c 0
 868 1134 930 892 1056 716 c 0
 1182 538 1354 450 1572 450 c 0
 1902 450 2118 616 2220 946 c 1
 2814 778 l 1
 2732 500 2586 290 2380 146 c 0
 2174 2 1908 -70 1586 -70 c 0
EndSplineSet
EndChar

StartChar: D
Encoding: 68 68 38
Width: 3002
GlyphClass: 2
Flags: HW
AnchorPoint: "Anchor-2" 1438 2888 basechar 0
AnchorPoint: "Anchor-0" 1504 0 basechar 0
LayerCount: 2
Fore
SplineSet
332 0 m 1
 332 2888 l 1
 1344 2888 l 2
 1636 2888 1892 2832 2110 2718 c 0
 2328 2604 2498 2438 2620 2220 c 0
 2742 2000 2802 1740 2802 1442 c 0
 2802 992 2670 640 2404 384 c 0
 2138 128 1784 0 1340 0 c 2
 332 0 l 1
954 516 m 1
 1274 516 l 2
 1552 516 1764 594 1910 750 c 0
 2056 906 2130 1136 2130 1442 c 0
 2130 1748 2056 1978 1910 2136 c 0
 1764 2294 1552 2372 1274 2372 c 2
 954 2372 l 1
 954 516 l 1
EndSplineSet
EndChar

StartChar: E
Encoding: 69 69 39
Width: 2432
GlyphClass: 2
Flags: HW
AnchorPoint: "Anchor-2" 1286 2888 basechar 0
AnchorPoint: "Anchor-1" 2204 0 basechar 0
AnchorPoint: "Anchor-0" 1290 0 basechar 0
LayerCount: 2
Fore
SplineSet
332 0 m 1
 332 2888 l 1
 2192 2888 l 1
 2192 2384 l 1
 954 2384 l 1
 954 1736 l 1
 1966 1736 l 1
 1966 1246 l 1
 954 1246 l 1
 954 504 l 1
 2204 504 l 1
 2204 0 l 1
 332 0 l 1
EndSplineSet
EndChar

StartChar: F
Encoding: 70 70 40
Width: 2284
GlyphClass: 2
Flags: HW
LayerCount: 2
Fore
SplineSet
332 0 m 1
 332 2888 l 1
 2138 2888 l 1
 2138 2384 l 1
 954 2384 l 1
 954 1662 l 1
 1970 1662 l 1
 1970 1160 l 1
 954 1160 l 1
 954 0 l 1
 332 0 l 1
EndSplineSet
EndChar

StartChar: G
Encoding: 71 71 41
Width: 3084
GlyphClass: 2
Flags: HW
AnchorPoint: "Anchor-2" 1560 2888 basechar 0
AnchorPoint: "Anchor-0" 1560 0 basechar 0
LayerCount: 2
Fore
SplineSet
1610 -70 m 0
 1332 -70 1086 -8 872 118 c 0
 658 244 494 420 376 650 c 0
 258 880 200 1144 200 1442 c 0
 200 1896 328 2264 582 2540 c 0
 836 2820 1172 2958 1590 2958 c 0
 1890 2958 2144 2900 2350 2782 c 0
 2556 2664 2710 2494 2810 2270 c 1
 2236 2016 l 1
 2114 2298 1908 2438 1618 2438 c 0
 1384 2438 1200 2352 1068 2180 c 0
 938 2008 872 1762 872 1442 c 0
 872 1122 938 874 1072 700 c 0
 1204 526 1386 438 1618 438 c 0
 1830 438 1994 492 2110 604 c 0
 2226 712 2292 872 2306 1082 c 1
 1528 1082 l 1
 1528 1560 l 1
 2896 1560 l 1
 2896 1224 l 2
 2896 814 2780 496 2546 268 c 0
 2312 44 2000 -70 1610 -70 c 0
EndSplineSet
EndChar

StartChar: H
Encoding: 72 72 42
Width: 3148
GlyphClass: 2
Flags: HW
AnchorPoint: "Anchor-2" 1576 2888 basechar 0
AnchorPoint: "Anchor-0" 1576 0 basechar 0
LayerCount: 2
Fore
SplineSet
2196 0 m 1
 2196 1242 l 1
 954 1242 l 1
 954 0 l 1
 332 0 l 1
 332 2888 l 1
 954 2888 l 1
 954 1758 l 1
 2196 1758 l 1
 2196 2888 l 1
 2818 2888 l 1
 2818 0 l 1
 2196 0 l 1
EndSplineSet
EndChar

StartChar: I
Encoding: 73 73 43
Width: 1286
GlyphClass: 2
Flags: HW
AnchorPoint: "Anchor-2" 644 2888 basechar 0
AnchorPoint: "Anchor-1" 954 0 basechar 0
AnchorPoint: "Anchor-0" 644 0 basechar 0
LayerCount: 2
Fore
SplineSet
332 0 m 1
 332 2888 l 1
 954 2888 l 1
 954 0 l 1
 332 0 l 1
EndSplineSet
Substitution2: "'ss02' Style Set 2 in Latin lookup 26 subtable" I.ss01
Substitution2: "'ss01' Style Set 1 in Latin lookup 25 subtable" I.ss01
Substitution2: "'aalt' Access All Alternates in Latin lookup 0 subtable" I.ss01
EndChar

StartChar: J
Encoding: 74 74 44
Width: 2350
GlyphClass: 2
Flags: HW
AnchorPoint: "Anchor-2" 1192 2888 basechar 0
AnchorPoint: "Anchor-0" 1192 0 basechar 0
LayerCount: 2
Fore
SplineSet
1064 -70 m 0
 758 -70 522 6 356 160 c 0
 190 312 106 538 106 840 c 2
 106 1000 l 1
 734 1134 l 1
 734 828 l 2
 734 570 844 442 1064 442 c 0
 1286 442 1396 574 1396 836 c 2
 1396 2888 l 1
 2020 2888 l 1
 2020 868 l 2
 2020 554 1938 320 1772 164 c 0
 1606 8 1370 -70 1064 -70 c 0
EndSplineSet
Substitution2: "Single Substitution lookup 31 subtable" uni004A0301
Substitution2: "'aalt' Access All Alternates in Latin lookup 0 subtable" uni004A0301
EndChar

StartChar: K
Encoding: 75 75 45
Width: 2912
GlyphClass: 2
Flags: HW
AnchorPoint: "Anchor-2" 1454 2888 basechar 0
AnchorPoint: "Anchor-0" 1454 0 basechar 0
LayerCount: 2
Fore
SplineSet
332 0 m 1
 332 2888 l 1
 954 2888 l 1
 954 1676 l 1
 974 1676 l 1
 2052 2888 l 1
 2802 2888 l 1
 1716 1688 l 1
 2810 0 l 1
 2098 0 l 1
 1274 1314 l 1
 954 954 l 1
 954 0 l 1
 332 0 l 1
EndSplineSet
EndChar

StartChar: L
Encoding: 76 76 46
Width: 2296
GlyphClass: 2
Flags: HW
AnchorPoint: "Anchor-3" 1302 2888 basechar 0
AnchorPoint: "Anchor-2" 644 2888 basechar 0
AnchorPoint: "Anchor-0" 1142 0 basechar 0
LayerCount: 2
Fore
SplineSet
332 0 m 1
 332 2888 l 1
 954 2888 l 1
 954 508 l 1
 2138 508 l 1
 2138 0 l 1
 332 0 l 1
EndSplineSet
EndChar

StartChar: M
Encoding: 77 77 47
Width: 3768
GlyphClass: 2
Flags: HW
LayerCount: 2
Fore
SplineSet
332 0 m 1
 332 2888 l 1
 1348 2888 l 1
 1868 622 l 1
 1896 622 l 1
 2416 2888 l 1
 3436 2888 l 1
 3436 0 l 1
 2868 0 l 1
 2868 2524 l 1
 2842 2524 l 1
 2180 0 l 1
 1590 0 l 1
 922 2524 l 1
 898 2524 l 1
 898 0 l 1
 332 0 l 1
EndSplineSet
EndChar

StartChar: N
Encoding: 78 78 48
Width: 3116
GlyphClass: 2
Flags: HW
AnchorPoint: "Anchor-2" 1598 2888 basechar 0
AnchorPoint: "Anchor-0" 1560 0 basechar 0
LayerCount: 2
Fore
SplineSet
332 0 m 1
 332 2888 l 1
 1324 2888 l 1
 2188 442 l 1
 2212 442 l 1
 2212 2888 l 1
 2786 2888 l 1
 2786 0 l 1
 1794 0 l 1
 934 2446 l 1
 906 2446 l 1
 906 0 l 1
 332 0 l 1
EndSplineSet
EndChar

StartChar: O
Encoding: 79 79 49
Width: 3260
GlyphClass: 2
Flags: HW
AnchorPoint: "Anchor-3" 2106 2888 basechar 0
AnchorPoint: "Anchor-2" 1634 2888 basechar 0
AnchorPoint: "Anchor-1" 2310 0 basechar 0
AnchorPoint: "Anchor-0" 1634 0 basechar 0
LayerCount: 2
Fore
SplineSet
1630 -70 m 0
 1202 -70 856 68 594 344 c 0
 332 622 200 988 200 1442 c 0
 200 1896 332 2264 594 2540 c 0
 856 2820 1202 2958 1630 2958 c 0
 2060 2958 2406 2820 2668 2542 c 0
 2930 2264 3060 1898 3060 1442 c 0
 3060 1216 3026 1010 2956 822 c 0
 2888 634 2792 474 2668 344 c 0
 2546 214 2396 112 2216 40 c 0
 2040 -34 1844 -70 1630 -70 c 0
868 1442 m 0
 868 1144 938 904 1076 722 c 0
 1216 540 1400 450 1630 450 c 0
 1860 450 2044 540 2184 722 c 0
 2322 904 2392 1144 2392 1442 c 0
 2392 1740 2322 1982 2184 2164 c 0
 2044 2346 1860 2438 1630 2438 c 0
 1400 2438 1216 2346 1076 2164 c 0
 938 1982 868 1740 868 1442 c 0
EndSplineSet
Substitution2: "Single Substitution lookup 33 subtable" ordmasculine
Substitution2: "'aalt' Access All Alternates in Latin lookup 0 subtable" ordmasculine
EndChar

StartChar: P
Encoding: 80 80 50
Width: 2714
GlyphClass: 2
Flags: HW
LayerCount: 2
Fore
SplineSet
332 0 m 1
 332 2888 l 1
 1490 2888 l 2
 1824 2888 2090 2804 2284 2638 c 0
 2478 2472 2576 2244 2576 1958 c 0
 2576 1672 2478 1444 2284 1278 c 0
 2090 1112 1824 1028 1490 1028 c 2
 954 1028 l 1
 954 0 l 1
 332 0 l 1
954 1508 m 1
 1400 1508 l 2
 1766 1508 1950 1658 1950 1958 c 0
 1950 2260 1766 2412 1400 2412 c 2
 954 2412 l 1
 954 1508 l 1
EndSplineSet
EndChar

StartChar: Q
Encoding: 81 81 51
Width: 3260
GlyphClass: 2
Flags: HW
AnchorPoint: "Anchor-3" 2106 2888 basechar 0
AnchorPoint: "Anchor-2" 1634 2888 basechar 0
AnchorPoint: "Anchor-1" 2310 0 basechar 0
AnchorPoint: "Anchor-0" 1634 0 basechar 0
LayerCount: 2
Fore
SplineSet
1630 -70 m 0
 1202 -70 856 68 594 344 c 0
 332 622 200 988 200 1442 c 0
 200 1896 332 2264 594 2540 c 0
 856 2820 1202 2958 1630 2958 c 0
 2060 2958 2406 2820 2668 2542 c 0
 2930 2264 3060 1898 3060 1442 c 0
 3060 994 2934 634 2682 360 c 1
 3006 58 l 1
 3006 -634 l 1
 2270 62 l 1
 2078 -26 1864 -70 1630 -70 c 0
868 1442 m 0
 868 1144 938 904 1076 722 c 0
 1216 540 1400 450 1630 450 c 0
 1860 450 2044 540 2184 722 c 0
 2322 904 2392 1144 2392 1442 c 0
 2392 1740 2322 1982 2184 2164 c 0
 2044 2346 1860 2438 1630 2438 c 0
 1400 2438 1216 2346 1076 2164 c 0
 938 1982 868 1740 868 1442 c 0
EndSplineSet
EndChar

StartChar: R
Encoding: 82 82 52
Width: 2822
GlyphClass: 2
Flags: HW
AnchorPoint: "Anchor-2" 1332 2888 basechar 0
AnchorPoint: "Anchor-0" 1410 0 basechar 0
LayerCount: 2
Fore
SplineSet
332 0 m 1
 332 2888 l 1
 1504 2888 l 2
 1838 2888 2100 2812 2290 2660 c 0
 2480 2506 2576 2294 2576 2020 c 0
 2576 1814 2518 1640 2400 1500 c 0
 2284 1356 2122 1262 1916 1212 c 1
 2678 0 l 1
 1978 0 l 1
 1310 1142 l 1
 954 1142 l 1
 954 0 l 1
 332 0 l 1
954 1568 m 1
 1422 1568 l 2
 1774 1568 1950 1708 1950 1990 c 0
 1950 2128 1904 2234 1816 2304 c 0
 1724 2376 1594 2412 1422 2412 c 2
 954 2412 l 1
 954 1568 l 1
EndSplineSet
EndChar

StartChar: S
Encoding: 83 83 53
Width: 2674
GlyphClass: 2
Flags: HW
AnchorPoint: "Anchor-2" 1422 2888 basechar 0
AnchorPoint: "Anchor-0" 1364 0 basechar 0
LayerCount: 2
Fore
SplineSet
1352 -70 m 0
 1050 -70 794 -8 586 120 c 0
 378 244 236 426 160 660 c 1
 734 888 l 1
 784 728 862 606 972 524 c 0
 1082 440 1216 398 1376 398 c 0
 1532 398 1652 432 1740 504 c 0
 1824 572 1868 672 1868 802 c 0
 1868 902 1836 982 1776 1040 c 0
 1712 1098 1618 1142 1490 1172 c 2
 1036 1286 l 2
 802 1344 624 1440 496 1572 c 0
 372 1708 308 1874 308 2072 c 0
 308 2338 408 2552 610 2716 c 0
 812 2876 1080 2958 1418 2958 c 0
 1686 2958 1916 2906 2108 2800 c 0
 2300 2696 2434 2550 2510 2364 c 1
 1970 2130 l 1
 1920 2256 1848 2348 1756 2408 c 0
 1666 2464 1548 2494 1404 2494 c 0
 1266 2494 1156 2464 1072 2400 c 0
 992 2340 950 2256 950 2154 c 0
 950 2058 980 1984 1040 1928 c 0
 1100 1876 1198 1830 1332 1794 c 2
 1814 1668 l 2
 2034 1612 2204 1516 2324 1378 c 0
 2446 1240 2506 1070 2506 868 c 0
 2506 580 2404 352 2196 184 c 0
 1992 14 1710 -70 1352 -70 c 0
EndSplineSet
EndChar

StartChar: T
Encoding: 84 84 54
Width: 2468
GlyphClass: 2
Flags: HW
AnchorPoint: "Anchor-2" 1236 2888 basechar 0
AnchorPoint: "Anchor-0" 1236 0 basechar 0
LayerCount: 2
Fore
SplineSet
922 0 m 1
 922 2380 l 1
 140 2380 l 1
 140 2888 l 1
 2326 2888 l 1
 2326 2380 l 1
 1548 2380 l 1
 1548 0 l 1
 922 0 l 1
EndSplineSet
EndChar

StartChar: U
Encoding: 85 85 55
Width: 3050
GlyphClass: 2
Flags: HW
AnchorPoint: "Anchor-3" 2076 2888 basechar 0
AnchorPoint: "Anchor-2" 1528 2888 basechar 0
AnchorPoint: "Anchor-1" 2162 0 basechar 0
AnchorPoint: "Anchor-0" 1528 0 basechar 0
LayerCount: 2
Fore
SplineSet
1528 -70 m 0
 1158 -70 866 32 652 234 c 0
 438 436 332 706 332 1044 c 2
 332 2888 l 1
 974 2888 l 1
 974 1086 l 2
 974 896 1024 748 1120 644 c 0
 1220 536 1354 484 1528 484 c 0
 1700 484 1834 536 1932 644 c 0
 2028 748 2076 896 2076 1086 c 2
 2076 2888 l 1
 2724 2888 l 1
 2724 1044 l 2
 2724 706 2616 436 2404 234 c 0
 2188 32 1898 -70 1528 -70 c 0
EndSplineSet
EndChar

StartChar: V
Encoding: 86 86 56
Width: 2808
GlyphClass: 2
Flags: HW
LayerCount: 2
Fore
SplineSet
970 0 m 1
 90 2888 l 1
 770 2888 l 1
 1392 422 l 1
 1418 422 l 1
 2040 2888 l 1
 2720 2888 l 1
 1840 0 l 1
 970 0 l 1
EndSplineSet
EndChar

StartChar: W
Encoding: 87 87 57
Width: 4104
GlyphClass: 2
Flags: HW
AnchorPoint: "Anchor-2" 2044 2888 basechar 0
AnchorPoint: "Anchor-0" 2044 0 basechar 0
LayerCount: 2
Fore
SplineSet
730 0 m 1
 132 2888 l 1
 778 2888 l 1
 1160 480 l 1
 1184 480 l 1
 1598 2888 l 1
 2502 2888 l 1
 2916 480 l 1
 2946 480 l 1
 3322 2888 l 1
 3974 2888 l 1
 3372 0 l 1
 2510 0 l 1
 2068 2408 l 1
 2036 2408 l 1
 1590 0 l 1
 730 0 l 1
EndSplineSet
EndChar

StartChar: X
Encoding: 88 88 58
Width: 2968
GlyphClass: 2
Flags: HW
LayerCount: 2
Fore
SplineSet
2162 0 m 1
 1490 1192 l 1
 1466 1192 l 1
 806 0 l 1
 90 0 l 1
 1044 1512 l 1
 176 2888 l 1
 914 2888 l 1
 1466 1856 l 1
 1486 1856 l 1
 2028 2888 l 1
 2764 2888 l 1
 1908 1528 l 1
 2880 0 l 1
 2162 0 l 1
EndSplineSet
EndChar

StartChar: Y
Encoding: 89 89 59
Width: 2788
GlyphClass: 2
Flags: HW
AnchorPoint: "Anchor-2" 1396 2888 basechar 0
AnchorPoint: "Anchor-0" 1396 0 basechar 0
LayerCount: 2
Fore
SplineSet
1082 0 m 1
 1082 1164 l 1
 66 2888 l 1
 746 2888 l 1
 1384 1668 l 1
 1404 1668 l 1
 2040 2888 l 1
 2724 2888 l 1
 1708 1164 l 1
 1708 0 l 1
 1082 0 l 1
EndSplineSet
EndChar

StartChar: Z
Encoding: 90 90 60
Width: 2678
GlyphClass: 2
Flags: HW
AnchorPoint: "Anchor-2" 1348 2888 basechar 0
AnchorPoint: "Anchor-0" 1348 0 basechar 0
LayerCount: 2
Fore
SplineSet
212 0 m 1
 212 668 l 1
 1774 2356 l 1
 1774 2380 l 1
 250 2380 l 1
 250 2888 l 1
 2400 2888 l 1
 2400 2220 l 1
 844 532 l 1
 844 508 l 1
 2478 508 l 1
 2478 0 l 1
 212 0 l 1
EndSplineSet
EndChar

StartChar: bracketleft
Encoding: 91 91 61
Width: 1584
GlyphClass: 2
Flags: HW
LayerCount: 2
Fore
SplineSet
1396 3080 m 1
 1396 2626 l 1
 892 2626 l 1
 892 -200 l 1
 1396 -200 l 1
 1396 -656 l 1
 332 -656 l 1
 332 3080 l 1
 1396 3080 l 1
EndSplineSet
Substitution2: "'case' Case-Sensitive Forms in Latin lookup 23 subtable" bracketleft.case
Substitution2: "'aalt' Access All Alternates in Latin lookup 0 subtable" bracketleft.case
EndChar

StartChar: backslash
Encoding: 92 92 62
Width: 1650
GlyphClass: 2
Flags: HW
LayerCount: 2
Fore
SplineSet
1586 -492 m 1
 1040 -492 l 1
 66 2958 l 1
 606 2958 l 1
 1586 -492 l 1
EndSplineSet
Substitution2: "'case' Case-Sensitive Forms in Latin lookup 23 subtable" backslash.case
Substitution2: "'aalt' Access All Alternates in Latin lookup 0 subtable" backslash.case
EndChar

StartChar: bracketright
Encoding: 93 93 63
Width: 1584
GlyphClass: 2
Flags: HW
LayerCount: 2
Fore
SplineSet
188 -656 m 1
 188 -196 l 1
 692 -196 l 1
 692 2626 l 1
 188 2626 l 1
 188 3080 l 1
 1254 3080 l 1
 1254 -656 l 1
 188 -656 l 1
EndSplineSet
Substitution2: "'case' Case-Sensitive Forms in Latin lookup 23 subtable" bracketright.case
Substitution2: "'aalt' Access All Alternates in Latin lookup 0 subtable" bracketright.case
EndChar

StartChar: asciicircum
Encoding: 94 94 64
Width: 2464
GlyphClass: 2
Flags: HW
LayerCount: 2
Fore
SplineSet
926 2888 m 1
 1540 2888 l 1
 2208 1646 l 1
 1680 1646 l 1
 1246 2486 l 1
 1220 2486 l 1
 786 1646 l 1
 258 1646 l 1
 926 2888 l 1
EndSplineSet
EndChar

StartChar: underscore
Encoding: 95 95 65
Width: 1986
GlyphClass: 2
Flags: HW
LayerCount: 2
Fore
SplineSet
24 -578 m 1
 24 -172 l 1
 1962 -172 l 1
 1962 -578 l 1
 24 -578 l 1
EndSplineSet
EndChar

StartChar: grave
Encoding: 96 96 66
Width: 1462
GlyphClass: 4
Flags: HW
AnchorPoint: "Anchor-5" 802 2912 basemark 0
LayerCount: 2
Fore
SplineSet
782 3204 m 1
 1258 2474 l 1
 712 2474 l 1
 204 3204 l 1
 782 3204 l 1
EndSplineSet
EndChar

StartChar: a
Encoding: 97 97 67
Width: 2362
GlyphClass: 2
Flags: HW
AnchorPoint: "Anchor-2" 1176 2196 basechar 0
AnchorPoint: "Anchor-1" 2236 0 basechar 0
AnchorPoint: "Anchor-0" 1176 0 basechar 0
LayerCount: 2
Fore
SplineSet
1622 0 m 1
 1520 300 l 1
 1490 300 l 1
 1430 188 1348 102 1240 40 c 0
 1136 -20 1012 -50 872 -50 c 0
 658 -50 484 8 356 128 c 0
 224 244 160 400 160 594 c 0
 160 986 432 1216 974 1286 c 2
 1496 1356 l 1
 1496 1482 l 2
 1496 1584 1466 1664 1404 1726 c 0
 1342 1788 1256 1818 1142 1818 c 0
 944 1818 820 1726 770 1540 c 1
 230 1650 l 1
 284 1840 394 1988 564 2090 c 0
 734 2192 934 2244 1168 2244 c 0
 1474 2244 1702 2172 1856 2030 c 0
 2008 1888 2084 1688 2084 1434 c 2
 2084 410 l 1
 2236 0 l 1
 1622 0 l 1
738 630 m 0
 738 544 766 476 824 424 c 0
 880 374 960 348 1064 348 c 0
 1194 348 1298 392 1376 480 c 0
 1456 568 1496 690 1496 848 c 2
 1496 1024 l 1
 1122 970 l 2
 992 952 896 914 832 860 c 0
 770 804 738 728 738 630 c 0
EndSplineSet
Substitution2: "Single Substitution lookup 33 subtable" ordfeminine
Substitution2: "'sups' Superscript in Latin lookup 13 subtable" a.sups
AlternateSubs2: "'aalt' Access All Alternates in Latin lookup 1 subtable" a.sups ordfeminine
EndChar

StartChar: b
Encoding: 98 98 68
Width: 2592
GlyphClass: 2
Flags: HW
AnchorPoint: "Anchor-2" 1294 2196 basechar 0
AnchorPoint: "Anchor-0" 1294 0 basechar 0
LayerCount: 2
Fore
SplineSet
1336 394 m 0
 1488 394 1606 456 1692 584 c 0
 1776 708 1818 880 1818 1098 c 0
 1818 1316 1776 1486 1692 1612 c 0
 1606 1736 1488 1798 1336 1798 c 0
 1184 1798 1064 1734 976 1608 c 0
 888 1480 844 1310 844 1098 c 0
 844 880 888 708 974 584 c 0
 1060 456 1182 394 1336 394 c 0
270 0 m 1
 270 3010 l 1
 876 3010 l 1
 876 1836 l 1
 902 1836 l 1
 956 1958 1038 2056 1148 2132 c 0
 1260 2206 1390 2244 1540 2244 c 0
 1808 2244 2026 2140 2192 1932 c 0
 2358 1726 2442 1448 2442 1098 c 0
 2442 748 2358 470 2190 262 c 0
 2022 54 1802 -50 1528 -50 c 0
 1376 -50 1240 -12 1124 62 c 0
 1004 136 920 234 868 352 c 1
 844 352 l 1
 844 0 l 1
 270 0 l 1
EndSplineSet
Substitution2: "'sups' Superscript in Latin lookup 13 subtable" b.sups
Substitution2: "'aalt' Access All Alternates in Latin lookup 0 subtable" b.sups
EndChar

StartChar: c
Encoding: 99 99 69
Width: 2244
GlyphClass: 2
Flags: HW
AnchorPoint: "Anchor-2" 1242 2196 basechar 0
AnchorPoint: "Anchor-0" 1236 0 basechar 0
LayerCount: 2
Fore
SplineSet
1228 -50 m 0
 912 -50 652 56 452 266 c 0
 248 476 148 754 148 1098 c 0
 148 1442 248 1720 448 1928 c 0
 650 2140 908 2244 1224 2244 c 0
 1722 2244 2040 2044 2180 1642 c 1
 1662 1466 l 1
 1584 1688 1442 1798 1232 1798 c 0
 1094 1798 980 1738 892 1616 c 0
 802 1494 758 1322 758 1098 c 0
 758 872 802 700 892 576 c 0
 980 456 1094 394 1236 394 c 0
 1450 394 1594 510 1668 742 c 1
 2184 566 l 1
 2116 364 2000 210 1840 106 c 0
 1676 2 1474 -50 1228 -50 c 0
EndSplineSet
Substitution2: "'sups' Superscript in Latin lookup 13 subtable" c.sups
Substitution2: "'aalt' Access All Alternates in Latin lookup 0 subtable" c.sups
EndChar

StartChar: d
Encoding: 100 100 70
Width: 2592
GlyphClass: 2
Flags: HW
AnchorPoint: "Anchor-3" 2532 2888 basechar 0
AnchorPoint: "Anchor-2" 1294 3010 basechar 0
AnchorPoint: "Anchor-0" 1294 0 basechar 0
LayerCount: 2
Fore
SplineSet
1258 394 m 0
 1412 394 1532 456 1616 584 c 0
 1702 708 1744 880 1744 1098 c 0
 1744 1310 1700 1480 1614 1608 c 0
 1528 1734 1408 1798 1258 1798 c 0
 1104 1798 984 1736 898 1612 c 0
 812 1486 770 1316 770 1098 c 0
 770 880 812 708 898 584 c 0
 984 456 1104 394 1258 394 c 0
148 1098 m 0
 148 1448 232 1726 396 1932 c 0
 564 2140 782 2244 1052 2244 c 0
 1202 2244 1332 2206 1442 2132 c 0
 1552 2056 1634 1958 1688 1836 c 1
 1712 1836 l 1
 1712 3010 l 1
 2318 3010 l 1
 2318 0 l 1
 1744 0 l 1
 1744 352 l 1
 1724 352 l 1
 1670 234 1584 136 1464 62 c 0
 1348 -12 1212 -50 1060 -50 c 0
 786 -50 566 54 400 262 c 0
 232 470 148 748 148 1098 c 0
EndSplineSet
Substitution2: "'sups' Superscript in Latin lookup 13 subtable" d.sups
Substitution2: "'aalt' Access All Alternates in Latin lookup 0 subtable" d.sups
EndChar

StartChar: e
Encoding: 101 101 71
Width: 2408
GlyphClass: 2
Flags: HW
AnchorPoint: "Anchor-2" 1224 2196 basechar 0
AnchorPoint: "Anchor-1" 1896 0 basechar 0
AnchorPoint: "Anchor-0" 1208 0 basechar 0
LayerCount: 2
Fore
SplineSet
1262 -50 m 0
 920 -50 648 56 448 270 c 0
 248 484 148 768 148 1122 c 0
 148 1338 196 1532 292 1704 c 0
 386 1874 516 2008 682 2102 c 0
 848 2196 1032 2244 1236 2244 c 0
 1560 2244 1814 2148 1998 1958 c 0
 2182 1768 2274 1508 2274 1180 c 0
 2274 1094 2270 1020 2260 958 c 1
 746 958 l 1
 754 792 806 656 902 556 c 0
 998 452 1132 402 1302 402 c 0
 1528 402 1694 488 1802 660 c 1
 2236 386 l 1
 2062 96 1738 -50 1262 -50 c 0
746 1328 m 1
 1704 1328 l 1
 1698 1500 1656 1630 1574 1720 c 0
 1492 1808 1380 1852 1236 1852 c 0
 1094 1852 980 1808 894 1720 c 0
 808 1634 758 1502 746 1328 c 1
EndSplineSet
Substitution2: "'sups' Superscript in Latin lookup 13 subtable" e.sups
Substitution2: "'aalt' Access All Alternates in Latin lookup 0 subtable" e.sups
EndChar

StartChar: f
Encoding: 102 102 72
Width: 1638
GlyphClass: 2
Flags: HW
LayerCount: 2
Fore
SplineSet
466 2356 m 2
 466 2570 532 2740 666 2864 c 0
 800 2990 974 3052 1192 3052 c 0
 1298 3052 1406 3034 1516 2998 c 1
 1516 2606 l 1
 1446 2628 1386 2638 1336 2638 c 0
 1250 2638 1186 2614 1140 2568 c 0
 1096 2520 1074 2454 1074 2368 c 2
 1074 2196 l 1
 1478 2196 l 1
 1478 1782 l 1
 1074 1782 l 1
 1074 0 l 1
 466 0 l 1
 466 1782 l 1
 122 1782 l 1
 122 2196 l 1
 466 2196 l 1
 466 2356 l 2
EndSplineSet
Substitution2: "'sups' Superscript in Latin lookup 13 subtable" f.sups
Substitution2: "'aalt' Access All Alternates in Latin lookup 0 subtable" f.sups
EndChar

StartChar: g
Encoding: 103 103 73
Width: 2568
GlyphClass: 2
Flags: HW
AnchorPoint: "Anchor-2" 1290 2196 basechar 0
AnchorPoint: "Anchor-0" 1290 -820 basechar 0
LayerCount: 2
Fore
SplineSet
1196 -868 m 0
 648 -868 296 -682 140 -308 c 1
 692 -132 l 1
 780 -330 946 -430 1192 -430 c 0
 1362 -430 1488 -380 1576 -284 c 0
 1660 -184 1704 -44 1704 140 c 2
 1704 446 l 1
 1680 446 l 1
 1608 320 1516 222 1402 152 c 0
 1288 84 1162 50 1020 50 c 0
 762 50 550 152 384 356 c 0
 218 562 136 824 136 1146 c 0
 136 1470 220 1734 388 1938 c 0
 556 2142 772 2244 1036 2244 c 0
 1182 2244 1312 2212 1428 2144 c 0
 1540 2080 1632 1984 1700 1860 c 1
 1724 1860 l 1
 1724 2196 l 1
 2298 2196 l 1
 2298 172 l 2
 2298 -164 2200 -422 2004 -600 c 0
 1806 -778 1538 -868 1196 -868 c 0
762 1142 m 0
 762 946 804 788 890 670 c 0
 976 552 1092 492 1242 492 c 0
 1392 492 1510 552 1596 672 c 0
 1682 790 1724 948 1724 1142 c 0
 1724 1340 1682 1500 1596 1620 c 0
 1512 1738 1394 1798 1242 1798 c 0
 1092 1798 976 1738 890 1620 c 0
 804 1500 762 1340 762 1142 c 0
EndSplineSet
Substitution2: "'sups' Superscript in Latin lookup 13 subtable" g.sups
Substitution2: "'aalt' Access All Alternates in Latin lookup 0 subtable" g.sups
EndChar

StartChar: h
Encoding: 104 104 74
Width: 2494
GlyphClass: 2
Flags: HW
AnchorPoint: "Anchor-2" 1290 2888 basechar 0
AnchorPoint: "Anchor-0" 1250 0 basechar 0
LayerCount: 2
Fore
SplineSet
270 0 m 1
 270 3010 l 1
 876 3010 l 1
 876 1884 l 1
 898 1884 l 1
 958 1998 1042 2086 1148 2148 c 0
 1254 2212 1378 2244 1516 2244 c 0
 1744 2244 1922 2176 2052 2040 c 0
 2180 1904 2244 1700 2244 1426 c 2
 2244 0 l 1
 1638 0 l 1
 1638 1340 l 2
 1638 1482 1608 1590 1544 1664 c 0
 1484 1738 1396 1774 1282 1774 c 0
 1156 1774 1056 1734 984 1656 c 0
 912 1576 876 1462 876 1314 c 2
 876 0 l 1
 270 0 l 1
EndSplineSet
Substitution2: "'sups' Superscript in Latin lookup 13 subtable" h.sups
Substitution2: "'aalt' Access All Alternates in Latin lookup 0 subtable" h.sups
EndChar

StartChar: i
Encoding: 105 105 75
Width: 1146
GlyphClass: 2
Flags: HW
AnchorPoint: "Anchor-2" 574 3154 basechar 0
AnchorPoint: "Anchor-1" 876 0 basechar 0
AnchorPoint: "Anchor-0" 598 0 basechar 0
LayerCount: 2
Fore
SplineSet
270 0 m 1
 270 2196 l 1
 876 2196 l 1
 876 0 l 1
 270 0 l 1
234 2818 m 0
 234 2912 266 2992 332 3056 c 0
 398 3122 480 3154 578 3154 c 0
 676 3154 758 3122 820 3058 c 0
 882 2994 914 2914 914 2818 c 0
 914 2722 882 2642 820 2576 c 0
 758 2510 676 2478 578 2478 c 0
 480 2478 398 2512 332 2576 c 0
 266 2644 234 2724 234 2818 c 0
EndSplineSet
Substitution2: "Single Substitution lookup 29 subtable" dotlessi
Substitution2: "'sups' Superscript in Latin lookup 13 subtable" i.sups
Substitution2: "'locl' Localized Forms in Latin lookup 6 subtable" i.loclTRK
AlternateSubs2: "'aalt' Access All Alternates in Latin lookup 1 subtable" i.loclTRK i.sups
EndChar

StartChar: j
Encoding: 106 106 76
Width: 1174
GlyphClass: 2
Flags: HW
AnchorPoint: "Anchor-2" 602 3154 basechar 0
AnchorPoint: "Anchor-0" 594 -820 basechar 0
LayerCount: 2
Fore
SplineSet
4 -820 m 1
 300 28 l 1
 300 2196 l 1
 906 2196 l 1
 906 20 l 1
 602 -820 l 1
 4 -820 l 1
262 2818 m 0
 262 2912 294 2992 360 3056 c 0
 426 3122 508 3154 606 3154 c 0
 704 3154 786 3122 848 3058 c 0
 910 2994 942 2914 942 2818 c 0
 942 2722 910 2642 848 2576 c 0
 786 2510 704 2478 606 2478 c 0
 508 2478 426 2512 360 2576 c 0
 294 2644 262 2724 262 2818 c 0
EndSplineSet
Substitution2: "Single Substitution lookup 31 subtable" uni006A0301
Substitution2: "Single Substitution lookup 29 subtable" uni0237
Substitution2: "'sups' Superscript in Latin lookup 13 subtable" j.sups
AlternateSubs2: "'aalt' Access All Alternates in Latin lookup 1 subtable" uni006A0301 j.sups
EndChar

StartChar: k
Encoding: 107 107 77
Width: 2392
GlyphClass: 2
Flags: HW
AnchorPoint: "Anchor-2" 1204 3010 basechar 0
AnchorPoint: "Anchor-0" 1204 0 basechar 0
LayerCount: 2
Fore
SplineSet
270 0 m 1
 270 3010 l 1
 876 3010 l 1
 876 1302 l 1
 898 1302 l 1
 1680 2196 l 1
 2326 2196 l 1
 1540 1290 l 1
 2348 0 l 1
 1700 0 l 1
 1114 970 l 1
 876 692 l 1
 876 0 l 1
 270 0 l 1
EndSplineSet
Substitution2: "'sups' Superscript in Latin lookup 13 subtable" k.sups
Substitution2: "'aalt' Access All Alternates in Latin lookup 0 subtable" k.sups
EndChar

StartChar: l
Encoding: 108 108 78
Width: 1146
GlyphClass: 2
Flags: HW
AnchorPoint: "Anchor-3" 1086 2888 basechar 0
AnchorPoint: "Anchor-2" 574 2888 basechar 0
AnchorPoint: "Anchor-0" 574 0 basechar 0
LayerCount: 2
Fore
SplineSet
270 0 m 1
 270 3010 l 1
 876 3010 l 1
 876 0 l 1
 270 0 l 1
EndSplineSet
Substitution2: "'ss03' Style Set 3 in Latin lookup 27 subtable" l.ss01
Substitution2: "'ss01' Style Set 1 in Latin lookup 25 subtable" l.ss01
Substitution2: "'sups' Superscript in Latin lookup 13 subtable" l.sups
AlternateSubs2: "'aalt' Access All Alternates in Latin lookup 1 subtable" l.sups l.ss01
EndChar

StartChar: m
Encoding: 109 109 79
Width: 3636
GlyphClass: 2
Flags: HW
AnchorPoint: "Anchor-2" 1818 2196 basechar 0
AnchorPoint: "Anchor-0" 1818 0 basechar 0
LayerCount: 2
Fore
SplineSet
270 0 m 1
 270 2196 l 1
 824 2196 l 1
 824 1830 l 1
 848 1830 l 1
 906 1964 988 2066 1094 2136 c 0
 1200 2208 1322 2244 1462 2244 c 0
 1770 2244 1976 2106 2080 1830 c 1
 2106 1830 l 1
 2160 1960 2242 2062 2350 2136 c 0
 2458 2208 2582 2244 2720 2244 c 0
 2924 2244 3086 2176 3208 2042 c 0
 3328 1908 3388 1718 3388 1474 c 2
 3388 0 l 1
 2782 0 l 1
 2782 1368 l 2
 2782 1498 2754 1600 2700 1668 c 0
 2644 1740 2566 1774 2466 1774 c 0
 2358 1774 2276 1736 2220 1664 c 0
 2162 1588 2134 1484 2134 1348 c 2
 2134 0 l 1
 1528 0 l 1
 1528 1368 l 2
 1528 1496 1500 1596 1446 1668 c 0
 1392 1738 1314 1774 1216 1774 c 0
 1108 1774 1024 1736 964 1658 c 0
 906 1580 876 1474 876 1336 c 2
 876 0 l 1
 270 0 l 1
EndSplineSet
Substitution2: "'sups' Superscript in Latin lookup 13 subtable" m.sups
Substitution2: "'aalt' Access All Alternates in Latin lookup 0 subtable" m.sups
EndChar

StartChar: n
Encoding: 110 110 80
Width: 2494
GlyphClass: 2
Flags: HW
AnchorPoint: "Anchor-2" 1250 2196 basechar 0
AnchorPoint: "Anchor-0" 1250 0 basechar 0
LayerCount: 2
Fore
SplineSet
1638 1340 m 2
 1638 1482 1608 1590 1544 1664 c 0
 1484 1738 1396 1774 1282 1774 c 0
 1156 1774 1058 1732 984 1652 c 0
 912 1568 876 1456 876 1314 c 2
 876 0 l 1
 270 0 l 1
 270 2196 l 1
 828 2196 l 1
 828 1818 l 1
 852 1818 l 1
 908 1948 994 2052 1112 2128 c 0
 1228 2206 1362 2244 1516 2244 c 0
 1744 2244 1922 2176 2052 2040 c 0
 2180 1904 2244 1700 2244 1426 c 2
 2244 0 l 1
 1638 0 l 1
 1638 1340 l 2
EndSplineSet
Substitution2: "'sups' Superscript in Latin lookup 13 subtable" n.sups
Substitution2: "'aalt' Access All Alternates in Latin lookup 0 subtable" n.sups
EndChar

StartChar: o
Encoding: 111 111 81
Width: 2554
GlyphClass: 2
Flags: HW
AnchorPoint: "Anchor-3" 1672 2196 basechar 0
AnchorPoint: "Anchor-2" 1278 2196 basechar 0
AnchorPoint: "Anchor-1" 1818 0 basechar 0
AnchorPoint: "Anchor-0" 1278 0 basechar 0
LayerCount: 2
Fore
SplineSet
1278 -50 m 0
 938 -50 664 56 458 268 c 0
 252 480 148 756 148 1094 c 0
 148 1436 252 1712 458 1924 c 0
 664 2138 938 2244 1278 2244 c 0
 1618 2244 1892 2138 2098 1924 c 0
 2304 1712 2408 1436 2408 1094 c 0
 2408 756 2304 480 2098 268 c 0
 1892 56 1618 -50 1278 -50 c 0
770 1094 m 0
 770 860 816 684 904 568 c 0
 996 452 1120 394 1278 394 c 0
 1434 394 1558 452 1648 568 c 0
 1740 686 1786 860 1786 1094 c 0
 1786 1330 1740 1506 1648 1624 c 0
 1558 1740 1434 1798 1278 1798 c 0
 1120 1798 996 1740 904 1624 c 0
 816 1506 770 1330 770 1094 c 0
EndSplineSet
Substitution2: "Single Substitution lookup 33 subtable" ordmasculine
Substitution2: "'sups' Superscript in Latin lookup 13 subtable" o.sups
AlternateSubs2: "'aalt' Access All Alternates in Latin lookup 1 subtable" o.sups ordmasculine
EndChar

StartChar: p
Encoding: 112 112 82
Width: 2592
GlyphClass: 2
Flags: HW
AnchorPoint: "Anchor-2" 1294 2196 basechar 0
AnchorPoint: "Anchor-0" 1294 0 basechar 0
LayerCount: 2
Fore
SplineSet
270 -820 m 1
 270 2196 l 1
 844 2196 l 1
 844 1844 l 1
 868 1844 l 1
 920 1962 1004 2060 1124 2132 c 0
 1240 2208 1376 2244 1528 2244 c 0
 1802 2244 2024 2140 2192 1932 c 0
 2358 1724 2442 1444 2442 1094 c 0
 2442 748 2358 470 2192 262 c 0
 2026 54 1808 -50 1540 -50 c 0
 1390 -50 1260 -12 1148 62 c 0
 1038 136 956 234 902 356 c 1
 876 356 l 1
 876 -820 l 1
 270 -820 l 1
844 1094 m 0
 844 882 888 712 976 584 c 0
 1064 458 1184 394 1336 394 c 0
 1488 394 1606 456 1692 580 c 0
 1776 706 1818 876 1818 1094 c 0
 1818 1312 1776 1484 1692 1610 c 0
 1608 1736 1490 1798 1336 1798 c 0
 1182 1798 1060 1736 974 1610 c 0
 888 1484 844 1312 844 1094 c 0
EndSplineSet
Substitution2: "'sups' Superscript in Latin lookup 13 subtable" p.sups
Substitution2: "'aalt' Access All Alternates in Latin lookup 0 subtable" p.sups
EndChar

StartChar: q
Encoding: 113 113 83
Width: 2592
GlyphClass: 2
Flags: HW
AnchorPoint: "Anchor-2" 1294 2196 basechar 0
AnchorPoint: "Anchor-0" 1294 0 basechar 0
LayerCount: 2
Fore
SplineSet
1712 -820 m 1
 1712 356 l 1
 1688 356 l 1
 1634 234 1552 136 1442 62 c 0
 1332 -12 1202 -50 1052 -50 c 0
 782 -50 564 54 396 260 c 0
 232 468 148 746 148 1094 c 0
 148 1446 232 1726 398 1932 c 0
 564 2140 786 2244 1060 2244 c 0
 1212 2244 1348 2208 1464 2132 c 0
 1584 2060 1670 1962 1724 1844 c 1
 1744 1844 l 1
 1744 2196 l 1
 2318 2196 l 1
 2318 -820 l 1
 1712 -820 l 1
770 1094 m 0
 770 876 812 706 898 580 c 0
 984 456 1104 394 1258 394 c 0
 1408 394 1528 458 1614 584 c 0
 1700 712 1744 882 1744 1094 c 0
 1744 1312 1702 1484 1616 1610 c 0
 1532 1736 1412 1798 1258 1798 c 0
 1104 1798 984 1736 898 1610 c 0
 812 1484 770 1312 770 1094 c 0
EndSplineSet
Substitution2: "'sups' Superscript in Latin lookup 13 subtable" q.sups
Substitution2: "'aalt' Access All Alternates in Latin lookup 0 subtable" q.sups
EndChar

StartChar: r
Encoding: 114 114 84
Width: 1650
GlyphClass: 2
Flags: HW
AnchorPoint: "Anchor-2" 996 2196 basechar 0
AnchorPoint: "Anchor-0" 574 0 basechar 0
LayerCount: 2
Fore
SplineSet
270 0 m 1
 270 2196 l 1
 828 2196 l 1
 828 1762 l 1
 852 1762 l 1
 890 1908 962 2024 1068 2112 c 0
 1174 2200 1298 2244 1438 2244 c 0
 1482 2244 1526 2238 1568 2228 c 1
 1568 1680 l 1
 1526 1696 1452 1704 1348 1704 c 0
 1206 1704 1092 1660 1004 1570 c 0
 920 1480 876 1362 876 1212 c 2
 876 0 l 1
 270 0 l 1
EndSplineSet
Substitution2: "'sups' Superscript in Latin lookup 13 subtable" r.sups
Substitution2: "'aalt' Access All Alternates in Latin lookup 0 subtable" r.sups
EndChar

StartChar: s
Encoding: 115 115 85
Width: 2142
GlyphClass: 2
Flags: HW
AnchorPoint: "Anchor-2" 1118 2196 basechar 0
AnchorPoint: "Anchor-0" 1126 0 basechar 0
LayerCount: 2
Fore
SplineSet
1070 -50 m 0
 806 -50 592 -2 426 96 c 0
 260 194 154 330 106 508 c 1
 672 634 l 1
 726 438 870 340 1102 340 c 0
 1208 340 1292 362 1350 408 c 0
 1408 454 1438 516 1438 598 c 0
 1438 668 1418 724 1380 768 c 0
 1342 808 1282 840 1200 860 c 2
 758 970 l 2
 388 1066 204 1266 204 1568 c 0
 204 1770 290 1932 460 2056 c 0
 630 2182 854 2244 1130 2244 c 0
 1362 2244 1558 2200 1720 2110 c 0
 1880 2020 1982 1900 2028 1748 c 1
 1486 1610 l 1
 1426 1774 1300 1856 1110 1856 c 0
 1010 1856 932 1836 880 1796 c 0
 824 1756 798 1698 798 1622 c 0
 798 1508 882 1428 1052 1384 c 2
 1496 1274 l 2
 1854 1182 2032 978 2032 660 c 0
 2032 438 1946 264 1776 140 c 0
 1606 12 1370 -50 1070 -50 c 0
EndSplineSet
Substitution2: "'sups' Superscript in Latin lookup 13 subtable" s.sups
Substitution2: "'aalt' Access All Alternates in Latin lookup 0 subtable" s.sups
EndChar

StartChar: t
Encoding: 116 116 86
Width: 1604
GlyphClass: 2
Flags: HW
AnchorPoint: "Anchor-3" 1232 2888 basechar 0
AnchorPoint: "Anchor-2" 802 2196 basechar 0
AnchorPoint: "Anchor-0" 1044 0 basechar 0
LayerCount: 2
Fore
SplineSet
1122 -40 m 0
 908 -40 746 12 634 118 c 0
 522 224 466 378 466 582 c 2
 466 1782 l 1
 122 1782 l 1
 122 2196 l 1
 466 2196 l 1
 466 2622 l 1
 1074 2884 l 1
 1074 2196 l 1
 1482 2196 l 1
 1482 1782 l 1
 1074 1782 l 1
 1074 660 l 2
 1074 502 1148 422 1294 422 c 0
 1350 422 1412 432 1482 450 c 1
 1482 24 l 1
 1378 -18 1258 -40 1122 -40 c 0
EndSplineSet
Substitution2: "'sups' Superscript in Latin lookup 13 subtable" t.sups
Substitution2: "'aalt' Access All Alternates in Latin lookup 0 subtable" t.sups
EndChar

StartChar: u
Encoding: 117 117 87
Width: 2432
GlyphClass: 2
Flags: HW
AnchorPoint: "Anchor-3" 1576 2196 basechar 0
AnchorPoint: "Anchor-2" 1216 2196 basechar 0
AnchorPoint: "Anchor-1" 1740 0 basechar 0
AnchorPoint: "Anchor-0" 1216 0 basechar 0
LayerCount: 2
Fore
SplineSet
1216 -50 m 0
 906 -50 668 24 500 172 c 0
 334 322 250 546 250 848 c 2
 250 2196 l 1
 856 2196 l 1
 856 868 l 2
 856 570 976 422 1216 422 c 0
 1330 422 1418 460 1480 536 c 0
 1544 610 1576 722 1576 868 c 2
 1576 2196 l 1
 2184 2196 l 1
 2184 848 l 2
 2184 550 2098 324 1928 176 c 0
 1756 24 1518 -50 1216 -50 c 0
EndSplineSet
Substitution2: "'sups' Superscript in Latin lookup 13 subtable" u.sups
Substitution2: "'aalt' Access All Alternates in Latin lookup 0 subtable" u.sups
EndChar

StartChar: v
Encoding: 118 118 88
Width: 2314
GlyphClass: 2
Flags: HW
AnchorPoint: "Anchor-2" 1160 2196 basechar 0
AnchorPoint: "Anchor-0" 1160 0 basechar 0
LayerCount: 2
Fore
SplineSet
738 0 m 1
 58 2196 l 1
 700 2196 l 1
 1146 372 l 1
 1172 372 l 1
 1614 2196 l 1
 2256 2196 l 1
 1576 0 l 1
 738 0 l 1
EndSplineSet
Substitution2: "'sups' Superscript in Latin lookup 13 subtable" v.sups
Substitution2: "'aalt' Access All Alternates in Latin lookup 0 subtable" v.sups
EndChar

StartChar: w
Encoding: 119 119 89
Width: 3268
GlyphClass: 2
Flags: HW
AnchorPoint: "Anchor-2" 1658 2196 basechar 0
AnchorPoint: "Anchor-0" 1658 0 basechar 0
LayerCount: 2
Fore
SplineSet
528 0 m 1
 78 2196 l 1
 652 2196 l 1
 922 398 l 1
 942 398 l 1
 1246 2196 l 1
 2028 2196 l 1
 2326 398 l 1
 2348 398 l 1
 2618 2196 l 1
 3190 2196 l 1
 2740 0 l 1
 1954 0 l 1
 1646 1798 l 1
 1622 1798 l 1
 1314 0 l 1
 528 0 l 1
EndSplineSet
Substitution2: "'sups' Superscript in Latin lookup 13 subtable" w.sups
Substitution2: "'aalt' Access All Alternates in Latin lookup 0 subtable" w.sups
EndChar

StartChar: x
Encoding: 120 120 90
Width: 2392
GlyphClass: 2
Flags: HW
AnchorPoint: "Anchor-2" 1196 2196 basechar 0
AnchorPoint: "Anchor-0" 1196 0 basechar 0
LayerCount: 2
Fore
SplineSet
1658 0 m 1
 1212 840 l 1
 1192 840 l 1
 734 0 l 1
 58 0 l 1
 774 1138 l 1
 126 2196 l 1
 816 2196 l 1
 1180 1466 l 1
 1208 1466 l 1
 1572 2196 l 1
 2248 2196 l 1
 1610 1150 l 1
 2334 0 l 1
 1658 0 l 1
EndSplineSet
Substitution2: "'sups' Superscript in Latin lookup 13 subtable" x.sups
Substitution2: "'aalt' Access All Alternates in Latin lookup 0 subtable" x.sups
EndChar

StartChar: y
Encoding: 121 121 91
Width: 2382
GlyphClass: 2
Flags: HW
AnchorPoint: "Anchor-2" 1172 2196 basechar 0
AnchorPoint: "Anchor-0" 1900 0 basechar 0
LayerCount: 2
Fore
SplineSet
672 -820 m 1
 918 -148 l 1
 58 2196 l 1
 696 2196 l 1
 1196 484 l 1
 1228 484 l 1
 1688 2196 l 1
 2326 2196 l 1
 1266 -820 l 1
 672 -820 l 1
EndSplineSet
Substitution2: "'sups' Superscript in Latin lookup 13 subtable" y.sups
Substitution2: "'aalt' Access All Alternates in Latin lookup 0 subtable" y.sups
EndChar

StartChar: z
Encoding: 122 122 92
Width: 2190
GlyphClass: 2
Flags: HW
AnchorPoint: "Anchor-2" 1094 2196 basechar 0
AnchorPoint: "Anchor-0" 1094 0 basechar 0
LayerCount: 2
Fore
SplineSet
176 0 m 1
 176 644 l 1
 1438 1712 l 1
 1438 1732 l 1
 200 1732 l 1
 200 2196 l 1
 1962 2196 l 1
 1962 1552 l 1
 700 484 l 1
 700 462 l 1
 2044 462 l 1
 2044 0 l 1
 176 0 l 1
EndSplineSet
Substitution2: "'sups' Superscript in Latin lookup 13 subtable" z.sups
Substitution2: "'aalt' Access All Alternates in Latin lookup 0 subtable" z.sups
EndChar

StartChar: braceleft
Encoding: 123 123 93
Width: 1740
GlyphClass: 2
Flags: HW
LayerCount: 2
Fore
SplineSet
1160 62 m 2
 1160 -30 1180 -96 1220 -138 c 0
 1258 -180 1318 -200 1400 -200 c 2
 1552 -200 l 1
 1552 -656 l 1
 1212 -656 l 2
 1024 -656 874 -604 764 -500 c 0
 654 -394 598 -248 598 -58 c 2
 598 626 l 2
 598 732 574 812 524 862 c 0
 476 912 398 938 290 938 c 2
 200 938 l 1
 200 1486 l 1
 290 1486 l 2
 398 1486 476 1512 524 1562 c 0
 574 1612 598 1692 598 1798 c 2
 598 2482 l 2
 598 2672 654 2818 764 2924 c 0
 874 3028 1024 3080 1212 3080 c 2
 1552 3080 l 1
 1552 2626 l 1
 1400 2626 l 2
 1318 2626 1258 2606 1220 2564 c 0
 1180 2522 1160 2456 1160 2364 c 2
 1160 1770 l 2
 1160 1602 1120 1474 1042 1386 c 0
 964 1298 836 1248 660 1236 c 1
 660 1188 l 1
 836 1176 964 1126 1042 1040 c 0
 1120 952 1160 824 1160 656 c 2
 1160 62 l 2
EndSplineSet
Substitution2: "'case' Case-Sensitive Forms in Latin lookup 23 subtable" braceleft.case
Substitution2: "'aalt' Access All Alternates in Latin lookup 0 subtable" braceleft.case
EndChar

StartChar: bar
Encoding: 124 124 94
Width: 1252
GlyphClass: 2
Flags: HW
LayerCount: 2
Fore
SplineSet
352 -492 m 1
 352 2958 l 1
 902 2958 l 1
 902 -492 l 1
 352 -492 l 1
EndSplineSet
Substitution2: "'case' Case-Sensitive Forms in Latin lookup 23 subtable" bar.case
Substitution2: "'aalt' Access All Alternates in Latin lookup 0 subtable" bar.case
EndChar

StartChar: braceright
Encoding: 125 125 95
Width: 1740
GlyphClass: 2
Flags: HW
LayerCount: 2
Fore
SplineSet
1086 1236 m 1
 910 1248 782 1298 702 1386 c 0
 622 1474 582 1602 582 1770 c 2
 582 2364 l 2
 582 2458 562 2524 524 2564 c 0
 484 2606 422 2626 340 2626 c 2
 188 2626 l 1
 188 3080 l 1
 532 3080 l 2
 718 3080 868 3028 976 2924 c 0
 1088 2818 1142 2672 1142 2482 c 2
 1142 1798 l 2
 1142 1692 1168 1612 1216 1562 c 0
 1268 1512 1344 1486 1450 1486 c 2
 1540 1486 l 1
 1540 938 l 1
 1450 938 l 2
 1344 938 1268 912 1216 862 c 0
 1168 812 1142 732 1142 626 c 2
 1142 -58 l 2
 1142 -248 1088 -394 976 -500 c 0
 868 -604 718 -656 532 -656 c 2
 188 -656 l 1
 188 -200 l 1
 340 -200 l 2
 422 -200 484 -180 524 -140 c 0
 562 -98 582 -32 582 62 c 2
 582 656 l 2
 582 824 622 952 702 1040 c 0
 782 1126 910 1176 1086 1188 c 1
 1086 1236 l 1
EndSplineSet
Substitution2: "'case' Case-Sensitive Forms in Latin lookup 23 subtable" braceright.case
Substitution2: "'aalt' Access All Alternates in Latin lookup 0 subtable" braceright.case
EndChar

StartChar: asciitilde
Encoding: 126 126 96
Width: 2784
GlyphClass: 2
Flags: HW
LayerCount: 2
Fore
SplineSet
2568 1520 m 1
 2554 1288 2480 1100 2350 956 c 0
 2220 810 2054 738 1852 738 c 0
 1704 738 1554 788 1404 888 c 2
 1196 1032 l 2
 1106 1094 1030 1126 970 1126 c 0
 900 1126 842 1096 796 1040 c 0
 750 980 726 902 720 802 c 1
 222 802 l 1
 236 1036 310 1226 440 1372 c 0
 570 1518 736 1590 938 1590 c 0
 1084 1590 1234 1538 1384 1434 c 2
 1594 1290 l 2
 1680 1230 1754 1200 1814 1200 c 0
 1884 1200 1944 1228 1990 1288 c 0
 2036 1344 2064 1422 2072 1520 c 1
 2568 1520 l 1
EndSplineSet
EndChar

StartChar: exclamdown
Encoding: 161 161 98
Width: 1592
GlyphClass: 2
Flags: HW
LayerCount: 2
Fore
SplineSet
480 1204 m 1
 1118 1204 l 1
 1118 -720 l 1
 480 -720 l 1
 480 1204 l 1
414 1814 m 0
 414 1922 450 2012 524 2084 c 0
 598 2156 688 2192 794 2192 c 0
 904 2192 996 2156 1070 2084 c 0
 1144 2014 1180 1924 1180 1814 c 0
 1180 1708 1144 1618 1070 1546 c 0
 996 1474 904 1438 794 1438 c 0
 688 1438 598 1474 524 1548 c 0
 450 1620 414 1708 414 1814 c 0
EndSplineSet
Substitution2: "'case' Case-Sensitive Forms in Latin lookup 23 subtable" exclamdown.case
Substitution2: "'aalt' Access All Alternates in Latin lookup 0 subtable" exclamdown.case
EndChar

StartChar: cent
Encoding: 162 162 99
Width: 2296
GlyphClass: 2
Flags: HW
LayerCount: 2
Fore
SplineSet
1740 1614 m 1
 1664 1792 1542 1896 1372 1926 c 1
 1372 626 l 1
 1540 652 1662 754 1740 934 c 1
 2232 766 l 1
 2170 588 2066 446 1924 342 c 0
 1780 238 1596 178 1372 160 c 1
 1372 -234 l 1
 1082 -234 l 1
 1082 164 l 1
 804 198 578 314 406 512 c 0
 234 712 148 966 148 1274 c 0
 148 1584 234 1838 406 2036 c 0
 578 2234 804 2350 1082 2384 c 1
 1082 2720 l 1
 1372 2720 l 1
 1372 2388 l 1
 1594 2370 1778 2310 1922 2208 c 0
 2066 2104 2170 1964 2232 1786 c 1
 1740 1614 l 1
700 1274 m 0
 700 1104 734 964 804 854 c 0
 874 744 966 672 1082 638 c 1
 1082 1912 l 1
 968 1878 876 1804 804 1696 c 0
 736 1584 700 1444 700 1274 c 0
EndSplineSet
Substitution2: "'tnum' Tabular Numbers in Latin lookup 21 subtable" cent.tf
Substitution2: "'aalt' Access All Alternates in Latin lookup 0 subtable" cent.tf
EndChar

StartChar: sterling
Encoding: 163 163 100
Width: 2592
GlyphClass: 2
Flags: HW
LayerCount: 2
Fore
SplineSet
246 472 m 1
 416 538 542 618 620 716 c 0
 698 814 738 932 738 1074 c 0
 738 1122 728 1190 708 1278 c 1
 246 1278 l 1
 246 1618 l 1
 594 1618 l 1
 524 1804 488 1962 488 2094 c 0
 488 2352 580 2560 764 2720 c 0
 946 2878 1186 2958 1482 2958 c 0
 1736 2958 1948 2902 2120 2790 c 0
 2288 2678 2404 2516 2466 2306 c 1
 1942 2142 l 1
 1912 2258 1858 2346 1780 2408 c 0
 1702 2468 1606 2498 1490 2498 c 0
 1352 2498 1246 2456 1170 2376 c 0
 1094 2292 1056 2182 1056 2044 c 0
 1056 1950 1094 1808 1168 1618 c 1
 2048 1618 l 1
 2048 1278 l 1
 1278 1278 l 1
 1292 1214 1298 1156 1298 1102 c 0
 1298 974 1264 860 1196 758 c 0
 1130 656 1034 578 910 524 c 1
 910 504 l 1
 2380 504 l 1
 2380 0 l 1
 246 0 l 1
 246 472 l 1
EndSplineSet
Substitution2: "'tnum' Tabular Numbers in Latin lookup 21 subtable" sterling.tf
Substitution2: "'aalt' Access All Alternates in Latin lookup 0 subtable" sterling.tf
EndChar

StartChar: currency
Encoding: 164 164 101
Width: 2416
GlyphClass: 2
Flags: HW
LayerCount: 2
Fore
SplineSet
1204 552 m 0
 1066 552 936 582 816 644 c 1
 544 372 l 1
 222 700 l 1
 488 966 l 1
 422 1090 390 1222 390 1364 c 0
 390 1514 422 1644 488 1758 c 1
 204 2036 l 1
 532 2364 l 1
 812 2080 l 1
 926 2142 1058 2174 1204 2174 c 0
 1356 2174 1488 2142 1602 2076 c 1
 1868 2348 l 1
 2200 2020 l 1
 1930 1748 l 1
 1990 1634 2020 1506 2020 1364 c 0
 2020 1218 1988 1088 1926 974 c 1
 2212 688 l 1
 1884 356 l 1
 1598 648 l 1
 1480 584 1350 552 1204 552 c 0
798 1364 m 0
 798 1244 836 1144 912 1064 c 0
 990 986 1086 946 1204 946 c 0
 1322 946 1420 986 1496 1066 c 0
 1576 1146 1614 1246 1614 1364 c 0
 1614 1482 1576 1582 1496 1662 c 0
 1420 1742 1322 1782 1204 1782 c 0
 1086 1782 990 1742 912 1664 c 0
 836 1584 798 1484 798 1364 c 0
EndSplineSet
Substitution2: "'tnum' Tabular Numbers in Latin lookup 21 subtable" currency.tf
Substitution2: "'aalt' Access All Alternates in Latin lookup 0 subtable" currency.tf
EndChar

StartChar: yen
Encoding: 165 165 102
Width: 2670
GlyphClass: 2
Flags: HW
LayerCount: 2
Fore
SplineSet
1040 0 m 1
 1040 582 l 1
 376 582 l 1
 376 860 l 1
 1040 860 l 1
 1040 1122 l 1
 376 1122 l 1
 376 1400 l 1
 950 1400 l 1
 66 2888 l 1
 688 2888 l 1
 1336 1668 l 1
 1982 2888 l 1
 2606 2888 l 1
 1720 1400 l 1
 2298 1400 l 1
 2298 1122 l 1
 1634 1122 l 1
 1634 860 l 1
 2298 860 l 1
 2298 582 l 1
 1634 582 l 1
 1634 0 l 1
 1040 0 l 1
EndSplineSet
Substitution2: "'tnum' Tabular Numbers in Latin lookup 21 subtable" yen.tf
Substitution2: "'aalt' Access All Alternates in Latin lookup 0 subtable" yen.tf
EndChar

StartChar: section
Encoding: 167 167 103
Width: 2236
GlyphClass: 2
Flags: HW
LayerCount: 2
Fore
SplineSet
1106 -512 m 0
 850 -512 638 -460 468 -356 c 0
 298 -252 198 -112 164 66 c 1
 712 168 l 1
 768 -26 900 -122 1110 -122 c 0
 1224 -122 1310 -100 1372 -56 c 0
 1432 -10 1462 54 1462 136 c 0
 1462 198 1440 250 1398 292 c 0
 1356 334 1282 372 1180 410 c 2
 716 582 l 2
 630 612 560 644 504 672 c 0
 446 704 392 742 336 788 c 0
 284 834 242 892 216 956 c 0
 190 1024 176 1100 176 1188 c 0
 176 1318 210 1428 278 1522 c 0
 346 1616 448 1682 582 1724 c 1
 582 1748 l 1
 336 1862 212 2036 212 2270 c 0
 212 2478 298 2644 468 2768 c 0
 640 2892 866 2954 1146 2954 c 0
 1388 2954 1590 2910 1754 2820 c 0
 1918 2730 2022 2608 2064 2454 c 1
 1520 2330 l 1
 1458 2486 1332 2564 1142 2564 c 0
 1032 2564 950 2542 892 2500 c 0
 834 2456 806 2392 806 2310 c 0
 806 2248 826 2196 868 2156 c 0
 910 2112 978 2074 1074 2036 c 2
 1536 1864 l 2
 1604 1838 1662 1816 1710 1792 c 0
 1758 1772 1806 1744 1856 1708 c 0
 1906 1676 1944 1638 1976 1598 c 0
 2004 1558 2030 1510 2048 1452 c 0
 2066 1394 2076 1330 2076 1258 c 0
 2076 1128 2042 1016 1976 924 c 0
 1908 828 1806 762 1672 720 c 1
 1672 696 l 1
 1928 582 2056 408 2056 176 c 0
 2056 -34 1968 -200 1796 -324 c 0
 1620 -450 1392 -512 1106 -512 c 0
712 1274 m 0
 712 1198 736 1138 782 1092 c 0
 828 1046 906 1004 1012 966 c 2
 1314 852 l 1
 1388 878 1444 920 1482 976 c 0
 1520 1032 1540 1098 1540 1172 c 0
 1540 1250 1516 1310 1470 1356 c 0
 1424 1400 1348 1440 1242 1478 c 2
 938 1594 l 1
 866 1568 810 1526 772 1472 c 0
 732 1416 712 1350 712 1274 c 0
EndSplineSet
EndChar

StartChar: dieresis
Encoding: 168 168 104
Width: 1956
GlyphClass: 4
Flags: HW
AnchorPoint: "Anchor-5" 978 3100 basemark 0
LayerCount: 2
Fore
SplineSet
1450 2514 m 0
 1362 2514 1288 2544 1230 2604 c 0
 1172 2662 1142 2734 1142 2818 c 0
 1142 2904 1172 2976 1228 3036 c 0
 1288 3092 1360 3122 1450 3122 c 0
 1540 3122 1612 3092 1668 3036 c 0
 1726 2976 1754 2904 1754 2818 c 0
 1754 2734 1726 2662 1668 2604 c 0
 1610 2544 1538 2514 1450 2514 c 0
204 2818 m 0
 204 2906 232 2978 292 3036 c 0
 348 3094 422 3122 512 3122 c 0
 598 3122 672 3094 728 3036 c 0
 788 2978 816 2906 816 2818 c 0
 816 2734 786 2662 728 2604 c 0
 670 2544 598 2514 512 2514 c 0
 422 2514 348 2544 292 2602 c 0
 232 2660 204 2732 204 2818 c 0
EndSplineSet
EndChar

StartChar: copyright
Encoding: 169 169 105
Width: 4206
GlyphClass: 2
Flags: HW
LayerCount: 2
Fore
SplineSet
2102 -450 m 0
 1832 -450 1580 -402 1344 -308 c 0
 1110 -212 908 -80 740 86 c 0
 572 252 440 454 344 688 c 0
 248 924 200 1178 200 1450 c 0
 200 1722 248 1976 344 2212 c 0
 440 2446 572 2648 740 2814 c 0
 908 2980 1110 3112 1344 3208 c 0
 1580 3302 1832 3350 2102 3350 c 0
 2372 3350 2624 3302 2860 3208 c 0
 3094 3112 3296 2980 3464 2814 c 0
 3630 2648 3762 2446 3858 2212 c 0
 3954 1976 4002 1722 4002 1450 c 0
 4002 1178 3954 924 3858 688 c 0
 3762 454 3630 252 3464 86 c 0
 3296 -80 3094 -212 2860 -308 c 0
 2624 -402 2372 -450 2102 -450 c 0
652 1450 m 0
 652 1234 688 1032 760 848 c 0
 832 660 932 502 1056 370 c 0
 1184 238 1336 134 1516 60 c 0
 1698 -16 1892 -54 2102 -54 c 0
 2310 -54 2504 -16 2684 60 c 0
 2864 134 3018 238 3144 370 c 0
 3270 502 3370 662 3444 848 c 0
 3516 1034 3552 1236 3552 1450 c 0
 3552 1664 3516 1866 3444 2052 c 0
 3370 2238 3270 2398 3144 2530 c 0
 3018 2662 2864 2766 2684 2840 c 0
 2504 2916 2310 2954 2102 2954 c 0
 1892 2954 1698 2916 1516 2840 c 0
 1336 2766 1184 2662 1056 2530 c 0
 932 2398 832 2240 760 2052 c 0
 688 1868 652 1666 652 1450 c 0
1242 1454 m 0
 1242 1752 1324 1994 1490 2178 c 0
 1656 2362 1872 2454 2138 2454 c 0
 2340 2454 2510 2410 2644 2322 c 0
 2778 2234 2874 2106 2932 1938 c 1
 2524 1794 l 1
 2458 1996 2328 2098 2130 2098 c 0
 2000 2098 1896 2040 1820 1924 c 0
 1742 1808 1704 1652 1704 1454 c 0
 1704 1256 1742 1100 1820 984 c 0
 1896 870 2000 812 2130 812 c 0
 2334 812 2468 920 2532 1134 c 1
 2940 1016 l 1
 2890 832 2796 692 2660 596 c 0
 2522 502 2348 454 2138 454 c 0
 1872 454 1656 546 1490 732 c 0
 1324 916 1242 1156 1242 1454 c 0
EndSplineSet
EndChar

StartChar: ordfeminine
Encoding: 170 170 106
Width: 2224
GlyphClass: 2
Flags: HW
LayerCount: 2
Fore
SplineSet
1442 1328 m 1
 1364 1536 l 1
 1336 1536 l 1
 1240 1372 1076 1290 844 1290 c 0
 674 1290 538 1334 432 1424 c 0
 326 1512 274 1628 274 1770 c 0
 274 2066 496 2240 938 2290 c 2
 1340 2342 l 1
 1340 2424 l 2
 1340 2486 1318 2538 1272 2578 c 0
 1226 2618 1162 2638 1078 2638 c 0
 930 2638 836 2578 798 2458 c 1
 332 2548 l 1
 378 2690 470 2800 608 2876 c 0
 748 2952 912 2990 1098 2990 c 0
 1350 2990 1538 2936 1664 2828 c 0
 1790 2720 1852 2570 1852 2376 c 2
 1852 1622 l 1
 1966 1328 l 1
 1442 1328 l 1
766 1806 m 0
 766 1750 788 1704 832 1670 c 0
 878 1636 940 1618 1020 1618 c 0
 1116 1618 1194 1646 1252 1702 c 0
 1310 1758 1340 1836 1340 1938 c 2
 1340 2072 l 1
 1064 2036 l 2
 966 2024 892 2000 840 1964 c 0
 792 1926 766 1874 766 1806 c 0
EndSplineSet
EndChar

StartChar: guillemotleft
Encoding: 171 171 107
Width: 2736
GlyphClass: 2
Flags: HW
LayerCount: 2
Fore
SplineSet
282 1150 m 1
 844 1990 l 1
 1388 1990 l 1
 824 1150 l 1
 1388 312 l 1
 844 312 l 1
 282 1150 l 1
1348 1150 m 1
 1908 1990 l 1
 2454 1990 l 1
 1888 1150 l 1
 2454 312 l 1
 1908 312 l 1
 1348 1150 l 1
EndSplineSet
Substitution2: "'case' Case-Sensitive Forms in Latin lookup 23 subtable" guillemotleft.case
Substitution2: "'aalt' Access All Alternates in Latin lookup 0 subtable" guillemotleft.case
EndChar

StartChar: registered
Encoding: 174 174 108
Width: 2494
GlyphClass: 2
Flags: HW
LayerCount: 2
Fore
SplineSet
1246 868 m 0
 946 868 696 968 498 1164 c 0
 300 1364 200 1612 200 1912 c 0
 200 2212 300 2462 498 2660 c 0
 696 2858 946 2958 1246 2958 c 0
 1548 2958 1796 2860 1994 2660 c 0
 2192 2464 2290 2214 2290 1912 c 0
 2290 1610 2192 1362 1994 1164 c 0
 1796 966 1548 868 1246 868 c 0
496 1912 m 0
 496 1686 566 1502 708 1356 c 0
 848 1210 1028 1138 1246 1138 c 0
 1464 1138 1646 1210 1788 1356 c 0
 1930 1502 2002 1686 2002 1912 c 0
 2002 2138 1930 2322 1788 2468 c 0
 1646 2614 1464 2686 1246 2686 c 0
 1028 2686 848 2614 708 2468 c 0
 566 2322 496 2138 496 1912 c 0
836 1400 m 1
 836 2450 l 1
 1298 2450 l 2
 1420 2450 1516 2420 1586 2364 c 0
 1656 2304 1692 2224 1692 2122 c 0
 1692 1976 1622 1880 1482 1830 c 1
 1720 1400 l 1
 1396 1400 l 1
 1200 1794 l 1
 1126 1794 l 1
 1126 1400 l 1
 836 1400 l 1
1126 1978 m 1
 1246 1978 l 2
 1348 1978 1400 2020 1400 2106 c 0
 1400 2192 1348 2236 1246 2236 c 2
 1126 2236 l 1
 1126 1978 l 1
EndSplineSet
EndChar

StartChar: macron
Encoding: 175 175 109
Width: 1752
GlyphClass: 4
Flags: HW
AnchorPoint: "Anchor-5" 876 3006 basemark 0
LayerCount: 2
Fore
SplineSet
204 2990 m 1
 1548 2990 l 1
 1548 2600 l 1
 204 2600 l 1
 204 2990 l 1
EndSplineSet
EndChar

StartChar: degree
Encoding: 176 176 110
Width: 1904
GlyphClass: 2
Flags: HW
LayerCount: 2
Fore
SplineSet
954 1340 m 0
 718 1340 524 1416 372 1568 c 0
 220 1720 144 1914 144 2150 c 0
 144 2384 220 2576 372 2728 c 0
 524 2882 718 2958 954 2958 c 0
 1188 2958 1380 2882 1532 2728 c 0
 1686 2576 1762 2384 1762 2150 c 0
 1762 1914 1686 1720 1532 1568 c 0
 1380 1416 1188 1340 954 1340 c 0
586 2150 m 0
 586 2024 620 1924 686 1848 c 0
 752 1770 842 1732 954 1732 c 0
 1064 1732 1152 1770 1220 1848 c 0
 1284 1924 1318 2024 1318 2150 c 0
 1318 2274 1284 2374 1220 2450 c 0
 1152 2526 1064 2564 954 2564 c 0
 842 2564 752 2526 686 2450 c 0
 620 2374 586 2274 586 2150 c 0
EndSplineSet
EndChar

StartChar: plusminus
Encoding: 177 177 111
Width: 2784
GlyphClass: 2
Flags: HW
LayerCount: 2
Fore
SplineSet
2338 1744 m 1
 2338 1270 l 1
 1634 1270 l 1
 1634 644 l 1
 1150 644 l 1
 1150 1270 l 1
 446 1270 l 1
 446 1744 l 1
 1150 1744 l 1
 1150 2376 l 1
 1634 2376 l 1
 1634 1744 l 1
 2338 1744 l 1
446 0 m 1
 446 480 l 1
 2338 480 l 1
 2338 0 l 1
 446 0 l 1
EndSplineSet
Substitution2: "Single Substitution lookup 34 subtable" plusminus.case
Substitution2: "'case' Case-Sensitive Forms in Latin lookup 23 subtable" plusminus.case
Substitution2: "'aalt' Access All Alternates in Latin lookup 0 subtable" plusminus.case
EndChar

StartChar: uni00B2
Encoding: 178 178 112
Width: 2424
GlyphClass: 2
Flags: HW
LayerCount: 2
Fore
SplineSet
390 1352 m 1
 390 1892 l 1
 1196 2466 l 2
 1298 2540 1374 2610 1420 2676 c 0
 1466 2740 1490 2808 1490 2880 c 0
 1490 2958 1462 3020 1406 3064 c 0
 1350 3112 1274 3134 1180 3134 c 0
 960 3134 834 3020 802 2790 c 1
 320 2868 l 1
 342 3078 432 3242 590 3360 c 0
 748 3478 954 3538 1208 3538 c 0
 1454 3538 1650 3482 1798 3368 c 0
 1946 3254 2020 3104 2020 2916 c 0
 2020 2780 1984 2658 1912 2552 c 0
 1838 2444 1714 2328 1540 2204 c 2
 978 1802 l 1
 978 1782 l 1
 2098 1782 l 1
 2098 1352 l 1
 390 1352 l 1
EndSplineSet
EndChar

StartChar: uni00B3
Encoding: 179 179 113
Width: 2428
GlyphClass: 2
Flags: HW
LayerCount: 2
Fore
SplineSet
1192 1298 m 0
 972 1298 782 1346 624 1440 c 0
 466 1534 358 1666 304 1836 c 1
 774 1966 l 1
 828 1792 972 1704 1204 1704 c 0
 1320 1704 1412 1732 1476 1788 c 0
 1544 1842 1576 1916 1576 2008 c 0
 1576 2102 1540 2176 1470 2232 c 0
 1400 2286 1294 2314 1156 2314 c 2
 832 2314 l 1
 832 2630 l 1
 1392 3040 l 1
 1392 3060 l 1
 438 3060 l 1
 438 3490 l 1
 1958 3490 l 1
 1958 3056 l 1
 1400 2666 l 1
 1400 2646 l 1
 1618 2636 1788 2574 1910 2464 c 0
 2032 2352 2094 2202 2094 2012 c 0
 2094 1802 2016 1630 1858 1496 c 0
 1700 1364 1478 1298 1192 1298 c 0
EndSplineSet
EndChar

StartChar: acute
Encoding: 180 180 114
Width: 1462
GlyphClass: 4
Flags: HW
AnchorPoint: "Anchor-5" 618 2970 basemark 0
LayerCount: 2
Fore
SplineSet
680 3204 m 1
 1258 3204 l 1
 750 2474 l 1
 204 2474 l 1
 680 3204 l 1
EndSplineSet
EndChar

StartChar: paragraph
Encoding: 182 182 115
Width: 2878
GlyphClass: 2
Flags: HW
LayerCount: 2
Fore
SplineSet
1224 -480 m 1
 1224 1192 l 1
 1208 1192 l 2
 910 1192 668 1266 484 1416 c 0
 300 1564 208 1768 208 2028 c 0
 208 2298 300 2508 482 2660 c 0
 664 2812 912 2888 1224 2888 c 2
 1668 2888 l 1
 1668 -480 l 1
 1224 -480 l 1
2080 -480 m 1
 2080 2888 l 1
 2524 2888 l 1
 2524 -480 l 1
 2080 -480 l 1
EndSplineSet
EndChar

StartChar: periodcentered
Encoding: 183 183 116
Width: 1326
GlyphClass: 2
Flags: HW
LayerCount: 2
Fore
SplineSet
664 832 m 0
 564 832 480 866 416 934 c 0
 348 1002 316 1084 316 1180 c 0
 316 1276 348 1358 416 1424 c 0
 480 1490 564 1524 664 1524 c 0
 764 1524 848 1490 912 1424 c 0
 980 1358 1012 1276 1012 1180 c 0
 1012 1084 980 1002 912 934 c 0
 848 866 764 832 664 832 c 0
EndSplineSet
Substitution2: "Single Substitution lookup 31 subtable" periodcentered.loclCAT.case
Substitution2: "Single Substitution lookup 30 subtable" periodcentered.loclCAT
Substitution2: "'case' Case-Sensitive Forms in Latin lookup 23 subtable" periodcentered.case
AlternateSubs2: "'aalt' Access All Alternates in Latin lookup 1 subtable" periodcentered.loclCAT periodcentered.loclCAT.case periodcentered.case
EndChar

StartChar: cedilla
Encoding: 184 184 117
Width: 1404
GlyphClass: 4
Flags: HW
AnchorPoint: "Anchor-4" 614 -868 basemark 0
LayerCount: 2
Fore
SplineSet
610 -992 m 0
 470 -992 334 -966 204 -914 c 1
 204 -648 l 1
 326 -678 432 -692 524 -692 c 0
 682 -692 762 -642 762 -544 c 0
 762 -460 700 -418 574 -418 c 0
 498 -418 430 -424 372 -434 c 1
 430 98 l 1
 802 98 l 1
 766 -184 l 1
 790 -184 l 2
 914 -184 1014 -216 1088 -280 c 0
 1162 -342 1200 -436 1200 -558 c 0
 1200 -698 1150 -806 1050 -880 c 0
 950 -954 804 -992 610 -992 c 0
EndSplineSet
EndChar

StartChar: uni00B9
Encoding: 185 185 118
Width: 1940
GlyphClass: 2
Flags: HW
LayerCount: 2
Fore
SplineSet
884 1352 m 1
 884 3032 l 1
 868 3032 l 1
 234 2510 l 1
 234 3036 l 1
 802 3490 l 1
 1414 3490 l 1
 1414 1352 l 1
 884 1352 l 1
EndSplineSet
EndChar

StartChar: ordmasculine
Encoding: 186 186 119
Width: 2382
GlyphClass: 2
Flags: HW
LayerCount: 2
Fore
SplineSet
1192 1290 m 0
 914 1290 692 1368 524 1528 c 0
 358 1684 274 1888 274 2138 c 0
 274 2388 358 2594 524 2752 c 0
 692 2910 914 2990 1192 2990 c 0
 1470 2990 1692 2910 1860 2752 c 0
 2026 2594 2110 2388 2110 2138 c 0
 2110 1888 2026 1684 1860 1528 c 0
 1692 1368 1470 1290 1192 1290 c 0
812 2138 m 0
 812 1976 844 1856 912 1776 c 0
 976 1698 1070 1658 1192 1658 c 0
 1314 1658 1408 1698 1472 1776 c 0
 1540 1856 1572 1976 1572 2138 c 0
 1572 2458 1446 2618 1192 2618 c 0
 1070 2618 976 2578 912 2500 c 0
 844 2420 812 2300 812 2138 c 0
EndSplineSet
EndChar

StartChar: guillemotright
Encoding: 187 187 120
Width: 2732
GlyphClass: 2
Flags: HW
LayerCount: 2
Fore
SplineSet
282 312 m 1
 848 1150 l 1
 282 1990 l 1
 828 1990 l 1
 1388 1150 l 1
 828 312 l 1
 282 312 l 1
1348 312 m 1
 1912 1150 l 1
 1348 1990 l 1
 1888 1990 l 1
 2450 1150 l 1
 1888 312 l 1
 1348 312 l 1
EndSplineSet
Substitution2: "'case' Case-Sensitive Forms in Latin lookup 23 subtable" guillemotright.case
Substitution2: "'aalt' Access All Alternates in Latin lookup 0 subtable" guillemotright.case
EndChar

StartChar: onequarter
Encoding: 188 188 121
Width: 3596
GlyphClass: 2
Flags: HW
LayerCount: 2
Fore
SplineSet
700 1298 m 1
 700 2510 l 1
 684 2510 l 1
 204 2122 l 1
 204 2556 l 1
 634 2888 l 1
 1138 2888 l 1
 1138 1298 l 1
 700 1298 l 1
602 0 m 1
 2380 2888 l 1
 2810 2888 l 1
 1036 0 l 1
 602 0 l 1
1892 290 m 1
 1892 692 l 1
 2610 1590 l 1
 3174 1590 l 1
 3174 638 l 1
 3392 638 l 1
 3392 290 l 1
 3174 290 l 1
 3174 0 l 1
 2716 0 l 1
 2716 290 l 1
 1892 290 l 1
2212 610 m 1
 2772 610 l 1
 2772 1298 l 1
 2756 1298 l 1
 2212 630 l 1
 2212 610 l 1
EndSplineSet
EndChar

StartChar: onehalf
Encoding: 189 189 122
Width: 3674
GlyphClass: 2
Flags: HW
LayerCount: 2
Fore
SplineSet
700 1298 m 1
 700 2510 l 1
 684 2510 l 1
 204 2122 l 1
 204 2556 l 1
 634 2888 l 1
 1138 2888 l 1
 1138 1298 l 1
 700 1298 l 1
602 0 m 1
 2380 2888 l 1
 2810 2888 l 1
 1036 0 l 1
 602 0 l 1
2114 1118 m 1
 2128 1276 2196 1400 2316 1490 c 0
 2434 1580 2594 1626 2794 1626 c 0
 2976 1626 3124 1584 3234 1498 c 0
 3344 1412 3400 1302 3400 1164 c 0
 3400 1054 3374 960 3322 888 c 0
 3270 812 3186 738 3068 660 c 2
 2630 372 l 1
 2630 356 l 1
 3470 356 l 1
 3470 0 l 1
 2162 0 l 1
 2162 454 l 1
 2782 856 l 2
 2910 944 2974 1032 2974 1118 c 0
 2974 1168 2956 1212 2920 1246 c 0
 2884 1280 2832 1298 2764 1298 c 0
 2614 1298 2530 1216 2514 1052 c 1
 2114 1118 l 1
EndSplineSet
EndChar

StartChar: threequarters
Encoding: 190 190 123
Width: 3784
GlyphClass: 2
Flags: HW
LayerCount: 2
Fore
SplineSet
872 1262 m 0
 706 1262 564 1296 444 1366 c 0
 322 1436 242 1532 204 1654 c 1
 594 1762 l 1
 636 1648 732 1590 884 1590 c 0
 960 1590 1022 1608 1068 1646 c 0
 1114 1684 1138 1732 1138 1794 c 0
 1138 1854 1112 1902 1064 1940 c 0
 1012 1976 940 1994 844 1994 c 2
 594 1994 l 1
 594 2248 l 1
 1016 2514 l 1
 1016 2532 l 1
 308 2532 l 1
 308 2888 l 1
 1458 2888 l 1
 1458 2532 l 1
 1070 2282 l 1
 1070 2266 l 1
 1226 2258 1348 2212 1434 2128 c 0
 1520 2046 1564 1934 1564 1794 c 0
 1564 1636 1504 1508 1384 1408 c 0
 1266 1312 1094 1262 872 1262 c 0
832 0 m 1
 2610 2888 l 1
 3040 2888 l 1
 1266 0 l 1
 832 0 l 1
2084 290 m 1
 2084 692 l 1
 2798 1590 l 1
 3362 1590 l 1
 3362 638 l 1
 3580 638 l 1
 3580 290 l 1
 3362 290 l 1
 3362 0 l 1
 2904 0 l 1
 2904 290 l 1
 2084 290 l 1
2400 610 m 1
 2962 610 l 1
 2962 1298 l 1
 2950 1298 l 1
 2400 630 l 1
 2400 610 l 1
EndSplineSet
EndChar

StartChar: questiondown
Encoding: 191 191 124
Width: 2468
GlyphClass: 2
Flags: HW
LayerCount: 2
Fore
SplineSet
1582 1204 m 1
 1582 504 l 1
 1352 496 l 2
 1202 488 1084 448 996 376 c 0
 912 306 868 212 868 94 c 0
 868 -24 904 -118 978 -188 c 0
 1052 -256 1152 -290 1282 -290 c 0
 1542 -290 1694 -162 1740 94 c 1
 2330 -12 l 1
 2292 -254 2176 -444 1984 -580 c 0
 1788 -718 1540 -786 1236 -786 c 0
 924 -786 674 -708 486 -550 c 0
 298 -392 204 -182 204 82 c 0
 204 292 270 466 404 606 c 0
 536 746 724 838 970 884 c 1
 970 1204 l 1
 1582 1204 l 1
902 1814 m 0
 902 1924 938 2014 1010 2084 c 0
 1082 2156 1172 2192 1282 2192 c 0
 1392 2192 1482 2156 1554 2084 c 0
 1626 2014 1662 1924 1662 1814 c 0
 1662 1708 1626 1618 1552 1546 c 0
 1480 1474 1390 1438 1282 1438 c 0
 1174 1438 1084 1474 1012 1546 c 0
 938 1618 902 1708 902 1814 c 0
EndSplineSet
Substitution2: "'case' Case-Sensitive Forms in Latin lookup 23 subtable" questiondown.case
Substitution2: "'aalt' Access All Alternates in Latin lookup 0 subtable" questiondown.case
EndChar

StartChar: Agrave
Encoding: 192 192 125
Width: 2894
GlyphClass: 2
Flags: HW
AnchorPoint: "Anchor-2" 1228 3706 basechar 0
AnchorPoint: "Anchor-1" 2806 0 basechar 0
AnchorPoint: "Anchor-0" 1466 0 basechar 0
LayerCount: 2
Fore
SplineSet
90 0 m 1
 1004 2888 l 1
 1888 2888 l 1
 2806 0 l 1
 2162 0 l 1
 1974 684 l 1
 926 684 l 1
 734 0 l 1
 90 0 l 1
742 3706 m 1
 1318 3706 l 1
 1716 3130 l 1
 1172 3130 l 1
 742 3706 l 1
1060 1168 m 1
 1840 1168 l 1
 1462 2520 l 1
 1438 2520 l 1
 1060 1168 l 1
EndSplineSet
EndChar

StartChar: Aacute
Encoding: 193 193 126
Width: 2894
GlyphClass: 2
Flags: HW
AnchorPoint: "Anchor-2" 1658 3706 basechar 0
AnchorPoint: "Anchor-1" 2806 0 basechar 0
AnchorPoint: "Anchor-0" 1466 0 basechar 0
LayerCount: 2
Fore
SplineSet
90 0 m 1
 1004 2888 l 1
 1888 2888 l 1
 2806 0 l 1
 2162 0 l 1
 1974 684 l 1
 926 684 l 1
 734 0 l 1
 90 0 l 1
1060 1168 m 1
 1840 1168 l 1
 1462 2520 l 1
 1438 2520 l 1
 1060 1168 l 1
1172 3130 m 1
 1568 3706 l 1
 2146 3706 l 1
 1716 3130 l 1
 1172 3130 l 1
EndSplineSet
EndChar

StartChar: Acircumflex
Encoding: 194 194 127
Width: 2894
GlyphClass: 2
Flags: HW
AnchorPoint: "Anchor-2" 1450 3706 basechar 0
AnchorPoint: "Anchor-1" 2806 0 basechar 0
AnchorPoint: "Anchor-0" 1466 0 basechar 0
LayerCount: 2
Fore
SplineSet
90 0 m 1
 1004 2888 l 1
 1888 2888 l 1
 2806 0 l 1
 2162 0 l 1
 1974 684 l 1
 926 684 l 1
 734 0 l 1
 90 0 l 1
684 3130 m 1
 1138 3706 l 1
 1758 3706 l 1
 2212 3130 l 1
 1708 3130 l 1
 1450 3466 l 1
 1188 3130 l 1
 684 3130 l 1
1060 1168 m 1
 1840 1168 l 1
 1462 2520 l 1
 1438 2520 l 1
 1060 1168 l 1
EndSplineSet
EndChar

StartChar: Atilde
Encoding: 195 195 128
Width: 2894
GlyphClass: 2
Flags: HW
AnchorPoint: "Anchor-2" 1446 3736 basechar 0
AnchorPoint: "Anchor-1" 2806 0 basechar 0
AnchorPoint: "Anchor-0" 1466 0 basechar 0
LayerCount: 2
Fore
SplineSet
90 0 m 1
 1004 2888 l 1
 1888 2888 l 1
 2806 0 l 1
 2162 0 l 1
 1974 684 l 1
 926 684 l 1
 734 0 l 1
 90 0 l 1
626 3134 m 1
 626 3316 672 3460 764 3572 c 0
 856 3680 978 3736 1130 3736 c 0
 1198 3736 1264 3724 1328 3698 c 0
 1394 3672 1446 3644 1486 3612 c 0
 1526 3582 1568 3554 1612 3528 c 0
 1656 3502 1694 3490 1724 3490 c 0
 1770 3490 1808 3510 1836 3548 c 0
 1862 3588 1876 3642 1876 3710 c 1
 2260 3710 l 1
 2260 3528 2214 3384 2124 3272 c 0
 2034 3164 1912 3108 1758 3108 c 0
 1692 3108 1626 3120 1562 3148 c 0
 1498 3172 1446 3202 1406 3232 c 0
 1366 3264 1324 3292 1280 3320 c 0
 1236 3344 1198 3358 1168 3358 c 0
 1120 3358 1082 3338 1054 3298 c 0
 1026 3258 1012 3204 1012 3134 c 1
 626 3134 l 1
1060 1168 m 1
 1840 1168 l 1
 1462 2520 l 1
 1438 2520 l 1
 1060 1168 l 1
EndSplineSet
EndChar

StartChar: Adieresis
Encoding: 196 196 129
Width: 2894
GlyphClass: 2
Flags: HW
AnchorPoint: "Anchor-2" 1446 3702 basechar 0
AnchorPoint: "Anchor-1" 2806 0 basechar 0
AnchorPoint: "Anchor-0" 1466 0 basechar 0
LayerCount: 2
Fore
SplineSet
90 0 m 1
 1004 2888 l 1
 1888 2888 l 1
 2806 0 l 1
 2162 0 l 1
 1974 684 l 1
 926 684 l 1
 734 0 l 1
 90 0 l 1
712 3412 m 0
 712 3496 740 3566 794 3620 c 0
 848 3674 920 3702 1008 3702 c 0
 1090 3702 1160 3674 1212 3620 c 0
 1268 3566 1294 3496 1294 3412 c 0
 1294 3332 1266 3264 1212 3208 c 0
 1158 3154 1090 3126 1008 3126 c 0
 922 3126 850 3154 796 3208 c 0
 740 3262 712 3330 712 3412 c 0
1060 1168 m 1
 1840 1168 l 1
 1462 2520 l 1
 1438 2520 l 1
 1060 1168 l 1
1598 3412 m 0
 1598 3494 1626 3564 1680 3620 c 0
 1736 3674 1806 3702 1892 3702 c 0
 1978 3702 2048 3674 2102 3620 c 0
 2156 3564 2184 3494 2184 3412 c 0
 2184 3332 2156 3264 2100 3208 c 0
 2046 3154 1976 3126 1892 3126 c 0
 1806 3126 1736 3154 1680 3208 c 0
 1626 3264 1598 3332 1598 3412 c 0
EndSplineSet
EndChar

StartChar: Aring
Encoding: 197 197 130
Width: 2894
GlyphClass: 2
Flags: HW
AnchorPoint: "Anchor-2" 1450 4068 basechar 0
AnchorPoint: "Anchor-1" 2806 0 basechar 0
AnchorPoint: "Anchor-0" 1466 0 basechar 0
LayerCount: 2
Fore
SplineSet
90 0 m 1
 1004 2888 l 1
 1888 2888 l 1
 2806 0 l 1
 2162 0 l 1
 1974 684 l 1
 926 684 l 1
 734 0 l 1
 90 0 l 1
892 3638 m 0
 892 3788 944 3912 1050 4004 c 0
 1156 4100 1288 4146 1450 4146 c 0
 1612 4146 1744 4100 1848 4004 c 0
 1950 3912 2002 3788 2002 3638 c 0
 2002 3488 1950 3364 1848 3272 c 0
 1744 3176 1612 3130 1450 3130 c 0
 1288 3130 1156 3176 1050 3272 c 0
 944 3364 892 3488 892 3638 c 0
1060 1168 m 1
 1840 1168 l 1
 1462 2520 l 1
 1438 2520 l 1
 1060 1168 l 1
1228 3638 m 0
 1228 3570 1250 3514 1292 3472 c 0
 1336 3430 1388 3408 1450 3408 c 0
 1508 3408 1560 3430 1604 3472 c 0
 1646 3514 1668 3570 1668 3638 c 0
 1668 3704 1646 3758 1604 3798 c 0
 1562 3838 1510 3858 1450 3858 c 0
 1388 3858 1336 3838 1292 3800 c 0
 1250 3760 1228 3706 1228 3638 c 0
EndSplineSet
EndChar

StartChar: AE
Encoding: 198 198 131
Width: 3992
GlyphClass: 2
Flags: HW
AnchorPoint: "Anchor-2" 2732 2888 basechar 0
AnchorPoint: "Anchor-0" 1994 0 basechar 0
LayerCount: 2
Fore
SplineSet
94 0 m 1
 1528 2888 l 1
 3752 2888 l 1
 3752 2384 l 1
 2654 2384 l 1
 2654 1736 l 1
 3552 1736 l 1
 3552 1246 l 1
 2654 1246 l 1
 2654 504 l 1
 3764 504 l 1
 3764 0 l 1
 2056 0 l 1
 2056 684 l 1
 1098 684 l 1
 774 0 l 1
 94 0 l 1
1328 1164 m 1
 2056 1164 l 1
 2056 2642 l 1
 2028 2642 l 1
 1328 1164 l 1
EndSplineSet
EndChar

StartChar: Ccedilla
Encoding: 199 199 132
Width: 2956
GlyphClass: 2
Flags: HW
AnchorPoint: "Anchor-2" 1618 2888 basechar 0
AnchorPoint: "Anchor-0" 1642 -868 basechar 0
LayerCount: 2
Fore
SplineSet
1638 -992 m 0
 1498 -992 1362 -966 1232 -914 c 1
 1232 -648 l 1
 1354 -678 1460 -692 1552 -692 c 0
 1710 -692 1790 -642 1790 -544 c 0
 1790 -460 1728 -418 1602 -418 c 0
 1526 -418 1458 -424 1400 -434 c 1
 1442 -62 l 1
 1068 -28 766 124 540 396 c 0
 314 670 200 1018 200 1442 c 0
 200 1896 328 2262 584 2540 c 0
 838 2818 1172 2958 1582 2958 c 0
 1894 2958 2154 2890 2360 2756 c 0
 2568 2620 2716 2424 2802 2166 c 1
 2212 1962 l 1
 2108 2280 1894 2438 1568 2438 c 0
 1350 2438 1180 2348 1056 2172 c 0
 930 1992 868 1750 868 1442 c 0
 868 1134 930 892 1056 716 c 0
 1182 538 1354 450 1572 450 c 0
 1902 450 2118 616 2220 946 c 1
 2814 778 l 1
 2668 284 2332 4 1810 -58 c 1
 1794 -184 l 1
 1818 -184 l 2
 1942 -184 2042 -216 2116 -280 c 0
 2190 -342 2228 -436 2228 -558 c 0
 2228 -698 2178 -806 2078 -880 c 0
 1978 -954 1832 -992 1638 -992 c 0
EndSplineSet
EndChar

StartChar: Egrave
Encoding: 200 200 133
Width: 2432
GlyphClass: 2
Flags: HW
AnchorPoint: "Anchor-2" 1070 3706 basechar 0
AnchorPoint: "Anchor-1" 2204 0 basechar 0
AnchorPoint: "Anchor-0" 1290 0 basechar 0
LayerCount: 2
Fore
SplineSet
332 0 m 1
 332 2888 l 1
 2192 2888 l 1
 2192 2384 l 1
 954 2384 l 1
 954 1736 l 1
 1966 1736 l 1
 1966 1246 l 1
 954 1246 l 1
 954 504 l 1
 2204 504 l 1
 2204 0 l 1
 332 0 l 1
582 3706 m 1
 1160 3706 l 1
 1556 3130 l 1
 1012 3130 l 1
 582 3706 l 1
EndSplineSet
EndChar

StartChar: Eacute
Encoding: 201 201 134
Width: 2432
GlyphClass: 2
Flags: HW
AnchorPoint: "Anchor-2" 1500 3706 basechar 0
AnchorPoint: "Anchor-1" 2204 0 basechar 0
AnchorPoint: "Anchor-0" 1290 0 basechar 0
LayerCount: 2
Fore
SplineSet
332 0 m 1
 332 2888 l 1
 2192 2888 l 1
 2192 2384 l 1
 954 2384 l 1
 954 1736 l 1
 1966 1736 l 1
 1966 1246 l 1
 954 1246 l 1
 954 504 l 1
 2204 504 l 1
 2204 0 l 1
 332 0 l 1
1012 3130 m 1
 1410 3706 l 1
 1986 3706 l 1
 1556 3130 l 1
 1012 3130 l 1
EndSplineSet
EndChar

StartChar: Ecircumflex
Encoding: 202 202 135
Width: 2432
GlyphClass: 2
Flags: HW
AnchorPoint: "Anchor-2" 1290 3706 basechar 0
AnchorPoint: "Anchor-1" 2204 0 basechar 0
AnchorPoint: "Anchor-0" 1290 0 basechar 0
LayerCount: 2
Fore
SplineSet
332 0 m 1
 332 2888 l 1
 2192 2888 l 1
 2192 2384 l 1
 954 2384 l 1
 954 1736 l 1
 1966 1736 l 1
 1966 1246 l 1
 954 1246 l 1
 954 504 l 1
 2204 504 l 1
 2204 0 l 1
 332 0 l 1
524 3130 m 1
 978 3706 l 1
 1598 3706 l 1
 2052 3130 l 1
 1548 3130 l 1
 1290 3466 l 1
 1028 3130 l 1
 524 3130 l 1
EndSplineSet
EndChar

StartChar: Edieresis
Encoding: 203 203 136
Width: 2432
GlyphClass: 2
Flags: HW
AnchorPoint: "Anchor-2" 1286 3702 basechar 0
AnchorPoint: "Anchor-1" 2204 0 basechar 0
AnchorPoint: "Anchor-0" 1290 0 basechar 0
LayerCount: 2
Fore
SplineSet
332 0 m 1
 332 2888 l 1
 2192 2888 l 1
 2192 2384 l 1
 954 2384 l 1
 954 1736 l 1
 1966 1736 l 1
 1966 1246 l 1
 954 1246 l 1
 954 504 l 1
 2204 504 l 1
 2204 0 l 1
 332 0 l 1
552 3412 m 0
 552 3496 580 3566 634 3620 c 0
 688 3674 760 3702 848 3702 c 0
 930 3702 1000 3674 1052 3620 c 0
 1108 3566 1134 3496 1134 3412 c 0
 1134 3332 1106 3264 1052 3208 c 0
 998 3154 930 3126 848 3126 c 0
 762 3126 690 3154 636 3208 c 0
 580 3262 552 3330 552 3412 c 0
1438 3412 m 0
 1438 3494 1466 3564 1520 3620 c 0
 1576 3674 1646 3702 1732 3702 c 0
 1818 3702 1888 3674 1942 3620 c 0
 1996 3564 2024 3494 2024 3412 c 0
 2024 3332 1996 3264 1940 3208 c 0
 1886 3154 1816 3126 1732 3126 c 0
 1646 3126 1576 3154 1520 3208 c 0
 1466 3264 1438 3332 1438 3412 c 0
EndSplineSet
EndChar

StartChar: Igrave
Encoding: 204 204 137
Width: 1286
GlyphClass: 2
Flags: HW
AnchorPoint: "Anchor-2" 426 3706 basechar 0
AnchorPoint: "Anchor-1" 954 0 basechar 0
AnchorPoint: "Anchor-0" 644 0 basechar 0
LayerCount: 2
Fore
SplineSet
332 0 m 1
 332 2888 l 1
 954 2888 l 1
 954 0 l 1
 332 0 l 1
-62 3706 m 1
 516 3706 l 1
 914 3130 l 1
 368 3130 l 1
 -62 3706 l 1
EndSplineSet
Substitution2: "'ss02' Style Set 2 in Latin lookup 26 subtable" Igrave.ss01
Substitution2: "'ss01' Style Set 1 in Latin lookup 25 subtable" Igrave.ss01
Substitution2: "'aalt' Access All Alternates in Latin lookup 0 subtable" Igrave.ss01
EndChar

StartChar: Iacute
Encoding: 205 205 138
Width: 1286
GlyphClass: 2
Flags: HW
AnchorPoint: "Anchor-2" 856 3706 basechar 0
AnchorPoint: "Anchor-1" 954 0 basechar 0
AnchorPoint: "Anchor-0" 644 0 basechar 0
LayerCount: 2
Fore
SplineSet
332 0 m 1
 332 2888 l 1
 954 2888 l 1
 954 0 l 1
 332 0 l 1
368 3130 m 1
 766 3706 l 1
 1344 3706 l 1
 914 3130 l 1
 368 3130 l 1
EndSplineSet
Substitution2: "'ss02' Style Set 2 in Latin lookup 26 subtable" Iacute.ss01
Substitution2: "'ss01' Style Set 1 in Latin lookup 25 subtable" Iacute.ss01
Substitution2: "'aalt' Access All Alternates in Latin lookup 0 subtable" Iacute.ss01
EndChar

StartChar: Icircumflex
Encoding: 206 206 139
Width: 1286
GlyphClass: 2
Flags: HW
AnchorPoint: "Anchor-2" 644 3706 basechar 0
AnchorPoint: "Anchor-1" 954 0 basechar 0
AnchorPoint: "Anchor-0" 644 0 basechar 0
LayerCount: 2
Fore
SplineSet
332 0 m 1
 332 2888 l 1
 954 2888 l 1
 954 0 l 1
 332 0 l 1
-122 3130 m 1
 332 3706 l 1
 950 3706 l 1
 1404 3130 l 1
 902 3130 l 1
 644 3466 l 1
 380 3130 l 1
 -122 3130 l 1
EndSplineSet
Substitution2: "'ss02' Style Set 2 in Latin lookup 26 subtable" Icircumflex.ss01
Substitution2: "'ss01' Style Set 1 in Latin lookup 25 subtable" Icircumflex.ss01
Substitution2: "'aalt' Access All Alternates in Latin lookup 0 subtable" Icircumflex.ss01
EndChar

StartChar: Idieresis
Encoding: 207 207 140
Width: 1286
GlyphClass: 2
Flags: HW
AnchorPoint: "Anchor-2" 644 3702 basechar 0
AnchorPoint: "Anchor-1" 954 0 basechar 0
AnchorPoint: "Anchor-0" 644 0 basechar 0
LayerCount: 2
Fore
SplineSet
332 0 m 1
 332 2888 l 1
 954 2888 l 1
 954 0 l 1
 332 0 l 1
-90 3412 m 0
 -90 3498 -64 3568 -8 3620 c 0
 44 3676 116 3702 204 3702 c 0
 286 3702 356 3674 410 3620 c 0
 464 3566 492 3496 492 3412 c 0
 492 3332 464 3264 408 3208 c 0
 354 3154 286 3126 204 3126 c 0
 118 3126 46 3154 -8 3208 c 0
 -62 3262 -90 3330 -90 3412 c 0
794 3412 m 0
 794 3494 822 3564 878 3620 c 0
 934 3674 1004 3702 1090 3702 c 0
 1176 3702 1244 3674 1300 3620 c 0
 1352 3564 1380 3494 1380 3412 c 0
 1380 3332 1352 3264 1298 3208 c 0
 1244 3154 1174 3126 1090 3126 c 0
 1004 3126 934 3154 878 3210 c 0
 822 3266 794 3334 794 3412 c 0
EndSplineSet
Substitution2: "'ss02' Style Set 2 in Latin lookup 26 subtable" Idieresis.ss01
Substitution2: "'ss01' Style Set 1 in Latin lookup 25 subtable" Idieresis.ss01
Substitution2: "'aalt' Access All Alternates in Latin lookup 0 subtable" Idieresis.ss01
EndChar

StartChar: Eth
Encoding: 208 208 141
Width: 3002
GlyphClass: 2
Flags: HW
AnchorPoint: "Anchor-2" 1438 2888 basechar 0
AnchorPoint: "Anchor-0" 1504 0 basechar 0
LayerCount: 2
Fore
SplineSet
332 0 m 1
 332 1266 l 1
 78 1266 l 1
 78 1630 l 1
 332 1630 l 1
 332 2888 l 1
 1344 2888 l 2
 1636 2888 1892 2832 2110 2718 c 0
 2328 2604 2498 2438 2620 2220 c 0
 2742 2000 2802 1740 2802 1442 c 0
 2802 992 2670 640 2404 384 c 0
 2138 128 1784 0 1340 0 c 2
 332 0 l 1
954 516 m 1
 1274 516 l 2
 1552 516 1764 594 1910 750 c 0
 2056 906 2130 1136 2130 1442 c 0
 2130 1748 2056 1978 1910 2136 c 0
 1764 2294 1552 2372 1274 2372 c 2
 954 2372 l 1
 954 1630 l 1
 1602 1630 l 1
 1602 1266 l 1
 954 1266 l 1
 954 516 l 1
EndSplineSet
EndChar

StartChar: Ntilde
Encoding: 209 209 142
Width: 3116
GlyphClass: 2
Flags: HW
AnchorPoint: "Anchor-2" 1598 3736 basechar 0
AnchorPoint: "Anchor-0" 1560 0 basechar 0
LayerCount: 2
Fore
SplineSet
332 0 m 1
 332 2888 l 1
 1324 2888 l 1
 2188 442 l 1
 2212 442 l 1
 2212 2888 l 1
 2786 2888 l 1
 2786 0 l 1
 1794 0 l 1
 934 2446 l 1
 906 2446 l 1
 906 0 l 1
 332 0 l 1
778 3134 m 1
 778 3316 824 3460 916 3572 c 0
 1008 3680 1130 3736 1282 3736 c 0
 1350 3736 1416 3724 1480 3698 c 0
 1546 3672 1598 3644 1638 3612 c 0
 1678 3582 1720 3554 1764 3528 c 0
 1808 3502 1846 3490 1876 3490 c 0
 1922 3490 1960 3510 1988 3548 c 0
 2014 3588 2028 3642 2028 3710 c 1
 2412 3710 l 1
 2412 3528 2366 3384 2276 3272 c 0
 2184 3164 2062 3108 1908 3108 c 0
 1842 3108 1776 3120 1712 3148 c 0
 1648 3172 1596 3202 1556 3232 c 0
 1516 3264 1474 3292 1430 3320 c 0
 1386 3344 1348 3358 1318 3358 c 0
 1272 3358 1234 3338 1206 3298 c 0
 1178 3258 1164 3204 1164 3134 c 1
 778 3134 l 1
EndSplineSet
EndChar

StartChar: Ograve
Encoding: 210 210 143
Width: 3260
GlyphClass: 2
Flags: HW
AnchorPoint: "Anchor-3" 2106 2888 basechar 0
AnchorPoint: "Anchor-2" 1418 3706 basechar 0
AnchorPoint: "Anchor-1" 2310 0 basechar 0
AnchorPoint: "Anchor-0" 1634 0 basechar 0
LayerCount: 2
Fore
SplineSet
1630 -70 m 0
 1202 -70 856 68 594 344 c 0
 332 622 200 988 200 1442 c 0
 200 1896 332 2264 594 2540 c 0
 856 2820 1202 2958 1630 2958 c 0
 2060 2958 2406 2820 2668 2542 c 0
 2930 2264 3060 1898 3060 1442 c 0
 3060 1216 3026 1010 2956 822 c 0
 2888 634 2792 474 2668 344 c 0
 2546 214 2396 112 2216 40 c 0
 2040 -34 1844 -70 1630 -70 c 0
868 1442 m 0
 868 1144 938 904 1076 722 c 0
 1216 540 1400 450 1630 450 c 0
 1860 450 2044 540 2184 722 c 0
 2322 904 2392 1144 2392 1442 c 0
 2392 1740 2322 1982 2184 2164 c 0
 2044 2346 1860 2438 1630 2438 c 0
 1400 2438 1216 2346 1076 2164 c 0
 938 1982 868 1740 868 1442 c 0
930 3706 m 1
 1508 3706 l 1
 1904 3130 l 1
 1360 3130 l 1
 930 3706 l 1
EndSplineSet
EndChar

StartChar: Oacute
Encoding: 211 211 144
Width: 3260
GlyphClass: 2
Flags: HW
AnchorPoint: "Anchor-3" 2106 2888 basechar 0
AnchorPoint: "Anchor-2" 1848 3706 basechar 0
AnchorPoint: "Anchor-1" 2310 0 basechar 0
AnchorPoint: "Anchor-0" 1634 0 basechar 0
LayerCount: 2
Fore
SplineSet
1630 -70 m 0
 1202 -70 856 68 594 344 c 0
 332 622 200 988 200 1442 c 0
 200 1896 332 2264 594 2540 c 0
 856 2820 1202 2958 1630 2958 c 0
 2060 2958 2406 2820 2668 2542 c 0
 2930 2264 3060 1898 3060 1442 c 0
 3060 1216 3026 1010 2956 822 c 0
 2888 634 2792 474 2668 344 c 0
 2546 214 2396 112 2216 40 c 0
 2040 -34 1844 -70 1630 -70 c 0
868 1442 m 0
 868 1144 938 904 1076 722 c 0
 1216 540 1400 450 1630 450 c 0
 1860 450 2044 540 2184 722 c 0
 2322 904 2392 1144 2392 1442 c 0
 2392 1740 2322 1982 2184 2164 c 0
 2044 2346 1860 2438 1630 2438 c 0
 1400 2438 1216 2346 1076 2164 c 0
 938 1982 868 1740 868 1442 c 0
1360 3130 m 1
 1758 3706 l 1
 2334 3706 l 1
 1904 3130 l 1
 1360 3130 l 1
EndSplineSet
EndChar

StartChar: Ocircumflex
Encoding: 212 212 145
Width: 3260
GlyphClass: 2
Flags: HW
AnchorPoint: "Anchor-3" 2106 2888 basechar 0
AnchorPoint: "Anchor-2" 1634 3706 basechar 0
AnchorPoint: "Anchor-1" 2310 0 basechar 0
AnchorPoint: "Anchor-0" 1634 0 basechar 0
LayerCount: 2
Fore
SplineSet
1630 -70 m 0
 1202 -70 856 68 594 344 c 0
 332 622 200 988 200 1442 c 0
 200 1896 332 2264 594 2540 c 0
 856 2820 1202 2958 1630 2958 c 0
 2060 2958 2406 2820 2668 2542 c 0
 2930 2264 3060 1898 3060 1442 c 0
 3060 1216 3026 1010 2956 822 c 0
 2888 634 2792 474 2668 344 c 0
 2546 214 2396 112 2216 40 c 0
 2040 -34 1844 -70 1630 -70 c 0
868 1442 m 0
 868 1144 938 904 1076 722 c 0
 1216 540 1400 450 1630 450 c 0
 1860 450 2044 540 2184 722 c 0
 2322 904 2392 1144 2392 1442 c 0
 2392 1740 2322 1982 2184 2164 c 0
 2044 2346 1860 2438 1630 2438 c 0
 1400 2438 1216 2346 1076 2164 c 0
 938 1982 868 1740 868 1442 c 0
868 3130 m 1
 1324 3706 l 1
 1942 3706 l 1
 2396 3130 l 1
 1892 3130 l 1
 1634 3466 l 1
 1372 3130 l 1
 868 3130 l 1
EndSplineSet
EndChar

StartChar: Otilde
Encoding: 213 213 146
Width: 3260
GlyphClass: 2
Flags: HW
AnchorPoint: "Anchor-3" 2106 2888 basechar 0
AnchorPoint: "Anchor-2" 1634 3736 basechar 0
AnchorPoint: "Anchor-1" 2310 0 basechar 0
AnchorPoint: "Anchor-0" 1634 0 basechar 0
LayerCount: 2
Fore
SplineSet
1630 -70 m 0
 1202 -70 856 68 594 344 c 0
 332 622 200 988 200 1442 c 0
 200 1896 332 2264 594 2540 c 0
 856 2820 1202 2958 1630 2958 c 0
 2060 2958 2406 2820 2668 2542 c 0
 2930 2264 3060 1898 3060 1442 c 0
 3060 1216 3026 1010 2956 822 c 0
 2888 634 2792 474 2668 344 c 0
 2546 214 2396 112 2216 40 c 0
 2040 -34 1844 -70 1630 -70 c 0
816 3134 m 1
 816 3316 862 3462 952 3572 c 0
 1044 3682 1166 3736 1318 3736 c 0
 1386 3736 1452 3724 1516 3698 c 0
 1582 3672 1634 3644 1674 3612 c 0
 1714 3582 1756 3554 1800 3528 c 0
 1844 3502 1882 3490 1912 3490 c 0
 1958 3490 1996 3510 2024 3548 c 0
 2050 3588 2064 3642 2064 3710 c 1
 2450 3710 l 1
 2450 3528 2404 3384 2312 3272 c 0
 2222 3164 2100 3108 1946 3108 c 0
 1880 3108 1814 3120 1750 3148 c 0
 1686 3172 1634 3202 1594 3232 c 0
 1554 3264 1512 3292 1468 3320 c 0
 1424 3344 1386 3358 1356 3358 c 0
 1308 3358 1270 3338 1242 3298 c 0
 1214 3258 1200 3204 1200 3134 c 1
 816 3134 l 1
868 1442 m 0
 868 1144 938 904 1076 722 c 0
 1216 540 1400 450 1630 450 c 0
 1860 450 2044 540 2184 722 c 0
 2322 904 2392 1144 2392 1442 c 0
 2392 1740 2322 1982 2184 2164 c 0
 2044 2346 1860 2438 1630 2438 c 0
 1400 2438 1216 2346 1076 2164 c 0
 938 1982 868 1740 868 1442 c 0
EndSplineSet
EndChar

StartChar: Odieresis
Encoding: 214 214 147
Width: 3260
GlyphClass: 2
Flags: HW
AnchorPoint: "Anchor-3" 2106 2888 basechar 0
AnchorPoint: "Anchor-2" 1634 3702 basechar 0
AnchorPoint: "Anchor-1" 2310 0 basechar 0
AnchorPoint: "Anchor-0" 1634 0 basechar 0
LayerCount: 2
Fore
SplineSet
1630 -70 m 0
 1202 -70 856 68 594 344 c 0
 332 622 200 988 200 1442 c 0
 200 1896 332 2264 594 2540 c 0
 856 2820 1202 2958 1630 2958 c 0
 2060 2958 2406 2820 2668 2542 c 0
 2930 2264 3060 1898 3060 1442 c 0
 3060 1216 3026 1010 2956 822 c 0
 2888 634 2792 474 2668 344 c 0
 2546 214 2396 112 2216 40 c 0
 2040 -34 1844 -70 1630 -70 c 0
868 1442 m 0
 868 1144 938 904 1076 722 c 0
 1216 540 1400 450 1630 450 c 0
 1860 450 2044 540 2184 722 c 0
 2322 904 2392 1144 2392 1442 c 0
 2392 1740 2322 1982 2184 2164 c 0
 2044 2346 1860 2438 1630 2438 c 0
 1400 2438 1216 2346 1076 2164 c 0
 938 1982 868 1740 868 1442 c 0
902 3412 m 0
 902 3498 928 3568 984 3620 c 0
 1036 3676 1108 3702 1196 3702 c 0
 1278 3702 1348 3674 1400 3620 c 0
 1456 3566 1482 3496 1482 3412 c 0
 1482 3332 1454 3264 1400 3208 c 0
 1346 3154 1278 3126 1196 3126 c 0
 1110 3126 1038 3154 984 3208 c 0
 930 3262 902 3330 902 3412 c 0
1786 3412 m 0
 1786 3494 1814 3564 1868 3620 c 0
 1924 3674 1994 3702 2080 3702 c 0
 2166 3702 2236 3674 2290 3620 c 0
 2344 3564 2372 3494 2372 3412 c 0
 2372 3332 2344 3264 2288 3208 c 0
 2234 3154 2164 3126 2080 3126 c 0
 1994 3126 1924 3154 1868 3208 c 0
 1814 3264 1786 3332 1786 3412 c 0
EndSplineSet
EndChar

StartChar: multiply
Encoding: 215 215 148
Width: 2784
GlyphClass: 2
Flags: HW
LayerCount: 2
Fore
SplineSet
2002 2052 m 1
 2330 1720 l 1
 1724 1110 l 1
 2348 488 l 1
 2016 156 l 1
 1392 778 l 1
 782 168 l 1
 454 500 l 1
 1060 1110 l 1
 438 1732 l 1
 770 2064 l 1
 1392 1442 l 1
 2002 2052 l 1
EndSplineSet
Substitution2: "Single Substitution lookup 34 subtable" multiply.case
Substitution2: "'case' Case-Sensitive Forms in Latin lookup 23 subtable" multiply.case
Substitution2: "'aalt' Access All Alternates in Latin lookup 0 subtable" multiply.case
EndChar

StartChar: Oslash
Encoding: 216 216 149
Width: 3260
GlyphClass: 2
Flags: HW
AnchorPoint: "Anchor-3" 2106 2888 basechar 0
AnchorPoint: "Anchor-2" 1654 2888 basechar 0
AnchorPoint: "Anchor-1" 2310 0 basechar 0
AnchorPoint: "Anchor-0" 1654 0 basechar 0
LayerCount: 2
Fore
SplineSet
1630 -70 m 0
 1304 -70 1022 14 786 180 c 1
 630 0 l 1
 176 0 l 1
 532 418 l 1
 310 688 200 1028 200 1442 c 0
 200 1896 332 2264 594 2540 c 0
 856 2820 1202 2958 1630 2958 c 0
 1956 2958 2238 2874 2478 2708 c 1
 2634 2888 l 1
 3088 2888 l 1
 2732 2470 l 1
 2950 2194 3060 1852 3060 1442 c 0
 3060 1216 3026 1010 2956 822 c 0
 2888 634 2792 474 2668 344 c 0
 2546 214 2396 112 2216 40 c 0
 2040 -34 1844 -70 1630 -70 c 0
868 1442 m 0
 868 1244 900 1072 962 922 c 1
 2098 2256 l 1
 1968 2378 1812 2438 1630 2438 c 0
 1400 2438 1216 2346 1076 2164 c 0
 938 1982 868 1740 868 1442 c 0
1164 626 m 1
 1294 508 1448 450 1630 450 c 0
 1860 450 2044 540 2184 722 c 0
 2322 904 2392 1144 2392 1442 c 0
 2392 1640 2360 1812 2298 1962 c 1
 1164 626 l 1
EndSplineSet
EndChar

StartChar: Ugrave
Encoding: 217 217 150
Width: 3050
GlyphClass: 2
Flags: HW
AnchorPoint: "Anchor-3" 2076 2888 basechar 0
AnchorPoint: "Anchor-2" 1310 3706 basechar 0
AnchorPoint: "Anchor-1" 2162 0 basechar 0
AnchorPoint: "Anchor-0" 1528 0 basechar 0
LayerCount: 2
Fore
SplineSet
1528 -70 m 0
 1158 -70 866 32 652 234 c 0
 438 436 332 706 332 1044 c 2
 332 2888 l 1
 974 2888 l 1
 974 1086 l 2
 974 896 1024 748 1120 644 c 0
 1220 536 1354 484 1528 484 c 0
 1700 484 1834 536 1932 644 c 0
 2028 748 2076 896 2076 1086 c 2
 2076 2888 l 1
 2724 2888 l 1
 2724 1044 l 2
 2724 706 2616 436 2404 234 c 0
 2188 32 1898 -70 1528 -70 c 0
824 3706 m 1
 1400 3706 l 1
 1798 3130 l 1
 1254 3130 l 1
 824 3706 l 1
EndSplineSet
EndChar

StartChar: Uacute
Encoding: 218 218 151
Width: 3050
GlyphClass: 2
Flags: HW
AnchorPoint: "Anchor-3" 2076 2888 basechar 0
AnchorPoint: "Anchor-2" 1740 3706 basechar 0
AnchorPoint: "Anchor-1" 2162 0 basechar 0
AnchorPoint: "Anchor-0" 1528 0 basechar 0
LayerCount: 2
Fore
SplineSet
1528 -70 m 0
 1158 -70 866 32 652 234 c 0
 438 436 332 706 332 1044 c 2
 332 2888 l 1
 974 2888 l 1
 974 1086 l 2
 974 896 1024 748 1120 644 c 0
 1220 536 1354 484 1528 484 c 0
 1700 484 1834 536 1932 644 c 0
 2028 748 2076 896 2076 1086 c 2
 2076 2888 l 1
 2724 2888 l 1
 2724 1044 l 2
 2724 706 2616 436 2404 234 c 0
 2188 32 1898 -70 1528 -70 c 0
1254 3130 m 1
 1650 3706 l 1
 2228 3706 l 1
 1798 3130 l 1
 1254 3130 l 1
EndSplineSet
EndChar

StartChar: Ucircumflex
Encoding: 219 219 152
Width: 3050
GlyphClass: 2
Flags: HW
AnchorPoint: "Anchor-3" 2076 2888 basechar 0
AnchorPoint: "Anchor-2" 1528 3706 basechar 0
AnchorPoint: "Anchor-1" 2162 0 basechar 0
AnchorPoint: "Anchor-0" 1528 0 basechar 0
LayerCount: 2
Fore
SplineSet
1528 -70 m 0
 1158 -70 866 32 652 234 c 0
 438 436 332 706 332 1044 c 2
 332 2888 l 1
 974 2888 l 1
 974 1086 l 2
 974 896 1024 748 1120 644 c 0
 1220 536 1354 484 1528 484 c 0
 1700 484 1834 536 1932 644 c 0
 2028 748 2076 896 2076 1086 c 2
 2076 2888 l 1
 2724 2888 l 1
 2724 1044 l 2
 2724 706 2616 436 2404 234 c 0
 2188 32 1898 -70 1528 -70 c 0
762 3130 m 1
 1216 3706 l 1
 1836 3706 l 1
 2290 3130 l 1
 1786 3130 l 1
 1528 3466 l 1
 1266 3130 l 1
 762 3130 l 1
EndSplineSet
EndChar

StartChar: Udieresis
Encoding: 220 220 153
Width: 3050
GlyphClass: 2
Flags: HW
AnchorPoint: "Anchor-3" 2076 2888 basechar 0
AnchorPoint: "Anchor-2" 1524 3702 basechar 0
AnchorPoint: "Anchor-1" 2162 0 basechar 0
AnchorPoint: "Anchor-0" 1528 0 basechar 0
LayerCount: 2
Fore
SplineSet
1528 -70 m 0
 1158 -70 866 32 652 234 c 0
 438 436 332 706 332 1044 c 2
 332 2888 l 1
 974 2888 l 1
 974 1086 l 2
 974 896 1024 748 1120 644 c 0
 1220 536 1354 484 1528 484 c 0
 1700 484 1834 536 1932 644 c 0
 2028 748 2076 896 2076 1086 c 2
 2076 2888 l 1
 2724 2888 l 1
 2724 1044 l 2
 2724 706 2616 436 2404 234 c 0
 2188 32 1898 -70 1528 -70 c 0
790 3412 m 0
 790 3496 818 3566 872 3620 c 0
 926 3674 998 3702 1086 3702 c 0
 1168 3702 1236 3674 1292 3620 c 0
 1344 3566 1372 3496 1372 3412 c 0
 1372 3332 1344 3264 1290 3208 c 0
 1236 3154 1168 3126 1086 3126 c 0
 1000 3126 928 3154 872 3208 c 0
 818 3262 790 3330 790 3412 c 0
1676 3412 m 0
 1676 3494 1704 3564 1760 3620 c 0
 1814 3674 1884 3702 1970 3702 c 0
 2056 3702 2124 3674 2180 3620 c 0
 2232 3564 2260 3494 2260 3412 c 0
 2260 3332 2232 3264 2178 3208 c 0
 2124 3154 2054 3126 1970 3126 c 0
 1886 3126 1816 3154 1760 3208 c 0
 1704 3264 1676 3332 1676 3412 c 0
EndSplineSet
EndChar

StartChar: Yacute
Encoding: 221 221 154
Width: 2788
GlyphClass: 2
Flags: HW
AnchorPoint: "Anchor-2" 1610 3706 basechar 0
AnchorPoint: "Anchor-0" 1396 0 basechar 0
LayerCount: 2
Fore
SplineSet
1082 0 m 1
 1082 1164 l 1
 66 2888 l 1
 746 2888 l 1
 1384 1668 l 1
 1404 1668 l 1
 2040 2888 l 1
 2724 2888 l 1
 1708 1164 l 1
 1708 0 l 1
 1082 0 l 1
1122 3130 m 1
 1520 3706 l 1
 2098 3706 l 1
 1668 3130 l 1
 1122 3130 l 1
EndSplineSet
EndChar

StartChar: Thorn
Encoding: 222 222 155
Width: 2714
GlyphClass: 2
Flags: HW
LayerCount: 2
Fore
SplineSet
1490 2434 m 2
 1824 2434 2090 2350 2284 2184 c 0
 2478 2018 2576 1790 2576 1504 c 0
 2576 1216 2478 988 2284 824 c 0
 2090 656 1824 574 1490 574 c 2
 954 574 l 1
 954 0 l 1
 332 0 l 1
 332 2888 l 1
 954 2888 l 1
 954 2434 l 1
 1490 2434 l 2
954 1052 m 1
 1400 1052 l 2
 1766 1052 1950 1202 1950 1504 c 0
 1950 1806 1766 1958 1400 1958 c 2
 954 1958 l 1
 954 1052 l 1
EndSplineSet
EndChar

StartChar: germandbls
Encoding: 223 223 156
Width: 2678
GlyphClass: 2
Flags: HW
LayerCount: 2
Fore
SplineSet
1576 -40 m 0
 1462 -40 1338 -26 1208 0 c 1
 1208 472 l 1
 1306 452 1396 442 1478 442 c 0
 1632 442 1752 480 1834 556 c 0
 1916 630 1958 740 1958 884 c 0
 1958 1178 1772 1324 1400 1324 c 2
 1254 1324 l 1
 1254 1766 l 1
 1368 1766 l 2
 1498 1766 1602 1806 1684 1886 c 0
 1766 1966 1806 2070 1806 2200 c 0
 1806 2330 1766 2432 1688 2504 c 0
 1610 2574 1500 2610 1360 2610 c 0
 1038 2610 876 2426 876 2056 c 2
 876 0 l 1
 270 0 l 1
 270 2032 l 2
 270 2350 366 2600 560 2780 c 0
 754 2958 1020 3048 1360 3048 c 0
 1678 3048 1928 2980 2104 2842 c 0
 2284 2704 2372 2518 2372 2282 c 0
 2372 2116 2328 1974 2236 1852 c 0
 2148 1730 2030 1652 1884 1618 c 1
 1884 1586 l 1
 2086 1564 2246 1486 2368 1354 c 0
 2488 1222 2548 1054 2548 848 c 0
 2548 574 2460 356 2286 198 c 0
 2112 40 1874 -40 1576 -40 c 0
EndSplineSet
Substitution2: "Single Substitution lookup 31 subtable" uni1E9E
Substitution2: "'aalt' Access All Alternates in Latin lookup 0 subtable" uni1E9E
EndChar

StartChar: agrave
Encoding: 224 224 157
Width: 2362
GlyphClass: 2
Flags: HW
AnchorPoint: "Anchor-2" 988 2912 basechar 0
AnchorPoint: "Anchor-1" 2236 0 basechar 0
AnchorPoint: "Anchor-0" 1176 0 basechar 0
LayerCount: 2
Fore
SplineSet
1622 0 m 1
 1520 300 l 1
 1490 300 l 1
 1430 188 1348 102 1240 40 c 0
 1136 -20 1012 -50 872 -50 c 0
 658 -50 484 8 356 128 c 0
 224 244 160 400 160 594 c 0
 160 986 432 1216 974 1286 c 2
 1496 1356 l 1
 1496 1482 l 2
 1496 1584 1466 1664 1404 1726 c 0
 1342 1788 1256 1818 1142 1818 c 0
 944 1818 820 1726 770 1540 c 1
 230 1650 l 1
 284 1840 394 1988 564 2090 c 0
 734 2192 934 2244 1168 2244 c 0
 1474 2244 1702 2172 1856 2030 c 0
 2008 1888 2084 1688 2084 1434 c 2
 2084 410 l 1
 2236 0 l 1
 1622 0 l 1
390 3204 m 1
 966 3204 l 1
 1442 2474 l 1
 898 2474 l 1
 390 3204 l 1
738 630 m 0
 738 544 766 476 824 424 c 0
 880 374 960 348 1064 348 c 0
 1194 348 1298 392 1376 480 c 0
 1456 568 1496 690 1496 848 c 2
 1496 1024 l 1
 1122 970 l 2
 992 952 896 914 832 860 c 0
 770 804 738 728 738 630 c 0
EndSplineSet
EndChar

StartChar: aacute
Encoding: 225 225 158
Width: 2362
GlyphClass: 2
Flags: HW
AnchorPoint: "Anchor-2" 1314 2970 basechar 0
AnchorPoint: "Anchor-1" 2236 0 basechar 0
AnchorPoint: "Anchor-0" 1176 0 basechar 0
LayerCount: 2
Fore
SplineSet
1622 0 m 1
 1520 300 l 1
 1490 300 l 1
 1430 188 1348 102 1240 40 c 0
 1136 -20 1012 -50 872 -50 c 0
 658 -50 484 8 356 128 c 0
 224 244 160 400 160 594 c 0
 160 986 432 1216 974 1286 c 2
 1496 1356 l 1
 1496 1482 l 2
 1496 1584 1466 1664 1404 1726 c 0
 1342 1788 1256 1818 1142 1818 c 0
 944 1818 820 1726 770 1540 c 1
 230 1650 l 1
 284 1840 394 1988 564 2090 c 0
 734 2192 934 2244 1168 2244 c 0
 1474 2244 1702 2172 1856 2030 c 0
 2008 1888 2084 1688 2084 1434 c 2
 2084 410 l 1
 2236 0 l 1
 1622 0 l 1
738 630 m 0
 738 544 766 476 824 424 c 0
 880 374 960 348 1064 348 c 0
 1194 348 1298 392 1376 480 c 0
 1456 568 1496 690 1496 848 c 2
 1496 1024 l 1
 1122 970 l 2
 992 952 896 914 832 860 c 0
 770 804 738 728 738 630 c 0
902 2474 m 1
 1376 3204 l 1
 1954 3204 l 1
 1446 2474 l 1
 902 2474 l 1
EndSplineSet
EndChar

StartChar: acircumflex
Encoding: 226 226 159
Width: 2362
GlyphClass: 2
Flags: HW
AnchorPoint: "Anchor-2" 1176 3154 basechar 0
AnchorPoint: "Anchor-1" 2236 0 basechar 0
AnchorPoint: "Anchor-0" 1176 0 basechar 0
LayerCount: 2
Fore
SplineSet
1622 0 m 1
 1520 300 l 1
 1490 300 l 1
 1430 188 1348 102 1240 40 c 0
 1136 -20 1012 -50 872 -50 c 0
 658 -50 484 8 356 128 c 0
 224 244 160 400 160 594 c 0
 160 986 432 1216 974 1286 c 2
 1496 1356 l 1
 1496 1482 l 2
 1496 1584 1466 1664 1404 1726 c 0
 1342 1788 1256 1818 1142 1818 c 0
 944 1818 820 1726 770 1540 c 1
 230 1650 l 1
 284 1840 394 1988 564 2090 c 0
 734 2192 934 2244 1168 2244 c 0
 1474 2244 1702 2172 1856 2030 c 0
 2008 1888 2084 1688 2084 1434 c 2
 2084 410 l 1
 2236 0 l 1
 1622 0 l 1
368 2474 m 1
 864 3204 l 1
 1482 3204 l 1
 1978 2474 l 1
 1474 2474 l 1
 1176 2916 l 1
 872 2474 l 1
 368 2474 l 1
738 630 m 0
 738 544 766 476 824 424 c 0
 880 374 960 348 1064 348 c 0
 1194 348 1298 392 1376 480 c 0
 1456 568 1496 690 1496 848 c 2
 1496 1024 l 1
 1122 970 l 2
 992 952 896 914 832 860 c 0
 770 804 738 728 738 630 c 0
EndSplineSet
EndChar

StartChar: atilde
Encoding: 227 227 160
Width: 2362
GlyphClass: 2
Flags: HW
AnchorPoint: "Anchor-2" 1180 2978 basechar 0
AnchorPoint: "Anchor-1" 2236 0 basechar 0
AnchorPoint: "Anchor-0" 1176 0 basechar 0
LayerCount: 2
Fore
SplineSet
1622 0 m 1
 1520 300 l 1
 1490 300 l 1
 1430 188 1348 102 1240 40 c 0
 1136 -20 1012 -50 872 -50 c 0
 658 -50 484 8 356 128 c 0
 224 244 160 400 160 594 c 0
 160 986 432 1216 974 1286 c 2
 1496 1356 l 1
 1496 1482 l 2
 1496 1584 1466 1664 1404 1726 c 0
 1342 1788 1256 1818 1142 1818 c 0
 944 1818 820 1726 770 1540 c 1
 230 1650 l 1
 284 1840 394 1988 564 2090 c 0
 734 2192 934 2244 1168 2244 c 0
 1474 2244 1702 2172 1856 2030 c 0
 2008 1888 2084 1688 2084 1434 c 2
 2084 410 l 1
 2236 0 l 1
 1622 0 l 1
406 2568 m 1
 406 2764 454 2914 552 3016 c 0
 648 3118 766 3170 906 3170 c 0
 968 3170 1032 3158 1096 3132 c 0
 1160 3106 1212 3078 1254 3048 c 0
 1296 3016 1338 2988 1380 2962 c 0
 1424 2936 1460 2924 1486 2924 c 0
 1526 2924 1562 2942 1592 2980 c 0
 1622 3018 1638 3072 1638 3146 c 1
 2028 3146 l 1
 2028 2950 1980 2800 1884 2696 c 0
 1786 2592 1668 2540 1528 2540 c 0
 1466 2540 1402 2554 1338 2580 c 0
 1274 2606 1220 2636 1178 2668 c 0
 1136 2698 1092 2728 1050 2754 c 0
 1008 2780 972 2794 946 2794 c 0
 906 2794 870 2776 840 2738 c 0
 810 2700 794 2644 794 2568 c 1
 406 2568 l 1
738 630 m 0
 738 544 766 476 824 424 c 0
 880 374 960 348 1064 348 c 0
 1194 348 1298 392 1376 480 c 0
 1456 568 1496 690 1496 848 c 2
 1496 1024 l 1
 1122 970 l 2
 992 952 896 914 832 860 c 0
 770 804 738 728 738 630 c 0
EndSplineSet
EndChar

StartChar: adieresis
Encoding: 228 228 161
Width: 2362
GlyphClass: 2
Flags: HW
AnchorPoint: "Anchor-2" 1176 3100 basechar 0
AnchorPoint: "Anchor-1" 2236 0 basechar 0
AnchorPoint: "Anchor-0" 1176 0 basechar 0
LayerCount: 2
Fore
SplineSet
1622 0 m 1
 1520 300 l 1
 1490 300 l 1
 1430 188 1348 102 1240 40 c 0
 1136 -20 1012 -50 872 -50 c 0
 658 -50 484 8 356 128 c 0
 224 244 160 400 160 594 c 0
 160 986 432 1216 974 1286 c 2
 1496 1356 l 1
 1496 1482 l 2
 1496 1584 1466 1664 1404 1726 c 0
 1342 1788 1256 1818 1142 1818 c 0
 944 1818 820 1726 770 1540 c 1
 230 1650 l 1
 284 1840 394 1988 564 2090 c 0
 734 2192 934 2244 1168 2244 c 0
 1474 2244 1702 2172 1856 2030 c 0
 2008 1888 2084 1688 2084 1434 c 2
 2084 410 l 1
 2236 0 l 1
 1622 0 l 1
402 2818 m 0
 402 2906 430 2978 488 3036 c 0
 546 3094 618 3122 708 3122 c 0
 794 3122 868 3094 924 3036 c 0
 984 2978 1012 2906 1012 2818 c 0
 1012 2734 982 2662 924 2604 c 0
 866 2544 794 2514 708 2514 c 0
 618 2514 546 2544 488 2602 c 0
 430 2660 402 2732 402 2818 c 0
738 630 m 0
 738 544 766 476 824 424 c 0
 880 374 960 348 1064 348 c 0
 1194 348 1298 392 1376 480 c 0
 1456 568 1496 690 1496 848 c 2
 1496 1024 l 1
 1122 970 l 2
 992 952 896 914 832 860 c 0
 770 804 738 728 738 630 c 0
1340 2818 m 0
 1340 2904 1368 2976 1426 3036 c 0
 1484 3092 1556 3122 1646 3122 c 0
 1736 3122 1808 3092 1864 3036 c 0
 1922 2976 1950 2904 1950 2818 c 0
 1950 2734 1922 2662 1864 2604 c 0
 1806 2544 1734 2514 1646 2514 c 0
 1558 2514 1484 2544 1428 2604 c 0
 1368 2662 1340 2734 1340 2818 c 0
EndSplineSet
EndChar

StartChar: aring
Encoding: 229 229 162
Width: 2362
GlyphClass: 2
Flags: HW
AnchorPoint: "Anchor-2" 1180 3376 basechar 0
AnchorPoint: "Anchor-1" 2236 0 basechar 0
AnchorPoint: "Anchor-0" 1176 0 basechar 0
LayerCount: 2
Fore
SplineSet
1622 0 m 1
 1520 300 l 1
 1490 300 l 1
 1430 188 1348 102 1240 40 c 0
 1136 -20 1012 -50 872 -50 c 0
 658 -50 484 8 356 128 c 0
 224 244 160 400 160 594 c 0
 160 986 432 1216 974 1286 c 2
 1496 1356 l 1
 1496 1482 l 2
 1496 1584 1466 1664 1404 1726 c 0
 1342 1788 1256 1818 1142 1818 c 0
 944 1818 820 1726 770 1540 c 1
 230 1650 l 1
 284 1840 394 1988 564 2090 c 0
 734 2192 934 2244 1168 2244 c 0
 1474 2244 1702 2172 1856 2030 c 0
 2008 1888 2084 1688 2084 1434 c 2
 2084 410 l 1
 2236 0 l 1
 1622 0 l 1
630 2974 m 0
 630 3122 682 3242 784 3336 c 0
 888 3428 1020 3474 1180 3474 c 0
 1338 3474 1468 3428 1570 3336 c 0
 1672 3242 1724 3122 1724 2974 c 0
 1724 2824 1672 2704 1572 2612 c 0
 1468 2520 1338 2474 1180 2474 c 0
 1020 2474 888 2520 784 2612 c 0
 682 2702 630 2824 630 2974 c 0
738 630 m 0
 738 544 766 476 824 424 c 0
 880 374 960 348 1064 348 c 0
 1194 348 1298 392 1376 480 c 0
 1456 568 1496 690 1496 848 c 2
 1496 1024 l 1
 1122 970 l 2
 992 952 896 914 832 860 c 0
 770 804 738 728 738 630 c 0
962 2974 m 0
 962 2908 984 2854 1024 2812 c 0
 1068 2772 1118 2752 1180 2752 c 0
 1238 2752 1288 2772 1330 2812 c 0
 1372 2854 1392 2908 1392 2974 c 0
 1392 3040 1372 3092 1330 3132 c 0
 1288 3174 1238 3194 1180 3194 c 0
 1118 3194 1068 3174 1024 3134 c 0
 984 3094 962 3040 962 2974 c 0
EndSplineSet
EndChar

StartChar: ae
Encoding: 230 230 163
Width: 3664
GlyphClass: 2
Flags: HW
AnchorPoint: "Anchor-2" 1848 2196 basechar 0
AnchorPoint: "Anchor-0" 1848 0 basechar 0
LayerCount: 2
Fore
SplineSet
1122 970 m 2
 992 952 896 914 832 860 c 0
 770 804 738 728 738 630 c 0
 738 544 766 476 824 424 c 0
 880 374 960 348 1064 348 c 0
 1194 348 1300 394 1378 484 c 0
 1456 576 1496 698 1496 848 c 2
 1496 1024 l 1
 1122 970 l 2
160 594 m 0
 160 986 432 1216 974 1286 c 2
 1496 1356 l 1
 1496 1466 l 2
 1496 1576 1466 1664 1404 1724 c 0
 1344 1788 1256 1818 1142 1818 c 0
 948 1818 824 1726 770 1540 c 1
 226 1650 l 1
 280 1832 388 1978 550 2084 c 0
 712 2190 904 2244 1130 2244 c 0
 1288 2244 1432 2214 1560 2152 c 0
 1690 2090 1786 2006 1848 1896 c 1
 1872 1896 l 1
 1942 2006 2040 2092 2166 2152 c 0
 2292 2214 2434 2244 2588 2244 c 0
 2878 2244 3108 2148 3280 1960 c 0
 3448 1768 3534 1510 3534 1180 c 0
 3534 1102 3530 1028 3522 958 c 1
 2084 958 l 1
 2094 776 2146 638 2240 544 c 0
 2334 450 2464 402 2626 402 c 0
 2732 402 2822 424 2892 468 c 0
 2962 510 3022 576 3068 664 c 1
 3490 442 l 1
 3324 114 3032 -50 2614 -50 c 0
 2428 -50 2266 -8 2126 76 c 0
 1986 160 1880 272 1810 414 c 1
 1786 414 l 1
 1722 284 1616 174 1468 84 c 0
 1320 -6 1148 -50 954 -50 c 0
 712 -50 518 8 376 124 c 0
 232 240 160 396 160 594 c 0
2084 1328 m 1
 2990 1328 l 1
 2984 1502 2944 1632 2868 1720 c 0
 2794 1808 2690 1852 2556 1852 c 0
 2420 1852 2310 1804 2226 1712 c 0
 2142 1616 2094 1490 2084 1328 c 1
EndSplineSet
EndChar

StartChar: ccedilla
Encoding: 231 231 164
Width: 2244
GlyphClass: 2
Flags: HW
AnchorPoint: "Anchor-2" 1242 2196 basechar 0
AnchorPoint: "Anchor-0" 1242 -868 basechar 0
LayerCount: 2
Fore
SplineSet
1236 -992 m 0
 1098 -992 962 -966 832 -914 c 1
 832 -648 l 1
 954 -678 1060 -692 1150 -692 c 0
 1308 -692 1388 -642 1388 -544 c 0
 1388 -460 1326 -418 1200 -418 c 0
 1126 -418 1058 -424 1000 -434 c 1
 1040 -36 l 1
 772 6 556 128 392 332 c 0
 230 534 148 790 148 1098 c 0
 148 1442 248 1720 448 1928 c 0
 650 2140 908 2244 1224 2244 c 0
 1722 2244 2040 2044 2180 1642 c 1
 1662 1466 l 1
 1584 1688 1442 1798 1232 1798 c 0
 1094 1798 980 1738 892 1616 c 0
 802 1494 758 1322 758 1098 c 0
 758 872 802 700 892 576 c 0
 980 456 1094 394 1236 394 c 0
 1450 394 1594 510 1668 742 c 1
 2184 566 l 1
 2126 390 2030 252 1900 150 c 0
 1770 48 1608 -14 1414 -36 c 1
 1392 -184 l 1
 1418 -184 l 2
 1542 -184 1640 -216 1716 -280 c 0
 1788 -342 1826 -436 1826 -558 c 0
 1826 -698 1776 -806 1676 -880 c 0
 1576 -954 1430 -992 1236 -992 c 0
EndSplineSet
EndChar

StartChar: egrave
Encoding: 232 232 165
Width: 2408
GlyphClass: 2
Flags: HW
AnchorPoint: "Anchor-2" 1036 2912 basechar 0
AnchorPoint: "Anchor-1" 1896 0 basechar 0
AnchorPoint: "Anchor-0" 1208 0 basechar 0
LayerCount: 2
Fore
SplineSet
1262 -50 m 0
 920 -50 648 56 448 270 c 0
 248 484 148 768 148 1122 c 0
 148 1338 196 1532 292 1704 c 0
 386 1874 516 2008 682 2102 c 0
 848 2196 1032 2244 1236 2244 c 0
 1560 2244 1814 2148 1998 1958 c 0
 2182 1768 2274 1508 2274 1180 c 0
 2274 1094 2270 1020 2260 958 c 1
 746 958 l 1
 754 792 806 656 902 556 c 0
 998 452 1132 402 1302 402 c 0
 1528 402 1694 488 1802 660 c 1
 2236 386 l 1
 2062 96 1738 -50 1262 -50 c 0
438 3204 m 1
 1016 3204 l 1
 1490 2474 l 1
 946 2474 l 1
 438 3204 l 1
746 1328 m 1
 1704 1328 l 1
 1698 1500 1656 1630 1574 1720 c 0
 1492 1808 1380 1852 1236 1852 c 0
 1094 1852 980 1808 894 1720 c 0
 808 1634 758 1502 746 1328 c 1
EndSplineSet
EndChar

StartChar: eacute
Encoding: 233 233 166
Width: 2408
GlyphClass: 2
Flags: HW
AnchorPoint: "Anchor-2" 1364 2970 basechar 0
AnchorPoint: "Anchor-1" 1896 0 basechar 0
AnchorPoint: "Anchor-0" 1208 0 basechar 0
LayerCount: 2
Fore
SplineSet
1262 -50 m 0
 920 -50 648 56 448 270 c 0
 248 484 148 768 148 1122 c 0
 148 1338 196 1532 292 1704 c 0
 386 1874 516 2008 682 2102 c 0
 848 2196 1032 2244 1236 2244 c 0
 1560 2244 1814 2148 1998 1958 c 0
 2182 1768 2274 1508 2274 1180 c 0
 2274 1094 2270 1020 2260 958 c 1
 746 958 l 1
 754 792 806 656 902 556 c 0
 998 452 1132 402 1302 402 c 0
 1528 402 1694 488 1802 660 c 1
 2236 386 l 1
 2062 96 1738 -50 1262 -50 c 0
746 1328 m 1
 1704 1328 l 1
 1698 1500 1656 1630 1574 1720 c 0
 1492 1808 1380 1852 1236 1852 c 0
 1094 1852 980 1808 894 1720 c 0
 808 1634 758 1502 746 1328 c 1
950 2474 m 1
 1426 3204 l 1
 2002 3204 l 1
 1496 2474 l 1
 950 2474 l 1
EndSplineSet
EndChar

StartChar: ecircumflex
Encoding: 234 234 167
Width: 2408
GlyphClass: 2
Flags: HW
AnchorPoint: "Anchor-2" 1224 3154 basechar 0
AnchorPoint: "Anchor-1" 1896 0 basechar 0
AnchorPoint: "Anchor-0" 1208 0 basechar 0
LayerCount: 2
Fore
SplineSet
1262 -50 m 0
 920 -50 648 56 448 270 c 0
 248 484 148 768 148 1122 c 0
 148 1338 196 1532 292 1704 c 0
 386 1874 516 2008 682 2102 c 0
 848 2196 1032 2244 1236 2244 c 0
 1560 2244 1814 2148 1998 1958 c 0
 2182 1768 2274 1508 2274 1180 c 0
 2274 1094 2270 1020 2260 958 c 1
 746 958 l 1
 754 792 806 656 902 556 c 0
 998 452 1132 402 1302 402 c 0
 1528 402 1694 488 1802 660 c 1
 2236 386 l 1
 2062 96 1738 -50 1262 -50 c 0
418 2474 m 1
 914 3204 l 1
 1532 3204 l 1
 2028 2474 l 1
 1524 2474 l 1
 1224 2916 l 1
 922 2474 l 1
 418 2474 l 1
746 1328 m 1
 1704 1328 l 1
 1698 1500 1656 1630 1574 1720 c 0
 1492 1808 1380 1852 1236 1852 c 0
 1094 1852 980 1808 894 1720 c 0
 808 1634 758 1502 746 1328 c 1
EndSplineSet
EndChar

StartChar: edieresis
Encoding: 235 235 168
Width: 2408
GlyphClass: 2
Flags: HW
AnchorPoint: "Anchor-2" 1220 3100 basechar 0
AnchorPoint: "Anchor-1" 1896 0 basechar 0
AnchorPoint: "Anchor-0" 1208 0 basechar 0
LayerCount: 2
Fore
SplineSet
1262 -50 m 0
 920 -50 648 56 448 270 c 0
 248 484 148 768 148 1122 c 0
 148 1338 196 1532 292 1704 c 0
 386 1874 516 2008 682 2102 c 0
 848 2196 1032 2244 1236 2244 c 0
 1560 2244 1814 2148 1998 1958 c 0
 2182 1768 2274 1508 2274 1180 c 0
 2274 1094 2270 1020 2260 958 c 1
 746 958 l 1
 754 792 806 656 902 556 c 0
 998 452 1132 402 1302 402 c 0
 1528 402 1694 488 1802 660 c 1
 2236 386 l 1
 2062 96 1738 -50 1262 -50 c 0
446 2818 m 0
 446 2906 476 2978 532 3036 c 0
 592 3094 664 3122 754 3122 c 0
 840 3122 912 3094 970 3036 c 0
 1028 2978 1056 2906 1056 2818 c 0
 1056 2734 1028 2662 968 2604 c 0
 912 2544 840 2514 754 2514 c 0
 664 2514 592 2544 532 2602 c 0
 476 2660 446 2732 446 2818 c 0
746 1328 m 1
 1704 1328 l 1
 1698 1500 1656 1630 1574 1720 c 0
 1492 1808 1380 1852 1236 1852 c 0
 1094 1852 980 1808 894 1720 c 0
 808 1634 758 1502 746 1328 c 1
1384 2818 m 0
 1384 2904 1412 2976 1472 3036 c 0
 1528 3092 1602 3122 1692 3122 c 0
 1782 3122 1854 3092 1910 3036 c 0
 1966 2976 1994 2904 1994 2818 c 0
 1994 2734 1966 2662 1908 2604 c 0
 1852 2544 1780 2514 1692 2514 c 0
 1604 2514 1530 2544 1472 2604 c 0
 1414 2662 1384 2734 1384 2818 c 0
EndSplineSet
EndChar

StartChar: igrave
Encoding: 236 236 169
Width: 1146
GlyphClass: 2
Flags: HW
AnchorPoint: "Anchor-2" 386 2912 basechar 0
AnchorPoint: "Anchor-1" 876 0 basechar 0
AnchorPoint: "Anchor-0" 574 0 basechar 0
LayerCount: 2
Fore
SplineSet
270 0 m 1
 270 2196 l 1
 876 2196 l 1
 876 0 l 1
 270 0 l 1
-212 3204 m 1
 364 3204 l 1
 840 2474 l 1
 294 2474 l 1
 -212 3204 l 1
EndSplineSet
EndChar

StartChar: iacute
Encoding: 237 237 170
Width: 1146
GlyphClass: 2
Flags: HW
AnchorPoint: "Anchor-2" 712 2970 basechar 0
AnchorPoint: "Anchor-1" 876 0 basechar 0
AnchorPoint: "Anchor-0" 574 0 basechar 0
LayerCount: 2
Fore
SplineSet
270 0 m 1
 270 2196 l 1
 876 2196 l 1
 876 0 l 1
 270 0 l 1
300 2474 m 1
 774 3204 l 1
 1352 3204 l 1
 844 2474 l 1
 300 2474 l 1
EndSplineSet
EndChar

StartChar: icircumflex
Encoding: 238 238 171
Width: 1146
GlyphClass: 2
Flags: HW
AnchorPoint: "Anchor-2" 574 3154 basechar 0
AnchorPoint: "Anchor-1" 876 0 basechar 0
AnchorPoint: "Anchor-0" 574 0 basechar 0
LayerCount: 2
Fore
SplineSet
270 0 m 1
 270 2196 l 1
 876 2196 l 1
 876 0 l 1
 270 0 l 1
-234 2474 m 1
 262 3204 l 1
 880 3204 l 1
 1376 2474 l 1
 872 2474 l 1
 574 2916 l 1
 270 2474 l 1
 -234 2474 l 1
EndSplineSet
EndChar

StartChar: idieresis
Encoding: 239 239 172
Width: 1146
GlyphClass: 2
Flags: HW
AnchorPoint: "Anchor-2" 574 3100 basechar 0
AnchorPoint: "Anchor-1" 876 0 basechar 0
AnchorPoint: "Anchor-0" 574 0 basechar 0
LayerCount: 2
Fore
SplineSet
270 0 m 1
 270 2196 l 1
 876 2196 l 1
 876 0 l 1
 270 0 l 1
-200 2818 m 0
 -200 2906 -172 2978 -114 3036 c 0
 -56 3094 16 3122 106 3122 c 0
 192 3122 264 3094 324 3036 c 0
 380 2978 410 2906 410 2818 c 0
 410 2734 380 2662 322 2604 c 0
 264 2544 192 2514 106 2514 c 0
 16 2514 -56 2544 -114 2602 c 0
 -172 2660 -200 2732 -200 2818 c 0
738 2818 m 0
 738 2904 766 2976 824 3036 c 0
 882 3092 954 3122 1044 3122 c 0
 1134 3122 1206 3092 1264 3036 c 0
 1320 2976 1348 2904 1348 2818 c 0
 1348 2734 1320 2662 1262 2604 c 0
 1204 2544 1132 2514 1044 2514 c 0
 956 2514 884 2544 824 2604 c 0
 768 2662 738 2734 738 2818 c 0
EndSplineSet
EndChar

StartChar: eth
Encoding: 240 240 173
Width: 2550
GlyphClass: 2
Flags: HW
AnchorPoint: "Anchor-2" 1278 3010 basechar 0
AnchorPoint: "Anchor-0" 1278 0 basechar 0
LayerCount: 2
Fore
SplineSet
1242 -50 m 0
 916 -50 652 54 450 260 c 0
 248 466 148 738 148 1074 c 0
 148 1388 234 1644 408 1842 c 0
 582 2040 804 2138 1078 2138 c 0
 1354 2138 1566 2008 1716 1748 c 1
 1744 1748 l 1
 1712 1846 1666 1944 1606 2042 c 0
 1546 2140 1450 2268 1318 2428 c 1
 668 2232 l 1
 668 2564 l 1
 1106 2692 l 1
 844 3010 l 1
 1544 3010 l 1
 1668 2854 l 1
 2150 2998 l 1
 2150 2682 l 1
 1872 2596 l 1
 1896 2564 l 2
 2066 2348 2190 2136 2268 1932 c 0
 2346 1724 2384 1504 2384 1266 c 0
 2384 860 2282 538 2078 304 c 0
 1874 68 1596 -50 1242 -50 c 0
770 1048 m 0
 770 850 814 692 904 574 c 0
 992 456 1112 398 1262 398 c 0
 1412 398 1530 456 1616 572 c 0
 1704 690 1748 846 1748 1044 c 0
 1748 1242 1704 1400 1616 1516 c 0
 1528 1634 1408 1692 1258 1692 c 0
 1108 1692 990 1634 902 1516 c 0
 814 1400 770 1244 770 1048 c 0
EndSplineSet
EndChar

StartChar: ntilde
Encoding: 241 241 174
Width: 2494
GlyphClass: 2
Flags: HW
AnchorPoint: "Anchor-2" 1254 2978 basechar 0
AnchorPoint: "Anchor-0" 1250 0 basechar 0
LayerCount: 2
Fore
SplineSet
1638 1340 m 2
 1638 1482 1608 1590 1544 1664 c 0
 1484 1738 1396 1774 1282 1774 c 0
 1156 1774 1058 1732 984 1652 c 0
 912 1568 876 1456 876 1314 c 2
 876 0 l 1
 270 0 l 1
 270 2196 l 1
 828 2196 l 1
 828 1818 l 1
 852 1818 l 1
 908 1948 994 2052 1112 2128 c 0
 1228 2206 1362 2244 1516 2244 c 0
 1744 2244 1922 2176 2052 2040 c 0
 2180 1904 2244 1700 2244 1426 c 2
 2244 0 l 1
 1638 0 l 1
 1638 1340 l 2
480 2568 m 1
 480 2764 528 2914 624 3016 c 0
 720 3118 838 3170 978 3170 c 0
 1040 3170 1104 3158 1168 3132 c 0
 1232 3106 1284 3078 1328 3048 c 0
 1368 3016 1412 2988 1456 2962 c 0
 1498 2936 1534 2924 1560 2924 c 0
 1600 2924 1636 2942 1666 2980 c 0
 1696 3018 1712 3072 1712 3146 c 1
 2102 3146 l 1
 2102 2950 2054 2800 1956 2696 c 0
 1860 2592 1742 2540 1602 2540 c 0
 1540 2540 1476 2554 1412 2580 c 0
 1348 2606 1294 2636 1252 2668 c 0
 1210 2698 1166 2728 1124 2754 c 0
 1082 2780 1046 2794 1020 2794 c 0
 980 2794 944 2776 914 2738 c 0
 884 2700 868 2644 868 2568 c 1
 480 2568 l 1
EndSplineSet
EndChar

StartChar: ograve
Encoding: 242 242 175
Width: 2554
GlyphClass: 2
Flags: HW
AnchorPoint: "Anchor-3" 1672 2196 basechar 0
AnchorPoint: "Anchor-2" 1090 2912 basechar 0
AnchorPoint: "Anchor-1" 1818 0 basechar 0
AnchorPoint: "Anchor-0" 1278 0 basechar 0
LayerCount: 2
Fore
SplineSet
1278 -50 m 0
 938 -50 664 56 458 268 c 0
 252 480 148 756 148 1094 c 0
 148 1436 252 1712 458 1924 c 0
 664 2138 938 2244 1278 2244 c 0
 1618 2244 1892 2138 2098 1924 c 0
 2304 1712 2408 1436 2408 1094 c 0
 2408 756 2304 480 2098 268 c 0
 1892 56 1618 -50 1278 -50 c 0
492 3204 m 1
 1070 3204 l 1
 1544 2474 l 1
 1000 2474 l 1
 492 3204 l 1
770 1094 m 0
 770 860 816 684 904 568 c 0
 996 452 1120 394 1278 394 c 0
 1434 394 1558 452 1648 568 c 0
 1740 686 1786 860 1786 1094 c 0
 1786 1330 1740 1506 1648 1624 c 0
 1558 1740 1434 1798 1278 1798 c 0
 1120 1798 996 1740 904 1624 c 0
 816 1506 770 1330 770 1094 c 0
EndSplineSet
EndChar

StartChar: oacute
Encoding: 243 243 176
Width: 2554
GlyphClass: 2
Flags: HW
AnchorPoint: "Anchor-3" 1672 2196 basechar 0
AnchorPoint: "Anchor-2" 1418 2970 basechar 0
AnchorPoint: "Anchor-1" 1818 0 basechar 0
AnchorPoint: "Anchor-0" 1278 0 basechar 0
LayerCount: 2
Fore
SplineSet
1278 -50 m 0
 938 -50 664 56 458 268 c 0
 252 480 148 756 148 1094 c 0
 148 1436 252 1712 458 1924 c 0
 664 2138 938 2244 1278 2244 c 0
 1618 2244 1892 2138 2098 1924 c 0
 2304 1712 2408 1436 2408 1094 c 0
 2408 756 2304 480 2098 268 c 0
 1892 56 1618 -50 1278 -50 c 0
770 1094 m 0
 770 860 816 684 904 568 c 0
 996 452 1120 394 1278 394 c 0
 1434 394 1558 452 1648 568 c 0
 1740 686 1786 860 1786 1094 c 0
 1786 1330 1740 1506 1648 1624 c 0
 1558 1740 1434 1798 1278 1798 c 0
 1120 1798 996 1740 904 1624 c 0
 816 1506 770 1330 770 1094 c 0
1004 2474 m 1
 1478 3204 l 1
 2056 3204 l 1
 1548 2474 l 1
 1004 2474 l 1
EndSplineSet
EndChar

StartChar: ocircumflex
Encoding: 244 244 177
Width: 2554
GlyphClass: 2
Flags: HW
AnchorPoint: "Anchor-3" 1672 2196 basechar 0
AnchorPoint: "Anchor-2" 1278 3154 basechar 0
AnchorPoint: "Anchor-1" 1818 0 basechar 0
AnchorPoint: "Anchor-0" 1278 0 basechar 0
LayerCount: 2
Fore
SplineSet
1278 -50 m 0
 938 -50 664 56 458 268 c 0
 252 480 148 756 148 1094 c 0
 148 1436 252 1712 458 1924 c 0
 664 2138 938 2244 1278 2244 c 0
 1618 2244 1892 2138 2098 1924 c 0
 2304 1712 2408 1436 2408 1094 c 0
 2408 756 2304 480 2098 268 c 0
 1892 56 1618 -50 1278 -50 c 0
472 2474 m 1
 966 3204 l 1
 1586 3204 l 1
 2080 2474 l 1
 1576 2474 l 1
 1278 2916 l 1
 974 2474 l 1
 472 2474 l 1
770 1094 m 0
 770 860 816 684 904 568 c 0
 996 452 1120 394 1278 394 c 0
 1434 394 1558 452 1648 568 c 0
 1740 686 1786 860 1786 1094 c 0
 1786 1330 1740 1506 1648 1624 c 0
 1558 1740 1434 1798 1278 1798 c 0
 1120 1798 996 1740 904 1624 c 0
 816 1506 770 1330 770 1094 c 0
EndSplineSet
EndChar

StartChar: otilde
Encoding: 245 245 178
Width: 2554
GlyphClass: 2
Flags: HW
AnchorPoint: "Anchor-3" 1672 2196 basechar 0
AnchorPoint: "Anchor-2" 1282 2978 basechar 0
AnchorPoint: "Anchor-1" 1818 0 basechar 0
AnchorPoint: "Anchor-0" 1278 0 basechar 0
LayerCount: 2
Fore
SplineSet
1278 -50 m 0
 938 -50 664 56 458 268 c 0
 252 480 148 756 148 1094 c 0
 148 1436 252 1712 458 1924 c 0
 664 2138 938 2244 1278 2244 c 0
 1618 2244 1892 2138 2098 1924 c 0
 2304 1712 2408 1436 2408 1094 c 0
 2408 756 2304 480 2098 268 c 0
 1892 56 1618 -50 1278 -50 c 0
508 2568 m 1
 508 2764 556 2914 652 3016 c 0
 750 3118 868 3170 1008 3170 c 0
 1070 3170 1134 3158 1198 3132 c 0
 1262 3106 1316 3078 1356 3048 c 0
 1400 3016 1442 2988 1484 2962 c 0
 1528 2936 1564 2924 1590 2924 c 0
 1630 2924 1664 2942 1696 2980 c 0
 1724 3018 1740 3072 1740 3146 c 1
 2130 3146 l 1
 2130 2950 2082 2800 1984 2696 c 0
 1888 2592 1770 2540 1630 2540 c 0
 1568 2540 1504 2554 1440 2580 c 0
 1376 2606 1322 2636 1280 2668 c 0
 1238 2698 1194 2728 1152 2754 c 0
 1110 2780 1074 2794 1048 2794 c 0
 1008 2794 972 2776 944 2738 c 0
 912 2700 898 2644 898 2568 c 1
 508 2568 l 1
770 1094 m 0
 770 860 816 684 904 568 c 0
 996 452 1120 394 1278 394 c 0
 1434 394 1558 452 1648 568 c 0
 1740 686 1786 860 1786 1094 c 0
 1786 1330 1740 1506 1648 1624 c 0
 1558 1740 1434 1798 1278 1798 c 0
 1120 1798 996 1740 904 1624 c 0
 816 1506 770 1330 770 1094 c 0
EndSplineSet
EndChar

StartChar: odieresis
Encoding: 246 246 179
Width: 2554
GlyphClass: 2
Flags: HW
AnchorPoint: "Anchor-3" 1672 2196 basechar 0
AnchorPoint: "Anchor-2" 1278 3100 basechar 0
AnchorPoint: "Anchor-1" 1818 0 basechar 0
AnchorPoint: "Anchor-0" 1278 0 basechar 0
LayerCount: 2
Fore
SplineSet
1278 -50 m 0
 938 -50 664 56 458 268 c 0
 252 480 148 756 148 1094 c 0
 148 1436 252 1712 458 1924 c 0
 664 2138 938 2244 1278 2244 c 0
 1618 2244 1892 2138 2098 1924 c 0
 2304 1712 2408 1436 2408 1094 c 0
 2408 756 2304 480 2098 268 c 0
 1892 56 1618 -50 1278 -50 c 0
504 2818 m 0
 504 2906 532 2978 592 3036 c 0
 648 3094 722 3122 812 3122 c 0
 898 3122 970 3094 1028 3036 c 0
 1086 2978 1114 2906 1114 2818 c 0
 1114 2734 1084 2662 1028 2604 c 0
 968 2544 898 2514 812 2514 c 0
 722 2514 648 2544 592 2602 c 0
 532 2660 504 2732 504 2818 c 0
770 1094 m 0
 770 860 816 684 904 568 c 0
 996 452 1120 394 1278 394 c 0
 1434 394 1558 452 1648 568 c 0
 1740 686 1786 860 1786 1094 c 0
 1786 1330 1740 1506 1648 1624 c 0
 1558 1740 1434 1798 1278 1798 c 0
 1120 1798 996 1740 904 1624 c 0
 816 1506 770 1330 770 1094 c 0
1442 2818 m 0
 1442 2904 1470 2976 1528 3036 c 0
 1586 3092 1658 3122 1748 3122 c 0
 1838 3122 1910 3092 1968 3036 c 0
 2024 2976 2052 2904 2052 2818 c 0
 2052 2734 2024 2662 1966 2604 c 0
 1908 2544 1836 2514 1748 2514 c 0
 1660 2514 1588 2544 1528 2604 c 0
 1472 2662 1442 2734 1442 2818 c 0
EndSplineSet
EndChar

StartChar: divide
Encoding: 247 247 180
Width: 2784
GlyphClass: 2
Flags: HW
LayerCount: 2
Fore
SplineSet
1392 1590 m 0
 1304 1590 1232 1620 1172 1676 c 0
 1116 1736 1086 1808 1086 1896 c 0
 1086 1986 1116 2060 1172 2116 c 0
 1232 2176 1304 2204 1392 2204 c 0
 1480 2204 1554 2176 1612 2116 c 0
 1670 2060 1700 1986 1700 1896 c 0
 1700 1808 1670 1736 1612 1676 c 0
 1554 1620 1480 1590 1392 1590 c 0
446 872 m 1
 446 1352 l 1
 2338 1352 l 1
 2338 872 l 1
 446 872 l 1
1086 328 m 0
 1086 418 1116 490 1172 548 c 0
 1232 606 1304 634 1392 634 c 0
 1480 634 1554 606 1612 548 c 0
 1670 490 1700 418 1700 328 c 0
 1700 240 1670 166 1612 108 c 0
 1554 50 1480 20 1392 20 c 0
 1304 20 1232 50 1172 108 c 0
 1116 166 1086 240 1086 328 c 0
EndSplineSet
Substitution2: "Single Substitution lookup 34 subtable" divide.case
Substitution2: "'case' Case-Sensitive Forms in Latin lookup 23 subtable" divide.case
Substitution2: "'aalt' Access All Alternates in Latin lookup 0 subtable" divide.case
EndChar

StartChar: oslash
Encoding: 248 248 181
Width: 2554
GlyphClass: 2
Flags: HW
AnchorPoint: "Anchor-3" 1672 2196 basechar 0
AnchorPoint: "Anchor-2" 1278 2196 basechar 0
AnchorPoint: "Anchor-1" 1818 0 basechar 0
AnchorPoint: "Anchor-0" 1278 0 basechar 0
LayerCount: 2
Fore
SplineSet
1278 -50 m 0
 1040 -50 830 6 644 118 c 1
 508 -40 l 1
 140 -40 l 1
 426 304 l 1
 240 510 148 774 148 1094 c 0
 148 1436 252 1712 458 1924 c 0
 664 2138 938 2244 1278 2244 c 0
 1516 2244 1726 2188 1908 2076 c 1
 2044 2236 l 1
 2412 2236 l 1
 2126 1896 l 1
 2314 1686 2408 1420 2408 1094 c 0
 2408 756 2304 480 2098 268 c 0
 1892 56 1618 -50 1278 -50 c 0
770 1094 m 0
 770 982 784 872 812 762 c 1
 1586 1692 l 1
 1504 1762 1400 1798 1278 1798 c 0
 1120 1798 996 1740 904 1624 c 0
 816 1506 770 1330 770 1094 c 0
962 504 m 1
 1048 430 1152 394 1278 394 c 0
 1434 394 1558 452 1648 568 c 0
 1740 686 1786 860 1786 1094 c 0
 1786 1218 1770 1332 1740 1434 c 1
 962 504 l 1
EndSplineSet
EndChar

StartChar: ugrave
Encoding: 249 249 182
Width: 2432
GlyphClass: 2
Flags: HW
AnchorPoint: "Anchor-3" 1576 2196 basechar 0
AnchorPoint: "Anchor-2" 1028 2912 basechar 0
AnchorPoint: "Anchor-1" 1740 0 basechar 0
AnchorPoint: "Anchor-0" 1216 0 basechar 0
LayerCount: 2
Fore
SplineSet
1216 -50 m 0
 906 -50 668 24 500 172 c 0
 334 322 250 546 250 848 c 2
 250 2196 l 1
 856 2196 l 1
 856 868 l 2
 856 570 976 422 1216 422 c 0
 1330 422 1418 460 1480 536 c 0
 1544 610 1576 722 1576 868 c 2
 1576 2196 l 1
 2184 2196 l 1
 2184 848 l 2
 2184 550 2098 324 1928 176 c 0
 1756 24 1518 -50 1216 -50 c 0
430 3204 m 1
 1008 3204 l 1
 1482 2474 l 1
 938 2474 l 1
 430 3204 l 1
EndSplineSet
EndChar

StartChar: uacute
Encoding: 250 250 183
Width: 2432
GlyphClass: 2
Flags: HW
AnchorPoint: "Anchor-3" 1576 2196 basechar 0
AnchorPoint: "Anchor-2" 1356 2970 basechar 0
AnchorPoint: "Anchor-1" 1740 0 basechar 0
AnchorPoint: "Anchor-0" 1216 0 basechar 0
LayerCount: 2
Fore
SplineSet
1216 -50 m 0
 906 -50 668 24 500 172 c 0
 334 322 250 546 250 848 c 2
 250 2196 l 1
 856 2196 l 1
 856 868 l 2
 856 570 976 422 1216 422 c 0
 1330 422 1418 460 1480 536 c 0
 1544 610 1576 722 1576 868 c 2
 1576 2196 l 1
 2184 2196 l 1
 2184 848 l 2
 2184 550 2098 324 1928 176 c 0
 1756 24 1518 -50 1216 -50 c 0
942 2474 m 1
 1418 3204 l 1
 1994 3204 l 1
 1486 2474 l 1
 942 2474 l 1
EndSplineSet
EndChar

StartChar: ucircumflex
Encoding: 251 251 184
Width: 2432
GlyphClass: 2
Flags: HW
AnchorPoint: "Anchor-3" 1576 2196 basechar 0
AnchorPoint: "Anchor-2" 1216 3154 basechar 0
AnchorPoint: "Anchor-1" 1740 0 basechar 0
AnchorPoint: "Anchor-0" 1216 0 basechar 0
LayerCount: 2
Fore
SplineSet
1216 -50 m 0
 906 -50 668 24 500 172 c 0
 334 322 250 546 250 848 c 2
 250 2196 l 1
 856 2196 l 1
 856 868 l 2
 856 570 976 422 1216 422 c 0
 1330 422 1418 460 1480 536 c 0
 1544 610 1576 722 1576 868 c 2
 1576 2196 l 1
 2184 2196 l 1
 2184 848 l 2
 2184 550 2098 324 1928 176 c 0
 1756 24 1518 -50 1216 -50 c 0
410 2474 m 1
 906 3204 l 1
 1524 3204 l 1
 2020 2474 l 1
 1516 2474 l 1
 1216 2916 l 1
 914 2474 l 1
 410 2474 l 1
EndSplineSet
EndChar

StartChar: udieresis
Encoding: 252 252 185
Width: 2432
GlyphClass: 2
Flags: HW
AnchorPoint: "Anchor-3" 1576 2196 basechar 0
AnchorPoint: "Anchor-2" 1212 3100 basechar 0
AnchorPoint: "Anchor-1" 1740 0 basechar 0
AnchorPoint: "Anchor-0" 1216 0 basechar 0
LayerCount: 2
Fore
SplineSet
1216 -50 m 0
 906 -50 668 24 500 172 c 0
 334 322 250 546 250 848 c 2
 250 2196 l 1
 856 2196 l 1
 856 868 l 2
 856 570 976 422 1216 422 c 0
 1330 422 1418 460 1480 536 c 0
 1544 610 1576 722 1576 868 c 2
 1576 2196 l 1
 2184 2196 l 1
 2184 848 l 2
 2184 550 2098 324 1928 176 c 0
 1756 24 1518 -50 1216 -50 c 0
438 2818 m 0
 438 2906 468 2978 524 3036 c 0
 584 3094 656 3122 746 3122 c 0
 832 3122 904 3094 962 3036 c 0
 1020 2978 1048 2906 1048 2818 c 0
 1048 2734 1020 2662 960 2604 c 0
 904 2544 832 2514 746 2514 c 0
 656 2514 584 2544 524 2602 c 0
 468 2660 438 2732 438 2818 c 0
1376 2818 m 0
 1376 2904 1404 2976 1464 3036 c 0
 1520 3092 1594 3122 1684 3122 c 0
 1774 3122 1846 3092 1902 3036 c 0
 1958 2976 1986 2904 1986 2818 c 0
 1986 2734 1958 2662 1900 2604 c 0
 1844 2544 1772 2514 1684 2514 c 0
 1596 2514 1522 2544 1464 2604 c 0
 1406 2662 1376 2734 1376 2818 c 0
EndSplineSet
EndChar

StartChar: yacute
Encoding: 253 253 186
Width: 2382
GlyphClass: 2
Flags: HW
AnchorPoint: "Anchor-2" 1310 2970 basechar 0
AnchorPoint: "Anchor-0" 1900 0 basechar 0
LayerCount: 2
Fore
SplineSet
672 -820 m 1
 918 -148 l 1
 58 2196 l 1
 696 2196 l 1
 1196 484 l 1
 1228 484 l 1
 1688 2196 l 1
 2326 2196 l 1
 1266 -820 l 1
 672 -820 l 1
898 2474 m 1
 1372 3204 l 1
 1950 3204 l 1
 1442 2474 l 1
 898 2474 l 1
EndSplineSet
EndChar

StartChar: thorn
Encoding: 254 254 187
Width: 2592
GlyphClass: 2
Flags: HW
AnchorPoint: "Anchor-2" 1294 2196 basechar 0
AnchorPoint: "Anchor-0" 1294 0 basechar 0
LayerCount: 2
Fore
SplineSet
1540 -50 m 0
 1390 -50 1260 -12 1148 62 c 0
 1038 136 956 234 902 356 c 1
 876 356 l 1
 876 -820 l 1
 270 -820 l 1
 270 3010 l 1
 876 3010 l 1
 876 1836 l 1
 902 1836 l 1
 956 1958 1038 2056 1148 2132 c 0
 1260 2206 1390 2244 1540 2244 c 0
 1808 2244 2026 2140 2192 1932 c 0
 2358 1726 2442 1448 2442 1098 c 0
 2442 748 2358 470 2192 262 c 0
 2026 54 1808 -50 1540 -50 c 0
844 1098 m 0
 844 884 888 712 976 584 c 0
 1062 458 1182 394 1336 394 c 0
 1488 394 1606 456 1692 584 c 0
 1776 708 1818 880 1818 1098 c 0
 1818 1316 1776 1486 1692 1612 c 0
 1606 1736 1488 1798 1336 1798 c 0
 1184 1798 1064 1734 976 1608 c 0
 888 1482 844 1312 844 1098 c 0
EndSplineSet
EndChar

StartChar: ydieresis
Encoding: 255 255 188
Width: 2382
GlyphClass: 2
Flags: HW
AnchorPoint: "Anchor-2" 1168 3100 basechar 0
AnchorPoint: "Anchor-0" 1900 0 basechar 0
LayerCount: 2
Fore
SplineSet
672 -820 m 1
 918 -148 l 1
 58 2196 l 1
 696 2196 l 1
 1196 484 l 1
 1228 484 l 1
 1688 2196 l 1
 2326 2196 l 1
 1266 -820 l 1
 672 -820 l 1
394 2818 m 0
 394 2906 422 2978 480 3036 c 0
 538 3094 610 3122 700 3122 c 0
 786 3122 860 3094 916 3036 c 0
 976 2978 1004 2906 1004 2818 c 0
 1004 2734 974 2662 916 2604 c 0
 858 2544 786 2514 700 2514 c 0
 610 2514 538 2544 480 2602 c 0
 422 2660 394 2732 394 2818 c 0
1332 2818 m 0
 1332 2904 1360 2976 1418 3036 c 0
 1476 3092 1548 3122 1638 3122 c 0
 1728 3122 1800 3092 1856 3036 c 0
 1914 2976 1942 2904 1942 2818 c 0
 1942 2734 1914 2662 1856 2604 c 0
 1798 2544 1726 2514 1638 2514 c 0
 1550 2514 1476 2544 1420 2604 c 0
 1360 2662 1332 2734 1332 2818 c 0
EndSplineSet
EndChar

StartChar: Amacron
Encoding: 256 256 189
Width: 2894
GlyphClass: 2
Flags: HW
AnchorPoint: "Anchor-2" 1450 3604 basechar 0
AnchorPoint: "Anchor-1" 2806 0 basechar 0
AnchorPoint: "Anchor-0" 1466 0 basechar 0
LayerCount: 2
Fore
SplineSet
90 0 m 1
 1004 2888 l 1
 1888 2888 l 1
 2806 0 l 1
 2162 0 l 1
 1974 684 l 1
 926 684 l 1
 734 0 l 1
 90 0 l 1
782 3212 m 1
 782 3604 l 1
 2114 3604 l 1
 2114 3212 l 1
 782 3212 l 1
1060 1168 m 1
 1840 1168 l 1
 1462 2520 l 1
 1438 2520 l 1
 1060 1168 l 1
EndSplineSet
EndChar

StartChar: amacron
Encoding: 257 257 190
Width: 2362
GlyphClass: 2
Flags: HW
AnchorPoint: "Anchor-2" 1176 3006 basechar 0
AnchorPoint: "Anchor-1" 2236 0 basechar 0
AnchorPoint: "Anchor-0" 1176 0 basechar 0
LayerCount: 2
Fore
SplineSet
1622 0 m 1
 1520 300 l 1
 1490 300 l 1
 1430 188 1348 102 1240 40 c 0
 1136 -20 1012 -50 872 -50 c 0
 658 -50 484 8 356 128 c 0
 224 244 160 400 160 594 c 0
 160 986 432 1216 974 1286 c 2
 1496 1356 l 1
 1496 1482 l 2
 1496 1584 1466 1664 1404 1726 c 0
 1342 1788 1256 1818 1142 1818 c 0
 944 1818 820 1726 770 1540 c 1
 230 1650 l 1
 284 1840 394 1988 564 2090 c 0
 734 2192 934 2244 1168 2244 c 0
 1474 2244 1702 2172 1856 2030 c 0
 2008 1888 2084 1688 2084 1434 c 2
 2084 410 l 1
 2236 0 l 1
 1622 0 l 1
504 2600 m 1
 504 2990 l 1
 1848 2990 l 1
 1848 2600 l 1
 504 2600 l 1
738 630 m 0
 738 544 766 476 824 424 c 0
 880 374 960 348 1064 348 c 0
 1194 348 1298 392 1376 480 c 0
 1456 568 1496 690 1496 848 c 2
 1496 1024 l 1
 1122 970 l 2
 992 952 896 914 832 860 c 0
 770 804 738 728 738 630 c 0
EndSplineSet
EndChar

StartChar: Abreve
Encoding: 258 258 191
Width: 2894
GlyphClass: 2
Flags: HW
AnchorPoint: "Anchor-2" 1450 3706 basechar 0
AnchorPoint: "Anchor-1" 2806 0 basechar 0
AnchorPoint: "Anchor-0" 1466 0 basechar 0
LayerCount: 2
Fore
SplineSet
90 0 m 1
 1004 2888 l 1
 1888 2888 l 1
 2806 0 l 1
 2162 0 l 1
 1974 684 l 1
 926 684 l 1
 734 0 l 1
 90 0 l 1
730 3706 m 1
 1160 3706 l 1
 1160 3628 1184 3566 1236 3524 c 0
 1284 3480 1356 3458 1450 3458 c 0
 1542 3458 1614 3480 1664 3524 c 0
 1714 3566 1740 3628 1740 3706 c 1
 2170 3706 l 1
 2170 3532 2106 3394 1976 3288 c 0
 1846 3182 1672 3130 1450 3130 c 0
 1228 3130 1052 3182 924 3288 c 0
 794 3394 730 3532 730 3706 c 1
1060 1168 m 1
 1840 1168 l 1
 1462 2520 l 1
 1438 2520 l 1
 1060 1168 l 1
EndSplineSet
EndChar

StartChar: abreve
Encoding: 259 259 192
Width: 2362
GlyphClass: 2
Flags: HW
AnchorPoint: "Anchor-2" 1176 2924 basechar 0
AnchorPoint: "Anchor-1" 2236 0 basechar 0
AnchorPoint: "Anchor-0" 1176 0 basechar 0
LayerCount: 2
Fore
SplineSet
1622 0 m 1
 1520 300 l 1
 1490 300 l 1
 1430 188 1348 102 1240 40 c 0
 1136 -20 1012 -50 872 -50 c 0
 658 -50 484 8 356 128 c 0
 224 244 160 400 160 594 c 0
 160 986 432 1216 974 1286 c 2
 1496 1356 l 1
 1496 1482 l 2
 1496 1584 1466 1664 1404 1726 c 0
 1342 1788 1256 1818 1142 1818 c 0
 944 1818 820 1726 770 1540 c 1
 230 1650 l 1
 284 1840 394 1988 564 2090 c 0
 734 2192 934 2244 1168 2244 c 0
 1474 2244 1702 2172 1856 2030 c 0
 2008 1888 2084 1688 2084 1434 c 2
 2084 410 l 1
 2236 0 l 1
 1622 0 l 1
410 3204 m 1
 840 3204 l 1
 840 3092 868 3004 928 2940 c 0
 984 2874 1066 2842 1172 2842 c 0
 1276 2842 1358 2874 1416 2940 c 0
 1474 3004 1504 3092 1504 3204 c 1
 1934 3204 l 1
 1934 2986 1866 2808 1728 2676 c 0
 1590 2540 1406 2474 1172 2474 c 0
 938 2474 752 2540 616 2674 c 0
 478 2808 410 2984 410 3204 c 1
738 630 m 0
 738 544 766 476 824 424 c 0
 880 374 960 348 1064 348 c 0
 1194 348 1298 392 1376 480 c 0
 1456 568 1496 690 1496 848 c 2
 1496 1024 l 1
 1122 970 l 2
 992 952 896 914 832 860 c 0
 770 804 738 728 738 630 c 0
EndSplineSet
EndChar

StartChar: Aogonek
Encoding: 260 260 193
Width: 2894
GlyphClass: 2
Flags: HW
AnchorPoint: "Anchor-2" 1446 2888 basechar 0
AnchorPoint: "Anchor-1" 2806 0 basechar 0
AnchorPoint: "Anchor-0" 1466 0 basechar 0
LayerCount: 2
Fore
SplineSet
90 0 m 1
 1004 2888 l 1
 1888 2888 l 1
 2806 0 l 1
 2724 -86 l 2
 2634 -176 2574 -248 2540 -304 c 0
 2506 -356 2490 -412 2490 -466 c 0
 2490 -512 2506 -552 2538 -580 c 0
 2570 -612 2612 -626 2662 -626 c 0
 2706 -626 2746 -622 2782 -614 c 1
 2782 -938 l 1
 2676 -974 2568 -992 2454 -992 c 0
 2296 -992 2174 -956 2084 -880 c 0
 1994 -808 1950 -704 1950 -574 c 0
 1950 -476 1980 -380 2040 -290 c 0
 2102 -200 2196 -104 2326 -4 c 1
 2330 0 l 1
 2162 0 l 1
 1974 684 l 1
 926 684 l 1
 734 0 l 1
 90 0 l 1
1060 1168 m 1
 1840 1168 l 1
 1462 2520 l 1
 1438 2520 l 1
 1060 1168 l 1
EndSplineSet
EndChar

StartChar: aogonek
Encoding: 261 261 194
Width: 2362
GlyphClass: 2
Flags: HW
AnchorPoint: "Anchor-2" 1176 2196 basechar 0
AnchorPoint: "Anchor-1" 2236 0 basechar 0
AnchorPoint: "Anchor-0" 1176 0 basechar 0
LayerCount: 2
Fore
SplineSet
1622 0 m 1
 1520 300 l 1
 1490 300 l 1
 1430 188 1348 102 1240 40 c 0
 1136 -20 1012 -50 872 -50 c 0
 658 -50 484 8 356 128 c 0
 224 244 160 400 160 594 c 0
 160 986 432 1216 974 1286 c 2
 1496 1356 l 1
 1496 1482 l 2
 1496 1584 1466 1664 1404 1726 c 0
 1342 1788 1256 1818 1142 1818 c 0
 944 1818 820 1726 770 1540 c 1
 230 1650 l 1
 284 1840 394 1988 564 2090 c 0
 734 2192 934 2244 1168 2244 c 0
 1474 2244 1702 2172 1856 2030 c 0
 2008 1888 2084 1688 2084 1434 c 2
 2084 410 l 1
 2236 0 l 1
 2240 0 l 1
 2158 -86 l 2
 2070 -176 2010 -248 1976 -304 c 0
 1942 -356 1926 -412 1926 -466 c 0
 1926 -512 1942 -552 1974 -580 c 0
 2006 -612 2048 -626 2098 -626 c 0
 2140 -626 2180 -622 2216 -614 c 1
 2216 -938 l 1
 2110 -974 2002 -992 1888 -992 c 0
 1730 -992 1608 -956 1518 -880 c 0
 1428 -808 1384 -704 1384 -574 c 0
 1384 -476 1414 -380 1476 -290 c 0
 1538 -200 1632 -104 1762 -4 c 1
 1766 0 l 1
 1622 0 l 1
738 630 m 0
 738 544 766 476 824 424 c 0
 880 374 960 348 1064 348 c 0
 1194 348 1298 392 1376 480 c 0
 1456 568 1496 690 1496 848 c 2
 1496 1024 l 1
 1122 970 l 2
 992 952 896 914 832 860 c 0
 770 804 738 728 738 630 c 0
EndSplineSet
EndChar

StartChar: Cacute
Encoding: 262 262 195
Width: 2956
GlyphClass: 2
Flags: HW
AnchorPoint: "Anchor-2" 1830 3706 basechar 0
AnchorPoint: "Anchor-0" 1642 0 basechar 0
LayerCount: 2
Fore
SplineSet
1586 -70 m 0
 1314 -70 1072 -8 864 118 c 0
 652 244 490 420 374 650 c 0
 258 880 200 1144 200 1442 c 0
 200 1896 328 2262 584 2540 c 0
 838 2818 1172 2958 1582 2958 c 0
 1894 2958 2154 2890 2360 2756 c 0
 2568 2620 2716 2424 2802 2166 c 1
 2212 1962 l 1
 2108 2280 1894 2438 1568 2438 c 0
 1350 2438 1180 2348 1056 2172 c 0
 930 1992 868 1750 868 1442 c 0
 868 1134 930 892 1056 716 c 0
 1182 538 1354 450 1572 450 c 0
 1902 450 2118 616 2220 946 c 1
 2814 778 l 1
 2732 500 2586 290 2380 146 c 0
 2174 2 1908 -70 1586 -70 c 0
1344 3130 m 1
 1740 3706 l 1
 2318 3706 l 1
 1888 3130 l 1
 1344 3130 l 1
EndSplineSet
EndChar

StartChar: cacute
Encoding: 263 263 196
Width: 2244
GlyphClass: 2
Flags: HW
AnchorPoint: "Anchor-2" 1380 2970 basechar 0
AnchorPoint: "Anchor-0" 1236 0 basechar 0
LayerCount: 2
Fore
SplineSet
1228 -50 m 0
 912 -50 652 56 452 266 c 0
 248 476 148 754 148 1098 c 0
 148 1442 248 1720 448 1928 c 0
 650 2140 908 2244 1224 2244 c 0
 1722 2244 2040 2044 2180 1642 c 1
 1662 1466 l 1
 1584 1688 1442 1798 1232 1798 c 0
 1094 1798 980 1738 892 1616 c 0
 802 1494 758 1322 758 1098 c 0
 758 872 802 700 892 576 c 0
 980 456 1094 394 1236 394 c 0
 1450 394 1594 510 1668 742 c 1
 2184 566 l 1
 2116 364 2000 210 1840 106 c 0
 1676 2 1474 -50 1228 -50 c 0
966 2474 m 1
 1442 3204 l 1
 2020 3204 l 1
 1512 2474 l 1
 966 2474 l 1
EndSplineSet
EndChar

StartChar: Ccircumflex
Encoding: 264 264 197
Width: 2956
GlyphClass: 2
Flags: HW
AnchorPoint: "Anchor-2" 1622 3706 basechar 0
AnchorPoint: "Anchor-0" 1642 0 basechar 0
LayerCount: 2
Fore
SplineSet
1586 -70 m 0
 1314 -70 1072 -8 864 118 c 0
 652 244 490 420 374 650 c 0
 258 880 200 1144 200 1442 c 0
 200 1896 328 2262 584 2540 c 0
 838 2818 1172 2958 1582 2958 c 0
 1894 2958 2154 2890 2360 2756 c 0
 2568 2620 2716 2424 2802 2166 c 1
 2212 1962 l 1
 2108 2280 1894 2438 1568 2438 c 0
 1350 2438 1180 2348 1056 2172 c 0
 930 1992 868 1750 868 1442 c 0
 868 1134 930 892 1056 716 c 0
 1182 538 1354 450 1572 450 c 0
 1902 450 2118 616 2220 946 c 1
 2814 778 l 1
 2732 500 2586 290 2380 146 c 0
 2174 2 1908 -70 1586 -70 c 0
856 3130 m 1
 1310 3706 l 1
 1930 3706 l 1
 2384 3130 l 1
 1880 3130 l 1
 1622 3466 l 1
 1360 3130 l 1
 856 3130 l 1
EndSplineSet
EndChar

StartChar: ccircumflex
Encoding: 265 265 198
Width: 2244
GlyphClass: 2
Flags: HW
AnchorPoint: "Anchor-2" 1242 3154 basechar 0
AnchorPoint: "Anchor-0" 1236 0 basechar 0
LayerCount: 2
Fore
SplineSet
1228 -50 m 0
 912 -50 652 56 452 266 c 0
 248 476 148 754 148 1098 c 0
 148 1442 248 1720 448 1928 c 0
 650 2140 908 2244 1224 2244 c 0
 1722 2244 2040 2044 2180 1642 c 1
 1662 1466 l 1
 1584 1688 1442 1798 1232 1798 c 0
 1094 1798 980 1738 892 1616 c 0
 802 1494 758 1322 758 1098 c 0
 758 872 802 700 892 576 c 0
 980 456 1094 394 1236 394 c 0
 1450 394 1594 510 1668 742 c 1
 2184 566 l 1
 2116 364 2000 210 1840 106 c 0
 1676 2 1474 -50 1228 -50 c 0
434 2474 m 1
 930 3204 l 1
 1548 3204 l 1
 2044 2474 l 1
 1540 2474 l 1
 1242 2916 l 1
 938 2474 l 1
 434 2474 l 1
EndSplineSet
EndChar

StartChar: Cdotaccent
Encoding: 266 266 199
Width: 2956
GlyphClass: 2
Flags: HW
AnchorPoint: "Anchor-2" 1618 3834 basechar 0
AnchorPoint: "Anchor-0" 1642 0 basechar 0
LayerCount: 2
Fore
SplineSet
1586 -70 m 0
 1314 -70 1072 -8 864 118 c 0
 652 244 490 420 374 650 c 0
 258 880 200 1144 200 1442 c 0
 200 1896 328 2262 584 2540 c 0
 838 2818 1172 2958 1582 2958 c 0
 1894 2958 2154 2890 2360 2756 c 0
 2568 2620 2716 2424 2802 2166 c 1
 2212 1962 l 1
 2108 2280 1894 2438 1568 2438 c 0
 1350 2438 1180 2348 1056 2172 c 0
 930 1992 868 1750 868 1442 c 0
 868 1134 930 892 1056 716 c 0
 1182 538 1354 450 1572 450 c 0
 1902 450 2118 616 2220 946 c 1
 2814 778 l 1
 2732 500 2586 290 2380 146 c 0
 2174 2 1908 -70 1586 -70 c 0
1286 3452 m 0
 1286 3542 1318 3620 1380 3684 c 0
 1444 3748 1524 3780 1618 3780 c 0
 1714 3780 1792 3748 1854 3684 c 0
 1916 3622 1946 3544 1946 3452 c 0
 1946 3358 1916 3280 1856 3220 c 0
 1794 3156 1716 3126 1618 3126 c 0
 1522 3126 1442 3158 1380 3220 c 0
 1318 3282 1286 3360 1286 3452 c 0
EndSplineSet
EndChar

StartChar: cdotaccent
Encoding: 267 267 200
Width: 2244
GlyphClass: 2
Flags: HW
AnchorPoint: "Anchor-2" 1242 3158 basechar 0
AnchorPoint: "Anchor-0" 1236 0 basechar 0
LayerCount: 2
Fore
SplineSet
1228 -50 m 0
 912 -50 652 56 452 266 c 0
 248 476 148 754 148 1098 c 0
 148 1442 248 1720 448 1928 c 0
 650 2140 908 2244 1224 2244 c 0
 1722 2244 2040 2044 2180 1642 c 1
 1662 1466 l 1
 1584 1688 1442 1798 1232 1798 c 0
 1094 1798 980 1738 892 1616 c 0
 802 1494 758 1322 758 1098 c 0
 758 872 802 700 892 576 c 0
 980 456 1094 394 1236 394 c 0
 1450 394 1594 510 1668 742 c 1
 2184 566 l 1
 2116 364 2000 210 1840 106 c 0
 1676 2 1474 -50 1228 -50 c 0
910 2826 m 0
 910 2922 940 3002 1004 3064 c 0
 1064 3126 1144 3158 1242 3158 c 0
 1340 3158 1418 3126 1480 3064 c 0
 1542 3002 1572 2922 1572 2826 c 0
 1572 2730 1542 2650 1480 2588 c 0
 1418 2526 1340 2494 1242 2494 c 0
 1144 2494 1064 2526 1004 2588 c 0
 940 2650 910 2730 910 2826 c 0
EndSplineSet
EndChar

StartChar: Ccaron
Encoding: 268 268 201
Width: 2956
GlyphClass: 2
Flags: HW
AnchorPoint: "Anchor-2" 1622 3706 basechar 0
AnchorPoint: "Anchor-0" 1642 0 basechar 0
LayerCount: 2
Fore
SplineSet
1586 -70 m 0
 1314 -70 1072 -8 864 118 c 0
 652 244 490 420 374 650 c 0
 258 880 200 1144 200 1442 c 0
 200 1896 328 2262 584 2540 c 0
 838 2818 1172 2958 1582 2958 c 0
 1894 2958 2154 2890 2360 2756 c 0
 2568 2620 2716 2424 2802 2166 c 1
 2212 1962 l 1
 2108 2280 1894 2438 1568 2438 c 0
 1350 2438 1180 2348 1056 2172 c 0
 930 1992 868 1750 868 1442 c 0
 868 1134 930 892 1056 716 c 0
 1182 538 1354 450 1572 450 c 0
 1902 450 2118 616 2220 946 c 1
 2814 778 l 1
 2732 500 2586 290 2380 146 c 0
 2174 2 1908 -70 1586 -70 c 0
856 3706 m 1
 1360 3706 l 1
 1622 3372 l 1
 1880 3706 l 1
 2384 3706 l 1
 1930 3130 l 1
 1310 3130 l 1
 856 3706 l 1
EndSplineSet
EndChar

StartChar: ccaron
Encoding: 269 269 202
Width: 2244
GlyphClass: 2
Flags: HW
AnchorPoint: "Anchor-2" 1242 3204 basechar 0
AnchorPoint: "Anchor-0" 1236 0 basechar 0
LayerCount: 2
Fore
SplineSet
1228 -50 m 0
 912 -50 652 56 452 266 c 0
 248 476 148 754 148 1098 c 0
 148 1442 248 1720 448 1928 c 0
 650 2140 908 2244 1224 2244 c 0
 1722 2244 2040 2044 2180 1642 c 1
 1662 1466 l 1
 1584 1688 1442 1798 1232 1798 c 0
 1094 1798 980 1738 892 1616 c 0
 802 1494 758 1322 758 1098 c 0
 758 872 802 700 892 576 c 0
 980 456 1094 394 1236 394 c 0
 1450 394 1594 510 1668 742 c 1
 2184 566 l 1
 2116 364 2000 210 1840 106 c 0
 1676 2 1474 -50 1228 -50 c 0
434 3204 m 1
 938 3204 l 1
 1242 2760 l 1
 1540 3204 l 1
 2044 3204 l 1
 1548 2474 l 1
 930 2474 l 1
 434 3204 l 1
EndSplineSet
EndChar

StartChar: Dcaron
Encoding: 270 270 203
Width: 3002
GlyphClass: 2
Flags: HW
AnchorPoint: "Anchor-2" 1438 3706 basechar 0
AnchorPoint: "Anchor-0" 1504 0 basechar 0
LayerCount: 2
Fore
SplineSet
332 0 m 1
 332 2888 l 1
 1344 2888 l 2
 1636 2888 1892 2832 2110 2718 c 0
 2328 2604 2498 2438 2620 2220 c 0
 2742 2000 2802 1740 2802 1442 c 0
 2802 992 2670 640 2404 384 c 0
 2138 128 1784 0 1340 0 c 2
 332 0 l 1
672 3706 m 1
 1176 3706 l 1
 1438 3372 l 1
 1696 3706 l 1
 2200 3706 l 1
 1744 3130 l 1
 1126 3130 l 1
 672 3706 l 1
954 516 m 1
 1274 516 l 2
 1552 516 1764 594 1910 750 c 0
 2056 906 2130 1136 2130 1442 c 0
 2130 1748 2056 1978 1910 2136 c 0
 1764 2294 1552 2372 1274 2372 c 2
 954 2372 l 1
 954 516 l 1
EndSplineSet
EndChar

StartChar: dcaron
Encoding: 271 271 204
Width: 2592
GlyphClass: 2
Flags: HW
AnchorPoint: "Anchor-3" 2532 2888 basechar 0
AnchorPoint: "Anchor-2" 1294 3010 basechar 0
AnchorPoint: "Anchor-0" 1294 0 basechar 0
LayerCount: 2
Fore
SplineSet
1258 394 m 0
 1412 394 1532 456 1616 584 c 0
 1702 708 1744 880 1744 1098 c 0
 1744 1310 1700 1480 1614 1608 c 0
 1528 1734 1408 1798 1258 1798 c 0
 1104 1798 984 1736 898 1612 c 0
 812 1486 770 1316 770 1098 c 0
 770 880 812 708 898 584 c 0
 984 456 1104 394 1258 394 c 0
148 1098 m 0
 148 1448 232 1726 396 1932 c 0
 564 2140 782 2244 1052 2244 c 0
 1202 2244 1332 2206 1442 2132 c 0
 1552 2056 1634 1958 1688 1836 c 1
 1712 1836 l 1
 1712 3010 l 1
 2318 3010 l 1
 2318 0 l 1
 1744 0 l 1
 1744 352 l 1
 1724 352 l 1
 1670 234 1584 136 1464 62 c 0
 1348 -12 1212 -50 1060 -50 c 0
 786 -50 566 54 400 262 c 0
 232 470 148 748 148 1098 c 0
2548 2318 m 1
 2696 3010 l 1
 3178 3010 l 1
 2932 2318 l 1
 2548 2318 l 1
EndSplineSet
EndChar

StartChar: Dcroat
Encoding: 272 272 205
Width: 3002
GlyphClass: 2
Flags: HW
AnchorPoint: "Anchor-2" 1438 2888 basechar 0
AnchorPoint: "Anchor-0" 1504 0 basechar 0
LayerCount: 2
Fore
SplineSet
332 0 m 1
 332 1266 l 1
 78 1266 l 1
 78 1630 l 1
 332 1630 l 1
 332 2888 l 1
 1344 2888 l 2
 1636 2888 1892 2832 2110 2718 c 0
 2328 2604 2498 2438 2620 2220 c 0
 2742 2000 2802 1740 2802 1442 c 0
 2802 992 2670 640 2404 384 c 0
 2138 128 1784 0 1340 0 c 2
 332 0 l 1
954 516 m 1
 1274 516 l 2
 1552 516 1764 594 1910 750 c 0
 2056 906 2130 1136 2130 1442 c 0
 2130 1748 2056 1978 1910 2136 c 0
 1764 2294 1552 2372 1274 2372 c 2
 954 2372 l 1
 954 1630 l 1
 1602 1630 l 1
 1602 1266 l 1
 954 1266 l 1
 954 516 l 1
EndSplineSet
EndChar

StartChar: dcroat
Encoding: 273 273 206
Width: 2592
GlyphClass: 2
Flags: HW
AnchorPoint: "Anchor-3" 2532 2888 basechar 0
AnchorPoint: "Anchor-2" 1294 3010 basechar 0
AnchorPoint: "Anchor-0" 1294 0 basechar 0
LayerCount: 2
Fore
SplineSet
1258 394 m 0
 1412 394 1532 456 1616 584 c 0
 1702 708 1744 880 1744 1098 c 0
 1744 1310 1700 1480 1614 1608 c 0
 1528 1734 1408 1798 1258 1798 c 0
 1104 1798 984 1736 898 1612 c 0
 812 1486 770 1316 770 1098 c 0
 770 880 812 708 898 584 c 0
 984 456 1104 394 1258 394 c 0
148 1098 m 0
 148 1448 232 1726 396 1932 c 0
 564 2140 782 2244 1052 2244 c 0
 1202 2244 1332 2206 1442 2132 c 0
 1552 2056 1634 1958 1688 1836 c 1
 1712 1836 l 1
 1712 2424 l 1
 1048 2424 l 1
 1048 2744 l 1
 1712 2744 l 1
 1712 3010 l 1
 2318 3010 l 1
 2318 2744 l 1
 2572 2744 l 1
 2572 2424 l 1
 2318 2424 l 1
 2318 0 l 1
 1744 0 l 1
 1744 352 l 1
 1724 352 l 1
 1670 234 1584 136 1464 62 c 0
 1348 -12 1212 -50 1060 -50 c 0
 786 -50 566 54 400 262 c 0
 232 470 148 748 148 1098 c 0
EndSplineSet
EndChar

StartChar: Emacron
Encoding: 274 274 207
Width: 2432
GlyphClass: 2
Flags: HW
AnchorPoint: "Anchor-2" 1290 3604 basechar 0
AnchorPoint: "Anchor-1" 2204 0 basechar 0
AnchorPoint: "Anchor-0" 1290 0 basechar 0
LayerCount: 2
Fore
SplineSet
332 0 m 1
 332 2888 l 1
 2192 2888 l 1
 2192 2384 l 1
 954 2384 l 1
 954 1736 l 1
 1966 1736 l 1
 1966 1246 l 1
 954 1246 l 1
 954 504 l 1
 2204 504 l 1
 2204 0 l 1
 332 0 l 1
622 3212 m 1
 622 3604 l 1
 1954 3604 l 1
 1954 3212 l 1
 622 3212 l 1
EndSplineSet
EndChar

StartChar: emacron
Encoding: 275 275 208
Width: 2408
GlyphClass: 2
Flags: HW
AnchorPoint: "Anchor-2" 1224 3006 basechar 0
AnchorPoint: "Anchor-1" 1896 0 basechar 0
AnchorPoint: "Anchor-0" 1208 0 basechar 0
LayerCount: 2
Fore
SplineSet
1262 -50 m 0
 920 -50 648 56 448 270 c 0
 248 484 148 768 148 1122 c 0
 148 1338 196 1532 292 1704 c 0
 386 1874 516 2008 682 2102 c 0
 848 2196 1032 2244 1236 2244 c 0
 1560 2244 1814 2148 1998 1958 c 0
 2182 1768 2274 1508 2274 1180 c 0
 2274 1094 2270 1020 2260 958 c 1
 746 958 l 1
 754 792 806 656 902 556 c 0
 998 452 1132 402 1302 402 c 0
 1528 402 1694 488 1802 660 c 1
 2236 386 l 1
 2062 96 1738 -50 1262 -50 c 0
552 2600 m 1
 552 2990 l 1
 1896 2990 l 1
 1896 2600 l 1
 552 2600 l 1
746 1328 m 1
 1704 1328 l 1
 1698 1500 1656 1630 1574 1720 c 0
 1492 1808 1380 1852 1236 1852 c 0
 1094 1852 980 1808 894 1720 c 0
 808 1634 758 1502 746 1328 c 1
EndSplineSet
EndChar

StartChar: Ebreve
Encoding: 276 276 209
Width: 2432
GlyphClass: 2
Flags: HW
AnchorPoint: "Anchor-2" 1290 3706 basechar 0
AnchorPoint: "Anchor-1" 2204 0 basechar 0
AnchorPoint: "Anchor-0" 1290 0 basechar 0
LayerCount: 2
Fore
SplineSet
332 0 m 1
 332 2888 l 1
 2192 2888 l 1
 2192 2384 l 1
 954 2384 l 1
 954 1736 l 1
 1966 1736 l 1
 1966 1246 l 1
 954 1246 l 1
 954 504 l 1
 2204 504 l 1
 2204 0 l 1
 332 0 l 1
570 3706 m 1
 1000 3706 l 1
 1000 3628 1024 3566 1076 3524 c 0
 1124 3480 1196 3458 1290 3458 c 0
 1382 3458 1454 3480 1504 3524 c 0
 1556 3566 1582 3628 1582 3706 c 1
 2012 3706 l 1
 2012 3532 1948 3394 1816 3288 c 0
 1688 3182 1512 3130 1290 3130 c 0
 1068 3130 892 3182 764 3288 c 0
 634 3394 570 3532 570 3706 c 1
EndSplineSet
EndChar

StartChar: ebreve
Encoding: 277 277 210
Width: 2408
GlyphClass: 2
Flags: HW
AnchorPoint: "Anchor-2" 1224 2924 basechar 0
AnchorPoint: "Anchor-1" 1896 0 basechar 0
AnchorPoint: "Anchor-0" 1208 0 basechar 0
LayerCount: 2
Fore
SplineSet
1262 -50 m 0
 920 -50 648 56 448 270 c 0
 248 484 148 768 148 1122 c 0
 148 1338 196 1532 292 1704 c 0
 386 1874 516 2008 682 2102 c 0
 848 2196 1032 2244 1236 2244 c 0
 1560 2244 1814 2148 1998 1958 c 0
 2182 1768 2274 1508 2274 1180 c 0
 2274 1094 2270 1020 2260 958 c 1
 746 958 l 1
 754 792 806 656 902 556 c 0
 998 452 1132 402 1302 402 c 0
 1528 402 1694 488 1802 660 c 1
 2236 386 l 1
 2062 96 1738 -50 1262 -50 c 0
458 3204 m 1
 888 3204 l 1
 888 3092 916 3004 976 2940 c 0
 1032 2874 1114 2842 1220 2842 c 0
 1324 2842 1406 2874 1464 2940 c 0
 1522 3004 1552 3092 1552 3204 c 1
 1982 3204 l 1
 1982 2986 1914 2808 1776 2676 c 0
 1638 2540 1454 2474 1220 2474 c 0
 986 2474 800 2540 664 2674 c 0
 526 2808 458 2984 458 3204 c 1
746 1328 m 1
 1704 1328 l 1
 1698 1500 1656 1630 1574 1720 c 0
 1492 1808 1380 1852 1236 1852 c 0
 1094 1852 980 1808 894 1720 c 0
 808 1634 758 1502 746 1328 c 1
EndSplineSet
EndChar

StartChar: Edotaccent
Encoding: 278 278 211
Width: 2432
GlyphClass: 2
Flags: HW
AnchorPoint: "Anchor-2" 1286 3834 basechar 0
AnchorPoint: "Anchor-1" 2204 0 basechar 0
AnchorPoint: "Anchor-0" 1290 0 basechar 0
LayerCount: 2
Fore
SplineSet
332 0 m 1
 332 2888 l 1
 2192 2888 l 1
 2192 2384 l 1
 954 2384 l 1
 954 1736 l 1
 1966 1736 l 1
 1966 1246 l 1
 954 1246 l 1
 954 504 l 1
 2204 504 l 1
 2204 0 l 1
 332 0 l 1
954 3452 m 0
 954 3542 986 3620 1048 3684 c 0
 1112 3748 1192 3780 1286 3780 c 0
 1382 3780 1460 3748 1522 3684 c 0
 1584 3622 1614 3544 1614 3452 c 0
 1614 3358 1584 3280 1524 3220 c 0
 1462 3156 1384 3126 1286 3126 c 0
 1190 3126 1110 3158 1048 3220 c 0
 986 3282 954 3360 954 3452 c 0
EndSplineSet
EndChar

StartChar: edotaccent
Encoding: 279 279 212
Width: 2408
GlyphClass: 2
Flags: HW
AnchorPoint: "Anchor-2" 1224 3158 basechar 0
AnchorPoint: "Anchor-1" 1896 0 basechar 0
AnchorPoint: "Anchor-0" 1208 0 basechar 0
LayerCount: 2
Fore
SplineSet
1262 -50 m 0
 920 -50 648 56 448 270 c 0
 248 484 148 768 148 1122 c 0
 148 1338 196 1532 292 1704 c 0
 386 1874 516 2008 682 2102 c 0
 848 2196 1032 2244 1236 2244 c 0
 1560 2244 1814 2148 1998 1958 c 0
 2182 1768 2274 1508 2274 1180 c 0
 2274 1094 2270 1020 2260 958 c 1
 746 958 l 1
 754 792 806 656 902 556 c 0
 998 452 1132 402 1302 402 c 0
 1528 402 1694 488 1802 660 c 1
 2236 386 l 1
 2062 96 1738 -50 1262 -50 c 0
746 1328 m 1
 1704 1328 l 1
 1698 1500 1656 1630 1574 1720 c 0
 1492 1808 1380 1852 1236 1852 c 0
 1094 1852 980 1808 894 1720 c 0
 808 1634 758 1502 746 1328 c 1
892 2826 m 0
 892 2922 924 3002 984 3064 c 0
 1048 3126 1126 3158 1224 3158 c 0
 1322 3158 1400 3126 1464 3064 c 0
 1524 3002 1556 2922 1556 2826 c 0
 1556 2730 1524 2650 1464 2588 c 0
 1400 2526 1322 2494 1224 2494 c 0
 1126 2494 1048 2526 984 2588 c 0
 924 2650 892 2730 892 2826 c 0
EndSplineSet
EndChar

StartChar: Eogonek
Encoding: 280 280 213
Width: 2432
GlyphClass: 2
Flags: HW
AnchorPoint: "Anchor-2" 1286 2888 basechar 0
AnchorPoint: "Anchor-1" 2204 0 basechar 0
AnchorPoint: "Anchor-0" 1290 0 basechar 0
LayerCount: 2
Fore
SplineSet
332 0 m 1
 332 2888 l 1
 2192 2888 l 1
 2192 2384 l 1
 954 2384 l 1
 954 1736 l 1
 1966 1736 l 1
 1966 1246 l 1
 954 1246 l 1
 954 504 l 1
 2204 504 l 1
 2204 0 l 1
 2122 -86 l 2
 2032 -176 1972 -248 1938 -304 c 0
 1904 -356 1888 -412 1888 -466 c 0
 1888 -512 1904 -552 1936 -580 c 0
 1968 -612 2010 -626 2060 -626 c 0
 2104 -626 2144 -622 2180 -614 c 1
 2180 -938 l 1
 2074 -974 1966 -992 1852 -992 c 0
 1694 -992 1572 -956 1482 -880 c 0
 1392 -808 1348 -704 1348 -574 c 0
 1348 -476 1378 -380 1440 -290 c 0
 1500 -200 1594 -104 1724 -4 c 1
 1728 0 l 1
 332 0 l 1
EndSplineSet
EndChar

StartChar: eogonek
Encoding: 281 281 214
Width: 2408
GlyphClass: 2
Flags: HW
AnchorPoint: "Anchor-2" 1224 2196 basechar 0
AnchorPoint: "Anchor-1" 1896 0 basechar 0
AnchorPoint: "Anchor-0" 1208 0 basechar 0
LayerCount: 2
Fore
SplineSet
1262 -50 m 0
 920 -50 648 56 448 270 c 0
 248 484 148 768 148 1122 c 0
 148 1338 196 1532 292 1704 c 0
 386 1874 516 2008 682 2102 c 0
 848 2196 1032 2244 1236 2244 c 0
 1560 2244 1814 2148 1998 1958 c 0
 2182 1768 2274 1508 2274 1180 c 0
 2274 1094 2270 1020 2260 958 c 1
 746 958 l 1
 754 792 806 656 902 556 c 0
 998 452 1132 402 1302 402 c 0
 1528 402 1694 488 1802 660 c 1
 2236 386 l 1
 2190 308 2130 238 2060 180 c 1
 1814 -86 l 2
 1726 -176 1666 -248 1632 -304 c 0
 1598 -356 1582 -412 1582 -466 c 0
 1582 -512 1598 -552 1630 -580 c 0
 1662 -612 1704 -626 1754 -626 c 0
 1796 -626 1836 -622 1872 -614 c 1
 1872 -938 l 1
 1766 -974 1658 -992 1544 -992 c 0
 1386 -992 1264 -956 1174 -880 c 0
 1084 -808 1040 -704 1040 -574 c 0
 1040 -386 1162 -210 1404 -46 c 1
 1374 -48 1326 -50 1262 -50 c 0
746 1328 m 1
 1704 1328 l 1
 1698 1500 1656 1630 1574 1720 c 0
 1492 1808 1380 1852 1236 1852 c 0
 1094 1852 980 1808 894 1720 c 0
 808 1634 758 1502 746 1328 c 1
EndSplineSet
EndChar

StartChar: Ecaron
Encoding: 282 282 215
Width: 2432
GlyphClass: 2
Flags: HW
AnchorPoint: "Anchor-2" 1290 3706 basechar 0
AnchorPoint: "Anchor-1" 2204 0 basechar 0
AnchorPoint: "Anchor-0" 1290 0 basechar 0
LayerCount: 2
Fore
SplineSet
332 0 m 1
 332 2888 l 1
 2192 2888 l 1
 2192 2384 l 1
 954 2384 l 1
 954 1736 l 1
 1966 1736 l 1
 1966 1246 l 1
 954 1246 l 1
 954 504 l 1
 2204 504 l 1
 2204 0 l 1
 332 0 l 1
524 3706 m 1
 1028 3706 l 1
 1290 3372 l 1
 1548 3706 l 1
 2052 3706 l 1
 1598 3130 l 1
 978 3130 l 1
 524 3706 l 1
EndSplineSet
EndChar

StartChar: ecaron
Encoding: 283 283 216
Width: 2408
GlyphClass: 2
Flags: HW
AnchorPoint: "Anchor-2" 1224 3204 basechar 0
AnchorPoint: "Anchor-1" 1896 0 basechar 0
AnchorPoint: "Anchor-0" 1208 0 basechar 0
LayerCount: 2
Fore
SplineSet
1262 -50 m 0
 920 -50 648 56 448 270 c 0
 248 484 148 768 148 1122 c 0
 148 1338 196 1532 292 1704 c 0
 386 1874 516 2008 682 2102 c 0
 848 2196 1032 2244 1236 2244 c 0
 1560 2244 1814 2148 1998 1958 c 0
 2182 1768 2274 1508 2274 1180 c 0
 2274 1094 2270 1020 2260 958 c 1
 746 958 l 1
 754 792 806 656 902 556 c 0
 998 452 1132 402 1302 402 c 0
 1528 402 1694 488 1802 660 c 1
 2236 386 l 1
 2062 96 1738 -50 1262 -50 c 0
418 3204 m 1
 922 3204 l 1
 1224 2760 l 1
 1524 3204 l 1
 2028 3204 l 1
 1532 2474 l 1
 914 2474 l 1
 418 3204 l 1
746 1328 m 1
 1704 1328 l 1
 1698 1500 1656 1630 1574 1720 c 0
 1492 1808 1380 1852 1236 1852 c 0
 1094 1852 980 1808 894 1720 c 0
 808 1634 758 1502 746 1328 c 1
EndSplineSet
EndChar

StartChar: Gcircumflex
Encoding: 284 284 217
Width: 3084
GlyphClass: 2
Flags: HW
AnchorPoint: "Anchor-2" 1564 3706 basechar 0
AnchorPoint: "Anchor-0" 1560 0 basechar 0
LayerCount: 2
Fore
SplineSet
1610 -70 m 0
 1332 -70 1086 -8 872 118 c 0
 658 244 494 420 376 650 c 0
 258 880 200 1144 200 1442 c 0
 200 1896 328 2264 582 2540 c 0
 836 2820 1172 2958 1590 2958 c 0
 1890 2958 2144 2900 2350 2782 c 0
 2556 2664 2710 2494 2810 2270 c 1
 2236 2016 l 1
 2114 2298 1908 2438 1618 2438 c 0
 1384 2438 1200 2352 1068 2180 c 0
 938 2008 872 1762 872 1442 c 0
 872 1122 938 874 1072 700 c 0
 1204 526 1386 438 1618 438 c 0
 1830 438 1994 492 2110 604 c 0
 2226 712 2292 872 2306 1082 c 1
 1528 1082 l 1
 1528 1560 l 1
 2896 1560 l 1
 2896 1224 l 2
 2896 814 2780 496 2546 268 c 0
 2312 44 2000 -70 1610 -70 c 0
798 3130 m 1
 1254 3706 l 1
 1872 3706 l 1
 2326 3130 l 1
 1822 3130 l 1
 1564 3466 l 1
 1302 3130 l 1
 798 3130 l 1
EndSplineSet
EndChar

StartChar: gcircumflex
Encoding: 285 285 218
Width: 2568
GlyphClass: 2
Flags: HW
AnchorPoint: "Anchor-2" 1290 3154 basechar 0
AnchorPoint: "Anchor-0" 1290 -820 basechar 0
LayerCount: 2
Fore
SplineSet
1196 -868 m 0
 648 -868 296 -682 140 -308 c 1
 692 -132 l 1
 780 -330 946 -430 1192 -430 c 0
 1362 -430 1488 -380 1576 -284 c 0
 1660 -184 1704 -44 1704 140 c 2
 1704 446 l 1
 1680 446 l 1
 1608 320 1516 222 1402 152 c 0
 1288 84 1162 50 1020 50 c 0
 762 50 550 152 384 356 c 0
 218 562 136 824 136 1146 c 0
 136 1470 220 1734 388 1938 c 0
 556 2142 772 2244 1036 2244 c 0
 1182 2244 1312 2212 1428 2144 c 0
 1540 2080 1632 1984 1700 1860 c 1
 1724 1860 l 1
 1724 2196 l 1
 2298 2196 l 1
 2298 172 l 2
 2298 -164 2200 -422 2004 -600 c 0
 1806 -778 1538 -868 1196 -868 c 0
484 2474 m 1
 978 3204 l 1
 1598 3204 l 1
 2094 2474 l 1
 1590 2474 l 1
 1290 2916 l 1
 988 2474 l 1
 484 2474 l 1
762 1142 m 0
 762 946 804 788 890 670 c 0
 976 552 1092 492 1242 492 c 0
 1392 492 1510 552 1596 672 c 0
 1682 790 1724 948 1724 1142 c 0
 1724 1340 1682 1500 1596 1620 c 0
 1512 1738 1394 1798 1242 1798 c 0
 1092 1798 976 1738 890 1620 c 0
 804 1500 762 1340 762 1142 c 0
EndSplineSet
EndChar

StartChar: Gbreve
Encoding: 286 286 219
Width: 3084
GlyphClass: 2
Flags: HW
AnchorPoint: "Anchor-2" 1564 3706 basechar 0
AnchorPoint: "Anchor-0" 1560 0 basechar 0
LayerCount: 2
Fore
SplineSet
1610 -70 m 0
 1332 -70 1086 -8 872 118 c 0
 658 244 494 420 376 650 c 0
 258 880 200 1144 200 1442 c 0
 200 1896 328 2264 582 2540 c 0
 836 2820 1172 2958 1590 2958 c 0
 1890 2958 2144 2900 2350 2782 c 0
 2556 2664 2710 2494 2810 2270 c 1
 2236 2016 l 1
 2114 2298 1908 2438 1618 2438 c 0
 1384 2438 1200 2352 1068 2180 c 0
 938 2008 872 1762 872 1442 c 0
 872 1122 938 874 1072 700 c 0
 1204 526 1386 438 1618 438 c 0
 1830 438 1994 492 2110 604 c 0
 2226 712 2292 872 2306 1082 c 1
 1528 1082 l 1
 1528 1560 l 1
 2896 1560 l 1
 2896 1224 l 2
 2896 814 2780 496 2546 268 c 0
 2312 44 2000 -70 1610 -70 c 0
844 3706 m 1
 1274 3706 l 1
 1274 3628 1300 3566 1348 3524 c 0
 1400 3480 1470 3458 1564 3458 c 0
 1656 3458 1728 3480 1780 3524 c 0
 1830 3566 1856 3628 1856 3706 c 1
 2286 3706 l 1
 2286 3532 2220 3394 2092 3288 c 0
 1960 3182 1786 3130 1564 3130 c 0
 1342 3130 1166 3182 1036 3288 c 0
 908 3394 844 3532 844 3706 c 1
EndSplineSet
EndChar

StartChar: gbreve
Encoding: 287 287 220
Width: 2568
GlyphClass: 2
Flags: HW
AnchorPoint: "Anchor-2" 1290 2924 basechar 0
AnchorPoint: "Anchor-0" 1290 -820 basechar 0
LayerCount: 2
Fore
SplineSet
1196 -868 m 0
 648 -868 296 -682 140 -308 c 1
 692 -132 l 1
 780 -330 946 -430 1192 -430 c 0
 1362 -430 1488 -380 1576 -284 c 0
 1660 -184 1704 -44 1704 140 c 2
 1704 446 l 1
 1680 446 l 1
 1608 320 1516 222 1402 152 c 0
 1288 84 1162 50 1020 50 c 0
 762 50 550 152 384 356 c 0
 218 562 136 824 136 1146 c 0
 136 1470 220 1734 388 1938 c 0
 556 2142 772 2244 1036 2244 c 0
 1182 2244 1312 2212 1428 2144 c 0
 1540 2080 1632 1984 1700 1860 c 1
 1724 1860 l 1
 1724 2196 l 1
 2298 2196 l 1
 2298 172 l 2
 2298 -164 2200 -422 2004 -600 c 0
 1806 -778 1538 -868 1196 -868 c 0
524 3204 m 1
 954 3204 l 1
 954 3092 984 3004 1040 2940 c 0
 1100 2874 1180 2842 1286 2842 c 0
 1390 2842 1472 2874 1530 2940 c 0
 1588 3004 1618 3092 1618 3204 c 1
 2048 3204 l 1
 2048 2986 1980 2808 1842 2676 c 0
 1704 2540 1520 2474 1286 2474 c 0
 1052 2474 866 2540 728 2674 c 0
 592 2808 524 2984 524 3204 c 1
762 1142 m 0
 762 946 804 788 890 670 c 0
 976 552 1092 492 1242 492 c 0
 1392 492 1510 552 1596 672 c 0
 1682 790 1724 948 1724 1142 c 0
 1724 1340 1682 1500 1596 1620 c 0
 1512 1738 1394 1798 1242 1798 c 0
 1092 1798 976 1738 890 1620 c 0
 804 1500 762 1340 762 1142 c 0
EndSplineSet
EndChar

StartChar: Gdotaccent
Encoding: 288 288 221
Width: 3084
GlyphClass: 2
Flags: HW
AnchorPoint: "Anchor-2" 1564 3834 basechar 0
AnchorPoint: "Anchor-0" 1560 0 basechar 0
LayerCount: 2
Fore
SplineSet
1610 -70 m 0
 1332 -70 1086 -8 872 118 c 0
 658 244 494 420 376 650 c 0
 258 880 200 1144 200 1442 c 0
 200 1896 328 2264 582 2540 c 0
 836 2820 1172 2958 1590 2958 c 0
 1890 2958 2144 2900 2350 2782 c 0
 2556 2664 2710 2494 2810 2270 c 1
 2236 2016 l 1
 2114 2298 1908 2438 1618 2438 c 0
 1384 2438 1200 2352 1068 2180 c 0
 938 2008 872 1762 872 1442 c 0
 872 1122 938 874 1072 700 c 0
 1204 526 1386 438 1618 438 c 0
 1830 438 1994 492 2110 604 c 0
 2226 712 2292 872 2306 1082 c 1
 1528 1082 l 1
 1528 1560 l 1
 2896 1560 l 1
 2896 1224 l 2
 2896 814 2780 496 2546 268 c 0
 2312 44 2000 -70 1610 -70 c 0
1232 3452 m 0
 1232 3542 1264 3620 1328 3684 c 0
 1390 3748 1470 3780 1564 3780 c 0
 1660 3780 1738 3748 1800 3684 c 0
 1862 3622 1892 3544 1892 3452 c 0
 1892 3358 1862 3280 1800 3220 c 0
 1740 3156 1662 3126 1564 3126 c 0
 1468 3126 1388 3158 1326 3220 c 0
 1264 3282 1232 3360 1232 3452 c 0
EndSplineSet
EndChar

StartChar: gdotaccent
Encoding: 289 289 222
Width: 2568
GlyphClass: 2
Flags: HW
AnchorPoint: "Anchor-2" 1290 3158 basechar 0
AnchorPoint: "Anchor-0" 1290 -820 basechar 0
LayerCount: 2
Fore
SplineSet
1196 -868 m 0
 648 -868 296 -682 140 -308 c 1
 692 -132 l 1
 780 -330 946 -430 1192 -430 c 0
 1362 -430 1488 -380 1576 -284 c 0
 1660 -184 1704 -44 1704 140 c 2
 1704 446 l 1
 1680 446 l 1
 1608 320 1516 222 1402 152 c 0
 1288 84 1162 50 1020 50 c 0
 762 50 550 152 384 356 c 0
 218 562 136 824 136 1146 c 0
 136 1470 220 1734 388 1938 c 0
 556 2142 772 2244 1036 2244 c 0
 1182 2244 1312 2212 1428 2144 c 0
 1540 2080 1632 1984 1700 1860 c 1
 1724 1860 l 1
 1724 2196 l 1
 2298 2196 l 1
 2298 172 l 2
 2298 -164 2200 -422 2004 -600 c 0
 1806 -778 1538 -868 1196 -868 c 0
762 1142 m 0
 762 946 804 788 890 670 c 0
 976 552 1092 492 1242 492 c 0
 1392 492 1510 552 1596 672 c 0
 1682 790 1724 948 1724 1142 c 0
 1724 1340 1682 1500 1596 1620 c 0
 1512 1738 1394 1798 1242 1798 c 0
 1092 1798 976 1738 890 1620 c 0
 804 1500 762 1340 762 1142 c 0
958 2826 m 0
 958 2922 988 3002 1052 3064 c 0
 1112 3126 1192 3158 1290 3158 c 0
 1388 3158 1468 3126 1528 3064 c 0
 1592 3002 1622 2922 1622 2826 c 0
 1622 2730 1592 2650 1528 2588 c 0
 1468 2526 1388 2494 1290 2494 c 0
 1192 2494 1112 2526 1052 2588 c 0
 988 2650 958 2730 958 2826 c 0
EndSplineSet
EndChar

StartChar: Gcommaaccent
Encoding: 290 290 223
Width: 3084
GlyphClass: 2
Flags: HW
AnchorPoint: "Anchor-2" 1560 2888 basechar 0
AnchorPoint: "Anchor-0" 1462 -942 basechar 0
LayerCount: 2
Fore
SplineSet
1610 -70 m 0
 1332 -70 1086 -8 872 118 c 0
 658 244 494 420 376 650 c 0
 258 880 200 1144 200 1442 c 0
 200 1896 328 2264 582 2540 c 0
 836 2820 1172 2958 1590 2958 c 0
 1890 2958 2144 2900 2350 2782 c 0
 2556 2664 2710 2494 2810 2270 c 1
 2236 2016 l 1
 2114 2298 1908 2438 1618 2438 c 0
 1384 2438 1200 2352 1068 2180 c 0
 938 2008 872 1762 872 1442 c 0
 872 1122 938 874 1072 700 c 0
 1204 526 1386 438 1618 438 c 0
 1830 438 1994 492 2110 604 c 0
 2226 712 2292 872 2306 1082 c 1
 1528 1082 l 1
 1528 1560 l 1
 2896 1560 l 1
 2896 1224 l 2
 2896 814 2780 496 2546 268 c 0
 2312 44 2000 -70 1610 -70 c 0
1086 -942 m 1
 1290 -294 l 1
 1836 -294 l 1
 1548 -942 l 1
 1086 -942 l 1
EndSplineSet
EndChar

StartChar: gcommaaccent
Encoding: 291 291 224
Width: 2568
GlyphClass: 2
Flags: HW
AnchorPoint: "Anchor-2" 1368 2928 basechar 0
AnchorPoint: "Anchor-0" 1290 -820 basechar 0
LayerCount: 2
Fore
SplineSet
1196 -868 m 0
 648 -868 296 -682 140 -308 c 1
 692 -132 l 1
 780 -330 946 -430 1192 -430 c 0
 1362 -430 1488 -380 1576 -284 c 0
 1660 -184 1704 -44 1704 140 c 2
 1704 446 l 1
 1680 446 l 1
 1608 320 1516 222 1402 152 c 0
 1288 84 1162 50 1020 50 c 0
 762 50 550 152 384 356 c 0
 218 562 136 824 136 1146 c 0
 136 1470 220 1734 388 1938 c 0
 556 2142 772 2244 1036 2244 c 0
 1182 2244 1312 2212 1428 2144 c 0
 1540 2080 1632 1984 1700 1860 c 1
 1724 1860 l 1
 1724 2196 l 1
 2298 2196 l 1
 2298 172 l 2
 2298 -164 2200 -422 2004 -600 c 0
 1806 -778 1538 -868 1196 -868 c 0
762 1142 m 0
 762 946 804 788 890 670 c 0
 976 552 1092 492 1242 492 c 0
 1392 492 1510 552 1596 672 c 0
 1682 790 1724 948 1724 1142 c 0
 1724 1340 1682 1500 1596 1620 c 0
 1512 1738 1394 1798 1242 1798 c 0
 1092 1798 976 1738 890 1620 c 0
 804 1500 762 1340 762 1142 c 0
1032 2474 m 1
 1380 3204 l 1
 1798 3204 l 1
 1564 2474 l 1
 1032 2474 l 1
EndSplineSet
EndChar

StartChar: Hcircumflex
Encoding: 292 292 225
Width: 3148
GlyphClass: 2
Flags: HW
AnchorPoint: "Anchor-2" 1576 3706 basechar 0
AnchorPoint: "Anchor-0" 1576 0 basechar 0
LayerCount: 2
Fore
SplineSet
2196 0 m 1
 2196 1242 l 1
 954 1242 l 1
 954 0 l 1
 332 0 l 1
 332 2888 l 1
 954 2888 l 1
 954 1758 l 1
 2196 1758 l 1
 2196 2888 l 1
 2818 2888 l 1
 2818 0 l 1
 2196 0 l 1
812 3130 m 1
 1266 3706 l 1
 1884 3706 l 1
 2338 3130 l 1
 1836 3130 l 1
 1576 3466 l 1
 1314 3130 l 1
 812 3130 l 1
EndSplineSet
EndChar

StartChar: hcircumflex
Encoding: 293 293 226
Width: 2494
GlyphClass: 2
Flags: HW
AnchorPoint: "Anchor-2" 1294 3706 basechar 0
AnchorPoint: "Anchor-0" 1250 0 basechar 0
LayerCount: 2
Fore
SplineSet
270 0 m 1
 270 3010 l 1
 876 3010 l 1
 876 1884 l 1
 898 1884 l 1
 958 1998 1042 2086 1148 2148 c 0
 1254 2212 1378 2244 1516 2244 c 0
 1744 2244 1922 2176 2052 2040 c 0
 2180 1904 2244 1700 2244 1426 c 2
 2244 0 l 1
 1638 0 l 1
 1638 1340 l 2
 1638 1482 1608 1590 1544 1664 c 0
 1484 1738 1396 1774 1282 1774 c 0
 1156 1774 1056 1734 984 1656 c 0
 912 1576 876 1462 876 1314 c 2
 876 0 l 1
 270 0 l 1
528 3130 m 1
 984 3706 l 1
 1602 3706 l 1
 2056 3130 l 1
 1552 3130 l 1
 1294 3466 l 1
 1032 3130 l 1
 528 3130 l 1
EndSplineSet
EndChar

StartChar: Hbar
Encoding: 294 294 227
Width: 3148
GlyphClass: 2
Flags: HW
AnchorPoint: "Anchor-2" 1576 2888 basechar 0
AnchorPoint: "Anchor-0" 1576 0 basechar 0
LayerCount: 2
Fore
SplineSet
2196 0 m 1
 2196 1242 l 1
 954 1242 l 1
 954 0 l 1
 332 0 l 1
 332 2102 l 1
 54 2102 l 1
 54 2466 l 1
 332 2466 l 1
 332 2888 l 1
 954 2888 l 1
 954 2466 l 1
 2196 2466 l 1
 2196 2888 l 1
 2818 2888 l 1
 2818 2466 l 1
 3096 2466 l 1
 3096 2102 l 1
 2818 2102 l 1
 2818 0 l 1
 2196 0 l 1
954 1758 m 1
 2196 1758 l 1
 2196 2102 l 1
 954 2102 l 1
 954 1758 l 1
EndSplineSet
EndChar

StartChar: hbar
Encoding: 295 295 228
Width: 2494
GlyphClass: 2
Flags: HW
AnchorPoint: "Anchor-2" 1290 2888 basechar 0
AnchorPoint: "Anchor-0" 1250 0 basechar 0
LayerCount: 2
Fore
SplineSet
270 0 m 1
 270 2424 l 1
 0 2424 l 1
 0 2744 l 1
 270 2744 l 1
 270 3010 l 1
 876 3010 l 1
 876 2744 l 1
 1524 2744 l 1
 1524 2424 l 1
 876 2424 l 1
 876 1884 l 1
 898 1884 l 1
 958 1998 1042 2086 1148 2148 c 0
 1254 2212 1378 2244 1516 2244 c 0
 1744 2244 1922 2176 2052 2040 c 0
 2180 1904 2244 1700 2244 1426 c 2
 2244 0 l 1
 1638 0 l 1
 1638 1340 l 2
 1638 1482 1608 1590 1544 1664 c 0
 1484 1738 1396 1774 1282 1774 c 0
 1156 1774 1056 1734 984 1656 c 0
 912 1576 876 1462 876 1314 c 2
 876 0 l 1
 270 0 l 1
EndSplineSet
EndChar

StartChar: Itilde
Encoding: 296 296 229
Width: 1286
GlyphClass: 2
Flags: HW
AnchorPoint: "Anchor-2" 644 3736 basechar 0
AnchorPoint: "Anchor-1" 954 0 basechar 0
AnchorPoint: "Anchor-0" 644 0 basechar 0
LayerCount: 2
Fore
SplineSet
332 0 m 1
 332 2888 l 1
 954 2888 l 1
 954 0 l 1
 332 0 l 1
-176 3134 m 1
 -176 3316 -130 3460 -38 3572 c 0
 54 3680 176 3736 328 3736 c 0
 396 3736 462 3724 528 3698 c 0
 592 3672 644 3644 684 3612 c 0
 724 3582 766 3554 810 3528 c 0
 854 3502 892 3490 922 3490 c 0
 968 3490 1006 3510 1032 3548 c 0
 1060 3588 1074 3642 1074 3710 c 1
 1458 3710 l 1
 1458 3528 1412 3384 1320 3272 c 0
 1230 3164 1108 3108 954 3108 c 0
 888 3108 822 3120 758 3148 c 0
 694 3172 642 3202 602 3232 c 0
 562 3264 520 3292 476 3320 c 0
 432 3344 394 3358 364 3358 c 0
 316 3358 278 3338 250 3298 c 0
 222 3258 208 3204 208 3134 c 1
 -176 3134 l 1
EndSplineSet
Substitution2: "'ss02' Style Set 2 in Latin lookup 26 subtable" Itilde.ss01
Substitution2: "'ss01' Style Set 1 in Latin lookup 25 subtable" Itilde.ss01
Substitution2: "'aalt' Access All Alternates in Latin lookup 0 subtable" Itilde.ss01
EndChar

StartChar: itilde
Encoding: 297 297 230
Width: 1146
GlyphClass: 2
Flags: HW
AnchorPoint: "Anchor-2" 578 2978 basechar 0
AnchorPoint: "Anchor-1" 876 0 basechar 0
AnchorPoint: "Anchor-0" 574 0 basechar 0
LayerCount: 2
Fore
SplineSet
270 0 m 1
 270 2196 l 1
 876 2196 l 1
 876 0 l 1
 270 0 l 1
-196 2568 m 1
 -196 2764 -148 2914 -52 3016 c 0
 46 3118 164 3170 304 3170 c 0
 366 3170 430 3158 494 3132 c 0
 558 3106 610 3078 652 3048 c 0
 694 3016 736 2988 780 2962 c 0
 822 2936 858 2924 884 2924 c 0
 924 2924 960 2942 990 2980 c 0
 1020 3018 1036 3072 1036 3146 c 1
 1426 3146 l 1
 1426 2950 1378 2800 1280 2696 c 0
 1184 2592 1066 2540 926 2540 c 0
 864 2540 800 2554 736 2580 c 0
 672 2606 618 2636 576 2668 c 0
 534 2698 490 2728 448 2754 c 0
 406 2780 370 2794 344 2794 c 0
 304 2794 268 2776 238 2738 c 0
 208 2700 192 2644 192 2568 c 1
 -196 2568 l 1
EndSplineSet
EndChar

StartChar: Imacron
Encoding: 298 298 231
Width: 1286
GlyphClass: 2
Flags: HW
AnchorPoint: "Anchor-2" 644 3604 basechar 0
AnchorPoint: "Anchor-1" 954 0 basechar 0
AnchorPoint: "Anchor-0" 644 0 basechar 0
LayerCount: 2
Fore
SplineSet
332 0 m 1
 332 2888 l 1
 954 2888 l 1
 954 0 l 1
 332 0 l 1
-24 3212 m 1
 -24 3604 l 1
 1306 3604 l 1
 1306 3212 l 1
 -24 3212 l 1
EndSplineSet
Substitution2: "'ss02' Style Set 2 in Latin lookup 26 subtable" Imacron.ss01
Substitution2: "'ss01' Style Set 1 in Latin lookup 25 subtable" Imacron.ss01
Substitution2: "'aalt' Access All Alternates in Latin lookup 0 subtable" Imacron.ss01
EndChar

StartChar: imacron
Encoding: 299 299 232
Width: 1146
GlyphClass: 2
Flags: HW
AnchorPoint: "Anchor-2" 574 3006 basechar 0
AnchorPoint: "Anchor-1" 876 0 basechar 0
AnchorPoint: "Anchor-0" 574 0 basechar 0
LayerCount: 2
Fore
SplineSet
270 0 m 1
 270 2196 l 1
 876 2196 l 1
 876 0 l 1
 270 0 l 1
-98 2600 m 1
 -98 2990 l 1
 1246 2990 l 1
 1246 2600 l 1
 -98 2600 l 1
EndSplineSet
EndChar

StartChar: Ibreve
Encoding: 300 300 233
Width: 1286
GlyphClass: 2
Flags: HW
AnchorPoint: "Anchor-2" 644 3706 basechar 0
AnchorPoint: "Anchor-1" 954 0 basechar 0
AnchorPoint: "Anchor-0" 644 0 basechar 0
LayerCount: 2
Fore
SplineSet
332 0 m 1
 332 2888 l 1
 954 2888 l 1
 954 0 l 1
 332 0 l 1
-78 3706 m 1
 352 3706 l 1
 352 3628 378 3566 428 3524 c 0
 478 3480 550 3458 644 3458 c 0
 736 3458 808 3480 858 3524 c 0
 908 3566 934 3628 934 3706 c 1
 1364 3706 l 1
 1364 3532 1300 3394 1170 3288 c 0
 1040 3182 866 3130 644 3130 c 0
 422 3130 246 3182 116 3288 c 0
 -14 3394 -78 3532 -78 3706 c 1
EndSplineSet
Substitution2: "'ss02' Style Set 2 in Latin lookup 26 subtable" Ibreve.ss01
Substitution2: "'ss01' Style Set 1 in Latin lookup 25 subtable" Ibreve.ss01
Substitution2: "'aalt' Access All Alternates in Latin lookup 0 subtable" Ibreve.ss01
EndChar

StartChar: ibreve
Encoding: 301 301 234
Width: 1146
GlyphClass: 2
Flags: HW
AnchorPoint: "Anchor-2" 578 2924 basechar 0
AnchorPoint: "Anchor-1" 876 0 basechar 0
AnchorPoint: "Anchor-0" 574 0 basechar 0
LayerCount: 2
Fore
SplineSet
270 0 m 1
 270 2196 l 1
 876 2196 l 1
 876 0 l 1
 270 0 l 1
-188 3204 m 1
 242 3204 l 1
 242 3092 272 3004 328 2940 c 0
 388 2874 468 2842 574 2842 c 0
 678 2842 760 2874 818 2940 c 0
 876 3004 906 3092 906 3204 c 1
 1336 3204 l 1
 1336 2986 1268 2808 1130 2676 c 0
 992 2540 808 2474 574 2474 c 0
 340 2474 154 2540 16 2674 c 0
 -120 2808 -188 2984 -188 3204 c 1
EndSplineSet
EndChar

StartChar: Iogonek
Encoding: 302 302 235
Width: 1286
GlyphClass: 2
Flags: HW
AnchorPoint: "Anchor-2" 644 2888 basechar 0
AnchorPoint: "Anchor-1" 954 0 basechar 0
AnchorPoint: "Anchor-0" 644 0 basechar 0
LayerCount: 2
Fore
SplineSet
332 0 m 1
 332 2888 l 1
 954 2888 l 1
 954 0 l 1
 872 -86 l 2
 782 -176 722 -248 688 -304 c 0
 654 -356 638 -412 638 -466 c 0
 638 -512 654 -552 688 -580 c 0
 720 -612 762 -626 812 -626 c 0
 854 -626 894 -622 930 -614 c 1
 930 -938 l 1
 824 -974 716 -992 602 -992 c 0
 444 -992 322 -956 232 -880 c 0
 142 -808 98 -704 98 -574 c 0
 98 -476 128 -380 190 -290 c 0
 252 -200 346 -104 476 -4 c 1
 480 0 l 1
 332 0 l 1
EndSplineSet
Substitution2: "'ss02' Style Set 2 in Latin lookup 26 subtable" Iogonek.ss01
Substitution2: "'ss01' Style Set 1 in Latin lookup 25 subtable" Iogonek.ss01
Substitution2: "'aalt' Access All Alternates in Latin lookup 0 subtable" Iogonek.ss01
EndChar

StartChar: iogonek
Encoding: 303 303 236
Width: 1146
GlyphClass: 2
Flags: HW
AnchorPoint: "Anchor-2" 574 3154 basechar 0
AnchorPoint: "Anchor-1" 876 0 basechar 0
AnchorPoint: "Anchor-0" 574 0 basechar 0
LayerCount: 2
Fore
SplineSet
270 0 m 1
 270 2196 l 1
 876 2196 l 1
 876 0 l 1
 794 -86 l 2
 706 -176 646 -248 612 -304 c 0
 578 -356 562 -412 562 -466 c 0
 562 -512 578 -552 610 -580 c 0
 642 -612 684 -626 734 -626 c 0
 776 -626 816 -622 852 -614 c 1
 852 -938 l 1
 746 -974 638 -992 524 -992 c 0
 366 -992 244 -956 154 -880 c 0
 64 -808 20 -704 20 -574 c 0
 20 -476 50 -380 112 -290 c 0
 174 -200 268 -104 398 -4 c 1
 402 0 l 1
 270 0 l 1
234 2818 m 0
 234 2912 266 2992 332 3056 c 0
 398 3122 480 3154 578 3154 c 0
 676 3154 758 3122 820 3058 c 0
 882 2994 914 2914 914 2818 c 0
 914 2722 882 2642 820 2576 c 0
 758 2510 676 2478 578 2478 c 0
 480 2478 398 2512 332 2576 c 0
 266 2644 234 2724 234 2818 c 0
EndSplineSet
EndChar

StartChar: Idotaccent
Encoding: 304 304 237
Width: 1286
GlyphClass: 2
Flags: HW
AnchorPoint: "Anchor-2" 644 3834 basechar 0
AnchorPoint: "Anchor-1" 954 0 basechar 0
AnchorPoint: "Anchor-0" 644 0 basechar 0
LayerCount: 2
Fore
SplineSet
332 0 m 1
 332 2888 l 1
 954 2888 l 1
 954 0 l 1
 332 0 l 1
312 3452 m 0
 312 3542 344 3620 408 3684 c 0
 470 3748 550 3780 644 3780 c 0
 740 3780 818 3748 880 3684 c 0
 940 3622 970 3544 970 3452 c 0
 970 3358 940 3280 880 3220 c 0
 818 3156 740 3126 644 3126 c 0
 548 3126 468 3158 406 3220 c 0
 344 3282 312 3360 312 3452 c 0
EndSplineSet
Substitution2: "'ss02' Style Set 2 in Latin lookup 26 subtable" Idotaccent.ss01
Substitution2: "'ss01' Style Set 1 in Latin lookup 25 subtable" Idotaccent.ss01
Substitution2: "'aalt' Access All Alternates in Latin lookup 0 subtable" Idotaccent.ss01
EndChar

StartChar: dotlessi
Encoding: 305 305 238
Width: 1146
GlyphClass: 2
Flags: HW
AnchorPoint: "Anchor-2" 574 2196 basechar 0
AnchorPoint: "Anchor-1" 876 0 basechar 0
AnchorPoint: "Anchor-0" 574 0 basechar 0
LayerCount: 2
Fore
SplineSet
270 0 m 1
 270 2196 l 1
 876 2196 l 1
 876 0 l 1
 270 0 l 1
EndSplineSet
EndChar

StartChar: IJ
Encoding: 306 306 239
Width: 3628
GlyphClass: 2
Flags: HW
AnchorPoint: "Anchor-2" 2474 2888 basechar 0
AnchorPoint: "Anchor-1" 954 0 basechar 0
AnchorPoint: "Anchor-0" 2474 0 basechar 0
LayerCount: 2
Fore
SplineSet
332 0 m 1
 332 2888 l 1
 954 2888 l 1
 954 0 l 1
 332 0 l 1
1388 840 m 2
 1388 1000 l 1
 2016 1134 l 1
 2016 828 l 2
 2016 570 2126 442 2348 442 c 0
 2568 442 2678 574 2678 836 c 2
 2678 2888 l 1
 3302 2888 l 1
 3302 868 l 2
 3302 554 3220 320 3056 164 c 0
 2890 8 2654 -70 2348 -70 c 0
 2042 -70 1806 6 1640 160 c 0
 1472 312 1388 538 1388 840 c 2
EndSplineSet
Substitution2: "'ss02' Style Set 2 in Latin lookup 26 subtable" IJ.ss01
Substitution2: "'ss01' Style Set 1 in Latin lookup 25 subtable" IJ.ss01
Substitution2: "'aalt' Access All Alternates in Latin lookup 0 subtable" IJ.ss01
EndChar

StartChar: ij
Encoding: 307 307 240
Width: 2326
GlyphClass: 2
Flags: HW
AnchorPoint: "Anchor-2" 1754 3154 basechar 0
AnchorPoint: "Anchor-1" 876 0 basechar 0
AnchorPoint: "Anchor-0" 1740 -820 basechar 0
LayerCount: 2
Fore
SplineSet
270 0 m 1
 270 2196 l 1
 876 2196 l 1
 876 0 l 1
 270 0 l 1
234 2818 m 0
 234 2912 266 2992 332 3056 c 0
 398 3122 480 3154 578 3154 c 0
 676 3154 758 3122 820 3058 c 0
 882 2994 914 2914 914 2818 c 0
 914 2722 882 2642 820 2576 c 0
 758 2510 676 2478 578 2478 c 0
 480 2478 398 2512 332 2576 c 0
 266 2644 234 2724 234 2818 c 0
1150 -820 m 1
 1446 28 l 1
 1446 2196 l 1
 2052 2196 l 1
 2052 20 l 1
 1748 -820 l 1
 1150 -820 l 1
1414 2818 m 0
 1414 2912 1446 2992 1512 3056 c 0
 1578 3122 1660 3154 1758 3154 c 0
 1856 3154 1938 3122 2000 3058 c 0
 2062 2994 2094 2914 2094 2818 c 0
 2094 2722 2062 2642 2000 2576 c 0
 1938 2510 1856 2478 1758 2478 c 0
 1660 2478 1578 2512 1512 2576 c 0
 1446 2644 1414 2724 1414 2818 c 0
EndSplineSet
EndChar

StartChar: Jcircumflex
Encoding: 308 308 241
Width: 2350
GlyphClass: 2
Flags: HW
AnchorPoint: "Anchor-2" 1196 3706 basechar 0
AnchorPoint: "Anchor-0" 1192 0 basechar 0
LayerCount: 2
Fore
SplineSet
1064 -70 m 0
 758 -70 522 6 356 160 c 0
 190 312 106 538 106 840 c 2
 106 1000 l 1
 734 1134 l 1
 734 828 l 2
 734 570 844 442 1064 442 c 0
 1286 442 1396 574 1396 836 c 2
 1396 2888 l 1
 2020 2888 l 1
 2020 868 l 2
 2020 554 1938 320 1772 164 c 0
 1606 8 1370 -70 1064 -70 c 0
430 3130 m 1
 884 3706 l 1
 1504 3706 l 1
 1958 3130 l 1
 1454 3130 l 1
 1196 3466 l 1
 934 3130 l 1
 430 3130 l 1
EndSplineSet
EndChar

StartChar: jcircumflex
Encoding: 309 309 242
Width: 1174
GlyphClass: 2
Flags: HW
AnchorPoint: "Anchor-2" 602 3154 basechar 0
AnchorPoint: "Anchor-0" 594 -820 basechar 0
LayerCount: 2
Fore
SplineSet
4 -820 m 1
 300 28 l 1
 300 2196 l 1
 906 2196 l 1
 906 20 l 1
 602 -820 l 1
 4 -820 l 1
-204 2474 m 1
 290 3204 l 1
 910 3204 l 1
 1404 2474 l 1
 902 2474 l 1
 602 2916 l 1
 300 2474 l 1
 -204 2474 l 1
EndSplineSet
EndChar

StartChar: Kcommaaccent
Encoding: 310 310 243
Width: 2912
GlyphClass: 2
Flags: HW
AnchorPoint: "Anchor-2" 1454 2888 basechar 0
AnchorPoint: "Anchor-0" 1356 -942 basechar 0
LayerCount: 2
Fore
SplineSet
332 0 m 1
 332 2888 l 1
 954 2888 l 1
 954 1676 l 1
 974 1676 l 1
 2052 2888 l 1
 2802 2888 l 1
 1716 1688 l 1
 2810 0 l 1
 2098 0 l 1
 1274 1314 l 1
 954 954 l 1
 954 0 l 1
 332 0 l 1
978 -942 m 1
 1184 -294 l 1
 1728 -294 l 1
 1442 -942 l 1
 978 -942 l 1
EndSplineSet
EndChar

StartChar: kcommaaccent
Encoding: 311 311 244
Width: 2392
GlyphClass: 2
Flags: HW
AnchorPoint: "Anchor-2" 1204 3010 basechar 0
AnchorPoint: "Anchor-0" 1102 -942 basechar 0
LayerCount: 2
Fore
SplineSet
270 0 m 1
 270 3010 l 1
 876 3010 l 1
 876 1302 l 1
 898 1302 l 1
 1680 2196 l 1
 2326 2196 l 1
 1540 1290 l 1
 2348 0 l 1
 1700 0 l 1
 1114 970 l 1
 876 692 l 1
 876 0 l 1
 270 0 l 1
724 -942 m 1
 930 -294 l 1
 1474 -294 l 1
 1188 -942 l 1
 724 -942 l 1
EndSplineSet
EndChar

StartChar: kgreenlandic
Encoding: 312 312 245
Width: 2386
GlyphClass: 2
Flags: HW
AnchorPoint: "Anchor-2" 1204 2196 basechar 0
AnchorPoint: "Anchor-0" 1204 0 basechar 0
LayerCount: 2
Fore
SplineSet
270 0 m 1
 270 2196 l 1
 876 2196 l 1
 876 1286 l 1
 1662 2196 l 1
 2326 2196 l 1
 1528 1274 l 1
 2322 0 l 1
 1700 0 l 1
 1126 950 l 1
 876 672 l 1
 876 0 l 1
 270 0 l 1
EndSplineSet
EndChar

StartChar: Lacute
Encoding: 313 313 246
Width: 2296
GlyphClass: 2
Flags: HW
AnchorPoint: "Anchor-3" 1302 2888 basechar 0
AnchorPoint: "Anchor-2" 856 3706 basechar 0
AnchorPoint: "Anchor-0" 1142 0 basechar 0
LayerCount: 2
Fore
SplineSet
332 0 m 1
 332 2888 l 1
 954 2888 l 1
 954 508 l 1
 2138 508 l 1
 2138 0 l 1
 332 0 l 1
368 3130 m 1
 766 3706 l 1
 1344 3706 l 1
 914 3130 l 1
 368 3130 l 1
EndSplineSet
EndChar

StartChar: lacute
Encoding: 314 314 247
Width: 1146
GlyphClass: 2
Flags: HW
AnchorPoint: "Anchor-3" 1086 2888 basechar 0
AnchorPoint: "Anchor-2" 786 3706 basechar 0
AnchorPoint: "Anchor-0" 574 0 basechar 0
LayerCount: 2
Fore
SplineSet
270 0 m 1
 270 3010 l 1
 876 3010 l 1
 876 0 l 1
 270 0 l 1
300 3130 m 1
 696 3706 l 1
 1274 3706 l 1
 844 3130 l 1
 300 3130 l 1
EndSplineSet
Substitution2: "'ss03' Style Set 3 in Latin lookup 27 subtable" lacute.ss01
Substitution2: "'ss01' Style Set 1 in Latin lookup 25 subtable" lacute.ss01
Substitution2: "'aalt' Access All Alternates in Latin lookup 0 subtable" lacute.ss01
EndChar

StartChar: Lcommaaccent
Encoding: 315 315 248
Width: 2296
GlyphClass: 2
Flags: HW
AnchorPoint: "Anchor-3" 1302 2888 basechar 0
AnchorPoint: "Anchor-2" 644 2888 basechar 0
AnchorPoint: "Anchor-0" 1044 -942 basechar 0
LayerCount: 2
Fore
SplineSet
332 0 m 1
 332 2888 l 1
 954 2888 l 1
 954 508 l 1
 2138 508 l 1
 2138 0 l 1
 332 0 l 1
668 -942 m 1
 872 -294 l 1
 1418 -294 l 1
 1130 -942 l 1
 668 -942 l 1
EndSplineSet
EndChar

